<svg id="Layer_1" data-name="Layer 1" xmlns="http://www.w3.org/2000/svg" width="303" height="423.3" viewBox="0 0 303 423.3"><defs><style>.cls-1{fill:#a79b69;}.cls-2{fill:#dddbcc;}.cls-3{fill:#bfbc66;}.cls-4{fill:#d4d399;}</style></defs><title>Ishus</title><rect class="cls-1" x="33" y="210.3" width="236" height="207.85" rx="29" ry="29"/><ellipse class="cls-2" cx="151.5" cy="217.3" rx="151.5" ry="43.97"/><ellipse class="cls-2" cx="152" cy="169.33" rx="135" ry="43.97"/><ellipse class="cls-2" cx="152.5" cy="120.37" rx="106.5" ry="43.97"/><path class="cls-2" d="M214,75.9c0-24.56,17-97.43,3-69.45C201.69,37.05,90,51.34,90,75.9s27.76,44.47,62,44.47S214,100.46,214,75.9Z"/><path class="cls-3" d="M177,423.15h38V389.62c-12.68.07-25.36.41-38,.6Z"/><path class="cls-4" d="M177,362.19v28c12.64-.19,25.32-.53,38-.6V362.19Z"/><path class="cls-4" d="M215,389.62v33.53h6.8A16.24,16.24,0,0,0,238,407V389.87C230.35,389.63,222.68,389.57,215,389.62Z"/><path class="cls-3" d="M238,389.87V362.19H215v27.43C222.68,389.57,230.35,389.63,238,389.87Z"/><path class="cls-3" d="M177,265.26v26h38v-28H172.2A16.24,16.24,0,0,0,156,279.45v11.8h21Z"/><path class="cls-3" d="M177,314.23h0v-23H156v47h21Z"/><path class="cls-4" d="M156,390.31V407a16.24,16.24,0,0,0,16.2,16.19H177V390.22C170,390.32,163,390.38,156,390.31Z"/><path class="cls-3" d="M151,364.19c5.67,0,20.33-2,26-2v-24H156v52.1c7,.07,14,0,21-.09v-28C171.33,362.19,156.67,364.19,151,364.19Z"/><path class="cls-4" d="M177,291.25v23h38v-23Z"/><path class="cls-3" d="M215,291.25v23h23v-23Z"/><path class="cls-4" d="M238,279.45a16.24,16.24,0,0,0-16.2-16.18H215v28h23Z"/><path class="cls-3" d="M238,314.23H215v24h23Z"/><path class="cls-4" d="M215,338.21v24h23v-24Z"/><path class="cls-3" d="M215,314.23H177v24h38Z"/><path class="cls-3" d="M177,338.21v24h38v-24Z"/></svg>
