<svg id="Layer_1" data-name="Layer 1" xmlns="http://www.w3.org/2000/svg" width="1920" height="1080" viewBox="0 0 1920 1080"><defs><style>.cls-1{fill:#d8d0ff;}.cls-2{fill:#426205;}.cls-3{fill:#7abf5f;}.cls-4{fill:#688137;}.cls-5{fill:#eebfff;}.cls-6{fill:#553900;}.cls-7{fill:#a79b69;}.cls-8{fill:#dddbcc;}.cls-9{fill:#7f4b00;}.cls-10{fill:#bfbc66;}.cls-11{fill:#d4d399;}.cls-12{fill:#816006;}.cls-13{fill:#ac8109;}.cls-14{fill:#3200ff;}.cls-15{fill:#3f90ff;}.cls-16{fill:#aa002d;}.cls-17{fill:#ff6ade;}.cls-18{fill:#55bcff;}.cls-19{fill:#ffe12a;}.cls-20{fill:#7c7f00;}.cls-21{fill:#ffb494;stroke:#bf4200;}.cls-21,.cls-27{stroke-miterlimit:10;}.cls-22{fill:#ffe9fb;}.cls-23{fill:#ffe93f;}.cls-24{fill:#ffd115;}.cls-25{fill:#ffbfc7;}.cls-26{fill:#ff55be;}.cls-27{fill:none;stroke:#000;stroke-width:3px;}.cls-28{fill:#ff77cb;}.cls-29{fill:#ffade0;}.cls-30{fill:#ff8c88;}.cls-31{fill:#fff;}</style></defs><title>Level_Complete</title><rect class="cls-1" x="-5" y="4" width="1920" height="1080"/><path class="cls-2" d="M25.9,888.64c1-296.27,3.42-520,302.2-519s966.72,205.48,965.72,501.74"/><path class="cls-3" d="M1889.89,1082H21.11A29.14,29.14,0,0,1-8,1053V707c0-16,13.1-29,2-32l1521.52,21c43.11,3,403.47-5,403.47,11v346A29.14,29.14,0,0,1,1889.89,1082Z"/><rect x="576.97" y="138.9" width="3.33" height="165.01" transform="translate(-35.51 139.79) rotate(-13.37)"/><path class="cls-4" d="M1924.51,826.22C1938,538.82,1946.44,321.7,1634.07,307S613.47,455.73,600,743.14"/><ellipse class="cls-5" cx="1604.39" cy="241.52" rx="31.11" ry="20.12" transform="translate(844.12 1674.83) rotate(-70.62)"/><ellipse class="cls-5" cx="1595.2" cy="288.65" rx="31.11" ry="20.12" transform="translate(793.52 1697.65) rotate(-70.62)"/><ellipse class="cls-5" cx="1595.2" cy="196.04" rx="31.11" ry="20.12" transform="translate(880.88 1635.78) rotate(-70.62)"/><ellipse class="cls-5" cx="1527.03" cy="239.03" rx="88.09" ry="128.16"/><polygon class="cls-6" points="1509.41 350.66 1543.11 350.66 1526.26 435 1509.41 350.66"/><ellipse class="cls-5" cx="1463.45" cy="311.8" rx="20.39" ry="30.69" transform="translate(49.1 800.18) rotate(-31.08)"/><ellipse class="cls-5" cx="1447.36" cy="260.53" rx="20.13" ry="31.08" transform="translate(-0.68 517.24) rotate(-20.26)"/><ellipse class="cls-5" cx="1454.13" cy="212.99" rx="18.93" ry="28.54" transform="translate(-10.29 336.8) rotate(-13.17)"/><ellipse class="cls-5" cx="1576.05" cy="328.34" rx="30.61" ry="20.44" transform="translate(441.92 1470.91) rotate(-56.98)"/><ellipse class="cls-5" cx="1516.3" cy="124.1" rx="20.25" ry="30.91" transform="translate(92.17 659.29) rotate(-25.28)"/><ellipse class="cls-5" cx="1484.13" cy="144.77" rx="19.97" ry="31.33" transform="translate(-2.47 261.53) rotate(-10.06)"/><ellipse class="cls-5" cx="1468.81" cy="175.37" rx="20.39" ry="30.69" transform="translate(120.29 783.37) rotate(-31.08)"/><ellipse class="cls-5" cx="1579.12" cy="166.27" rx="31.11" ry="20.12" transform="translate(898.21 1600.71) rotate(-70.62)"/><ellipse class="cls-5" cx="1560.73" cy="144.77" rx="31.11" ry="20.12" transform="translate(906.21 1569.01) rotate(-70.62)"/><ellipse class="cls-5" cx="1537.75" cy="124.1" rx="31.11" ry="20.12" transform="translate(910.35 1533.52) rotate(-70.62)"/><ellipse class="cls-5" cx="1774.39" cy="402.52" rx="31.11" ry="20.12" transform="translate(805.83 1942.77) rotate(-70.62)"/><ellipse class="cls-5" cx="1765.2" cy="449.65" rx="31.11" ry="20.12" transform="translate(755.23 1965.59) rotate(-70.62)"/><ellipse class="cls-5" cx="1765.2" cy="357.04" rx="31.11" ry="20.12" transform="translate(842.59 1903.71) rotate(-70.62)"/><ellipse class="cls-5" cx="1697.03" cy="400.03" rx="88.09" ry="128.16"/><polygon class="cls-6" points="1679.41 511.66 1713.11 511.66 1696.26 596 1679.41 511.66"/><ellipse class="cls-5" cx="1633.45" cy="472.8" rx="20.39" ry="30.69" transform="translate(-9.61 911.04) rotate(-31.08)"/><ellipse class="cls-5" cx="1617.36" cy="421.53" rx="20.13" ry="31.08" transform="translate(-45.91 586.06) rotate(-20.26)"/><ellipse class="cls-5" cx="1624.13" cy="373.99" rx="18.93" ry="28.54" transform="translate(-42.49 379.75) rotate(-13.17)"/><ellipse class="cls-5" cx="1746.05" cy="489.34" rx="30.61" ry="20.44" transform="translate(384.28 1686.72) rotate(-56.98)"/><ellipse class="cls-5" cx="1686.3" cy="285.1" rx="20.25" ry="30.91" transform="translate(39.71 747.29) rotate(-25.28)"/><ellipse class="cls-5" cx="1654.13" cy="305.77" rx="19.97" ry="31.33" transform="translate(-27.98 293.7) rotate(-10.06)"/><ellipse class="cls-5" cx="1638.81" cy="336.37" rx="20.39" ry="30.69" transform="translate(61.59 894.23) rotate(-31.08)"/><ellipse class="cls-5" cx="1749.12" cy="327.27" rx="31.11" ry="20.12" transform="translate(859.92 1868.65) rotate(-70.62)"/><ellipse class="cls-5" cx="1730.73" cy="305.77" rx="31.11" ry="20.12" transform="translate(867.92 1836.94) rotate(-70.62)"/><ellipse class="cls-5" cx="1707.75" cy="285.1" rx="31.11" ry="20.12" transform="translate(872.06 1801.45) rotate(-70.62)"/><ellipse class="cls-5" cx="1464.39" cy="378.52" rx="31.11" ry="20.12" transform="translate(621.35 1634.3) rotate(-70.62)"/><ellipse class="cls-5" cx="1455.2" cy="425.65" rx="31.11" ry="20.12" transform="translate(570.75 1657.12) rotate(-70.62)"/><ellipse class="cls-5" cx="1455.2" cy="333.04" rx="31.11" ry="20.12" transform="translate(658.11 1595.24) rotate(-70.62)"/><ellipse class="cls-5" cx="1387.03" cy="376.03" rx="88.09" ry="128.16"/><polygon class="cls-6" points="1369.41 487.66 1403.11 487.66 1386.26 572 1369.41 487.66"/><ellipse class="cls-5" cx="1323.45" cy="448.8" rx="20.39" ry="30.69" transform="translate(-41.71 747.58) rotate(-31.08)"/><ellipse class="cls-5" cx="1307.36" cy="397.53" rx="20.13" ry="31.08" transform="translate(-56.78 477.24) rotate(-20.26)"/><ellipse class="cls-5" cx="1314.13" cy="349.99" rx="18.93" ry="28.54" transform="translate(-45.18 308.51) rotate(-13.17)"/><ellipse class="cls-5" cx="1436.05" cy="465.34" rx="30.61" ry="20.44" transform="translate(263.33 1415.87) rotate(-56.98)"/><ellipse class="cls-5" cx="1376.3" cy="261.1" rx="20.25" ry="30.91" transform="translate(20.28 612.63) rotate(-25.28)"/><ellipse class="cls-5" cx="1344.13" cy="281.77" rx="19.97" ry="31.33" transform="translate(-28.56 239.17) rotate(-10.06)"/><ellipse class="cls-5" cx="1328.81" cy="312.37" rx="20.39" ry="30.69" transform="translate(29.48 730.76) rotate(-31.08)"/><ellipse class="cls-5" cx="1439.12" cy="303.27" rx="31.11" ry="20.12" transform="translate(675.44 1560.18) rotate(-70.62)"/><ellipse class="cls-5" cx="1420.73" cy="281.77" rx="31.11" ry="20.12" transform="translate(683.43 1528.47) rotate(-70.62)"/><ellipse class="cls-5" cx="1397.75" cy="261.1" rx="31.11" ry="20.12" transform="translate(687.58 1492.99) rotate(-70.62)"/><rect class="cls-7" x="145" y="708" width="236" height="208" rx="29" ry="29"/><ellipse class="cls-8" cx="263.5" cy="715" rx="151.5" ry="44"/><ellipse class="cls-8" cx="264" cy="667" rx="135" ry="44"/><ellipse class="cls-8" cx="264.5" cy="618" rx="106.5" ry="44"/><path class="cls-8" d="M326,573.5c0-24.58,17-97.5,3-69.5-15.31,30.63-127,44.92-127,69.5S229.76,618,264,618,326,598.08,326,573.5Z"/><path class="cls-9" d="M1455.54,769h0"/><path class="cls-10" d="M289,921h38V887.44c-12.68.08-25.36.42-38,.61Z"/><path class="cls-11" d="M289,860v28c12.64-.19,25.32-.53,38-.61V860Z"/><path class="cls-11" d="M327,887.44V921h6.8A16.25,16.25,0,0,0,350,904.8V887.7C342.35,887.45,334.68,887.4,327,887.44Z"/><path class="cls-10" d="M350,887.7V860H327v27.44C334.68,887.4,342.35,887.45,350,887.7Z"/><path class="cls-10" d="M289,763v26h38V761H284.2A16.25,16.25,0,0,0,268,777.2V789h21Z"/><path class="cls-10" d="M289,812h0V789H268v47h21Z"/><path class="cls-11" d="M268,888.13V904.8A16.25,16.25,0,0,0,284.2,921H289v-33C282,888.15,275,888.2,268,888.13Z"/><path class="cls-10" d="M263,862c5.67,0,20.33-2,26-2V836H268v52.13c7,.07,14,0,21-.08V860C283.33,860,268.67,862,263,862Z"/><path class="cls-11" d="M289,789v23h38V789Z"/><path class="cls-10" d="M327,789v23h23V789Z"/><path class="cls-11" d="M350,777.2A16.25,16.25,0,0,0,333.8,761H327v28h23Z"/><path class="cls-10" d="M350,812H327v24h23Z"/><path class="cls-11" d="M327,836v24h23V836Z"/><path class="cls-10" d="M327,812H289v24h38Z"/><path class="cls-10" d="M289,836v24h38V836Z"/><rect x="452.97" y="193.9" width="3.33" height="165.01" transform="translate(-76.88 300.54) rotate(-33.9)"/><path class="cls-12" d="M509.93,325.66c-5.06,1-10.17,1.76-15.32,2.32-1.2.59-2.42,1.15-3.65,1.7a24.47,24.47,0,0,0-2,2.87,27.77,27.77,0,0,0,9-2.55Q504,327.78,509.93,325.66Z"/><path class="cls-12" d="M492.18,328.24c-.43.46-.83.95-1.22,1.44,1.23-.55,2.45-1.11,3.65-1.7Z"/><path class="cls-12" d="M552,311.76c1.76-.54,3.53-1.09,5.3-1.62q10.49-4.9,21-9.88,7.72-7.1,15.56-14c-1.25.32-2.48.66-3.71,1A179.27,179.27,0,0,1,552,311.76Z"/><path class="cls-12" d="M608.29,269.77a182.74,182.74,0,0,1-18.19,17.5c1.23-.36,2.46-.7,3.71-1,5.87-5.17,11.81-10.24,17.87-15.13A25.46,25.46,0,0,0,608.29,269.77Z"/><path class="cls-12" d="M559,290c14.89-6.27,28.55-14.37,42.91-21.44A26.12,26.12,0,0,0,587.12,272l-88.74,51.23a26.18,26.18,0,0,0-6.2,5l2.43-.26C516.93,317,535.51,298.61,559,290Z"/><path class="cls-12" d="M552,311.76a179.27,179.27,0,0,0,38.11-24.49c-21.2,6.2-40.12,18.26-58.74,31.05Q541.65,314.93,552,311.76Z"/><path class="cls-13" d="M608.29,269.77a26.55,26.55,0,0,0-6.38-1.21c-14.36,7.07-28,15.17-42.91,21.44-23.49,8.61-42.07,27-64.39,38,5.15-.56,10.26-1.32,15.32-2.32q10.69-3.81,21.43-7.34c18.62-12.79,37.54-24.85,58.74-31.05A182.74,182.74,0,0,0,608.29,269.77Z"/><path class="cls-12" d="M557.29,310.14c-1.77.53-3.54,1.08-5.3,1.62a179,179,0,0,1-25.17,9.69l-9.59,6.65C530.68,322.4,544,316.34,557.29,310.14Z"/><path class="cls-13" d="M498,330a27.77,27.77,0,0,1-9,2.55,26.34,26.34,0,0,0-3.13,8c10.56-3.84,21-8,31.39-12.43l9.59-6.65q-8.34,2.52-16.89,4.21Q504,327.79,498,330Z"/><path class="cls-12" d="M552,311.76q-10.34,3.17-20.63,6.56l-4.54,3.13A179,179,0,0,0,552,311.76Z"/><path class="cls-12" d="M526.82,321.45l4.54-3.13q-10.73,3.54-21.43,7.34Q518.48,324,526.82,321.45Z"/><path class="cls-12" d="M572.37,305.7c2-1.82,3.91-3.63,5.88-5.44q-10.47,5-21,9.88Q564.82,307.86,572.37,305.7Z"/><path class="cls-13" d="M523.75,341q9.79-4,19.42-8.4c9.87-8.9,19.53-18,29.2-26.9q-7.56,2.16-15.08,4.44c-13.28,6.2-26.61,12.26-40.06,18-6.43,4.44-12.89,8.81-19.46,12.9Z"/><path class="cls-12" d="M485.74,341h12c6.57-4.09,13-8.46,19.46-12.9-10.38,4.4-20.83,8.59-31.39,12.43C485.81,340.69,485.77,340.84,485.74,341Z"/><path class="cls-12" d="M528.36,341q6.27-3.15,12.53-6.34l2.28-2.06q-9.63,4.41-19.42,8.4Z"/><path class="cls-12" d="M486.58,354.22c12.62-3.79,25-8.25,37.17-13.22h-26c-4.08,2.55-8.21,5-12.4,7.25A26.37,26.37,0,0,0,486.58,354.22Z"/><path class="cls-12" d="M485.37,348.25c4.19-2.27,8.32-4.7,12.4-7.25h-12A25.88,25.88,0,0,0,485.37,348.25Z"/><path class="cls-12" d="M486.58,354.22a26.43,26.43,0,0,0,2.19,4.91l.44.77c13.19-6,26.22-12.4,39.15-18.9h-4.61C511.58,346,499.2,350.43,486.58,354.22Z"/><path class="cls-12" d="M621.94,279.94c-2.25,1-4.5,2-6.74,3.06h.8l-.9,0c-12.32,5.62-24.59,11.42-36.85,17.22-2,1.81-3.92,3.62-5.88,5.44q21.82-6.29,43.83-11.85c3.16-2.52,6.33-5,9.48-7.58L623,281.63C622.67,281.05,622.31,280.49,621.94,279.94Z"/><path class="cls-12" d="M615.2,283l-.1,0,.9,0Z"/><path class="cls-13" d="M543.17,332.6c24.74-11.32,48.75-24.51,72.46-38.29l.57-.46q-22,5.61-43.83,11.85C562.7,314.65,553,323.7,543.17,332.6Z"/><path class="cls-13" d="M578.25,300.26c12.26-5.8,24.53-11.6,36.85-17.22a104.94,104.94,0,0,0-21.29,3.21Q586,293.15,578.25,300.26Z"/><path class="cls-12" d="M621.12,278.82a26.07,26.07,0,0,0-9.44-7.7c-6.06,4.89-12,10-17.87,15.13A104.94,104.94,0,0,1,615.1,283l.1,0H613A72.49,72.49,0,0,1,621.12,278.82Z"/><path class="cls-12" d="M621.12,278.82A72.49,72.49,0,0,0,613,283h2.2c2.24-1,4.49-2.05,6.74-3.06C621.67,279.55,621.4,279.19,621.12,278.82Z"/><path class="cls-12" d="M540.89,334.66c22.59-11.54,45-23.36,67.64-34.66l7.1-5.69c-23.71,13.78-47.72,27-72.46,38.29Z"/><path class="cls-12" d="M616.2,293.85l.38-.09q5-2.92,10-5.88l-.93-1.61C622.53,288.81,619.36,291.33,616.2,293.85Z"/><path class="cls-12" d="M615.63,294.31l1-.55-.38.09Z"/><path class="cls-12" d="M616.58,293.76q4.78-1.23,9.59-2.42l1.9-.92-1.46-2.54Q621.6,290.84,616.58,293.76Z"/><path class="cls-12" d="M615.63,294.31l-7.1,5.69q8.79-4.39,17.64-8.66-4.8,1.2-9.59,2.42Z"/><path class="cls-13" d="M495,368c13.13-8.44,26.25-16.91,38.56-27h-5.2c-12.93,6.5-26,12.85-39.15,18.9l14.64,25.35c17.28-15.29,35-29.9,52.93-44.25H533.56C521.25,351.09,508.13,359.56,495,368Z"/><path class="cls-12" d="M510.86,397.4l1.14,2A26,26,0,0,0,523.51,410q44.7-36.14,91.55-69H577.11C554.52,359.14,532.36,377.85,510.86,397.4Z"/><path class="cls-13" d="M615.06,341q-46.89,32.83-91.55,69a26.21,26.21,0,0,0,24.37-1l4.2-2.42C584.3,385.12,615.83,363,647.49,341Z"/><path class="cls-12" d="M647.49,341c-31.66,22-63.19,44.12-95.41,65.56l84.54-48.81A26.17,26.17,0,0,0,649.05,341Z"/><path class="cls-12" d="M503.85,385.25l7,12.15c21.5-19.55,43.66-38.26,66.25-56.4H556.78C538.88,355.35,521.13,370,503.85,385.25Z"/><path class="cls-12" d="M536,339c-.81.68-1.63,1.33-2.44,2h23.22c17.19-13.78,34.53-27.32,51.75-41-22.65,11.3-45,23.12-67.64,34.66C539.26,336.11,537.64,337.56,536,339Z"/><path class="cls-12" d="M632.48,298.05c-18.66,14.06-37.15,28.32-55.37,42.95h37.95q15-10.51,30.27-20.7Z"/><path class="cls-12" d="M649.05,341c.1-.42.19-.84.26-1.26L647.49,341Z"/><path class="cls-13" d="M646.23,321.87l-.9-1.57q-15.27,10.18-30.27,20.7h32.43l1.82-1.26A26.13,26.13,0,0,0,646.23,321.87Z"/><path class="cls-12" d="M626.17,291.34l2.13-.53-.23-.39Z"/><path class="cls-13" d="M626.17,291.34q-8.85,4.26-17.64,8.66c-17.22,13.68-34.56,27.22-51.75,41h20.33c18.22-14.63,36.71-28.89,55.37-42.95l-4.18-7.24Z"/><path class="cls-12" d="M533.56,341c.81-.67,1.63-1.32,2.44-2,1.64-1.44,3.26-2.89,4.89-4.34q-6.25,3.18-12.53,6.34Z"/><ellipse class="cls-14" cx="480.69" cy="178.12" rx="102.27" ry="83.8" transform="translate(-30.45 217.16) rotate(-24.7)"/><polygon class="cls-14" points="651.21 147.2 661.58 114.88 628.79 113.99 633.02 78.18 600.32 86.6 597.91 49.21 575.05 59.52 578.69 64.88 574.48 60.1 541.07 165.75 650.96 147.93 650.97 147.94 650.97 147.92 651.73 147.8 651.21 147.2"/><polygon class="cls-14" points="319.4 197.81 302.48 225.46 335.19 235.22 323.72 267.82 358.21 268.78 353.09 304.68 378.09 301.18 375.52 295.13 378.78 300.79 433.58 210.31 319.8 197.2 319.79 197.18 319.78 197.19 318.99 197.1 319.4 197.81"/><path class="cls-15" d="M574.87,138.3c19.64,48.51-19.83,99.39-62.71,117.52"/><ellipse class="cls-16" cx="921.16" cy="667.01" rx="49.72" ry="91.99" transform="matrix(0.26, -0.97, 0.97, 0.26, 36.96, 1382.3)"/><ellipse class="cls-17" cx="1055.66" cy="569.51" rx="39.87" ry="80.53" transform="translate(230.5 1440.07) rotate(-74.88)"/><ellipse class="cls-18" cx="1202.66" cy="501.01" rx="31.66" ry="78.31" transform="translate(405.29 1531.35) rotate(-74.88)"/><path class="cls-19" d="M1187.47,636.34c10.52-45.91-23.28-139,48.54-222.82S1402.54,293.69,1447.56,333s53,171.54-48.54,222.82C1268.6,621.66,1187.29,637.13,1187.47,636.34Z"/><path class="cls-19" d="M1835.22,487.2c-67.82-32.86-101.29-104.47-74.76-159.94s125.45-112.92,170.82-40.95c58.29,92.44,40.13,245.42,39.51,245.56"/><ellipse class="cls-5" cx="1606.96" cy="542.78" rx="25.71" ry="19.08" transform="translate(-69.38 801.27) rotate(-27.43)"/><rect class="cls-20" x="1217.76" y="619.03" width="5.62" height="135.51"/><ellipse class="cls-21" cx="1220.57" cy="577.5" rx="56.25" ry="48.09"/><path class="cls-22" d="M1248.36,697.77a41.39,41.39,0,0,0-.63-11.12c-2.72-14.14-11.91-23.41-20.51-20.71-5.88,1.84-10,8.81-11.09,17.56-19.47-5.5-35.49-4-40.32,5.24-6.94,13.27,11.92,37.47,42.12,54s60.31,19.25,67.25,6C1291.71,736.28,1275.43,714.14,1248.36,697.77Z"/><path class="cls-5" d="M1444.13,1075.23c-97.06-114,87.13-456.36,203.15-459s336.76,286.65,248,458.1"/><ellipse class="cls-22" cx="1618.24" cy="529.36" rx="229.85" ry="235.29"/><path class="cls-5" d="M1891.47,800.64H1785.41c8,0,2.46-11.36,2.46-25.24h0a57,57,0,0,1,9.61-31.18l111-15.15c9.51,5.94,2.73,32.45,2.73,46.33h0C1911.21,789.28,1913.06,800.64,1891.47,800.64Z"/><path class="cls-5" d="M1473.89,783.23l-73.11,13.65c-2.52-.63-20.1-8.44-38.75-14.82l-58.81-77.26c-14.82-19.46-24.91-8.72-38.79,2.37s-45,26.14-44.45,39.47l91.33,88c1.68-.21,3.6-.53,5.7-1l138.38,34.85c7.16-16,15.41-30.14,20-48.81h0C1480,801,1479.35,784.6,1473.89,783.23Z"/><path class="cls-23" d="M1819.83,422.73c-11.08-9-21.61-18.27-32.14-27.28s-21.06-17.71-31.72-25.57a227.64,227.64,0,0,0-32.52-20.37c-2.76-1.4-5.55-2.67-8.32-3.93s-5.6-2.33-8.42-3.38A154,154,0,0,0,1689.6,337c-23.06-5.67-47.59-6.18-72.89-4.15q-9.48.75-19.07,2c-6.39.73-12.81,1.73-19.26,2.72s-12.9,2.18-19.39,3.32c-3.24.6-6.49,1.2-9.74,1.86l-2.43.48-2.24.46c-1.47.3-2.94.6-4.38.95a182,182,0,0,0-33.28,10.94,148,148,0,0,0-29.38,17.32c-18.08,13.73-33,32.18-44.36,54.08s-19.42,46.78-25.1,72.92c-2.89,13.08-5.13,26.5-7.16,40.14-.93,6.82-1.87,13.7-2.7,20.63s-1.6,13.92-2.52,21c-2.43-6.69-4.46-13.48-6.36-20.34s-3.47-13.8-4.83-20.81a299.52,299.52,0,0,1-5.35-42.82,264.69,264.69,0,0,1,1.27-44.05,223.92,223.92,0,0,1,9.59-44.4A190.4,190.4,0,0,1,1410,366.52a175.72,175.72,0,0,1,50.56-52.06q5.07-3.42,10.33-6.5l5.33-2.95c1.8-.93,3.58-1.9,5.4-2.79a207.28,207.28,0,0,1,45-16.05c1.91-.48,3.83-.89,5.75-1.29.94-.2,2-.42,2.84-.59l2.66-.5c3.54-.68,7.1-1.31,10.66-1.93,7.14-1.25,14.33-2.28,21.59-3.21s14.57-1.63,22-2.18,14.83-.83,22.33-.89,15.07.12,22.68.69c3.81.28,7.62.62,11.45,1.05s7.65,1,11.48,1.62A209.2,209.2,0,0,1,1682.9,284a187.58,187.58,0,0,1,22.37,7.92c3.64,1.56,7.23,3.25,10.76,5s7,3.74,10.35,5.8a165.27,165.27,0,0,1,19.15,13.49,199.23,199.23,0,0,1,31.41,32.36,294.49,294.49,0,0,1,23.84,36.06A385.9,385.9,0,0,1,1819.83,422.73Z"/><polygon class="cls-24" points="1576.96 363.29 1576.96 280.99 1589.29 363.29 1576.96 363.29"/><path class="cls-25" d="M1694,568.28c20.8,61.11-4.2,122.06-43.65,131.65s-101.18-35.32-99.21-96.9"/><path class="cls-26" d="M1414.64,445.79a20.32,20.32,0,0,0-.66-2.22c-2.21-6.2.07-13.25,5.27-18.64l41.6-43.11c12.26-12.71,4.75-30.63-13.52-32.26l-83.76-7.48c-18.27-1.64-33.6,14.24-27.59,28.58l21.69,51.73c2.45,5.85,1.27,12.54-2.93,18.18-4.63,6.24-6.61,13.74-4.83,21.07A22.28,22.28,0,0,0,1352,467c3.26,6.06,2.51,13.38-2,19.46l-34.81,46.6c-10.31,13.8,0,30.52,18.61,30.09l81.4-1.9c18.58-.43,31.47-17.69,23.2-31.06l-27.83-45a18,18,0,0,1,.28-19.77C1414.72,459.53,1416.3,452.58,1414.64,445.79Z"/><path class="cls-27" d="M1567.22,504.09c-8-36-26.29-62.41-40.79-59s-30.92,29.48-11.71,71.32"/><path class="cls-27" d="M1704.68,472.64c-2.38-45.34-25.4-58.4-39.9-55s-20.14,33.53-12.6,67.3"/><path class="cls-28" d="M1653.56,686.11c.33-15.22-32.93-46.2-48.74-46.2S1576.2,653,1576.2,668.23s19.49,14.39,28.62,26.82C1618.56,713.74,1653.15,705.08,1653.56,686.11Z"/><path class="cls-28" d="M1650.26,696.82c43-14.06,40-60.75.75-62.24-15.21-.58-27.56,13.57-27.56,30.3s12.34,30.31,27.56,30.31S1635.68,701.6,1650.26,696.82Z"/><ellipse class="cls-29" cx="1753.62" cy="575.9" rx="19.03" ry="33.51" transform="translate(815.64 2165.57) rotate(-77.64)"/><ellipse class="cls-29" cx="1490.3" cy="623.15" rx="33.63" ry="18.96" transform="translate(-121.26 733.52) rotate(-26.61)"/><ellipse class="cls-30" cx="1612.96" cy="552.36" rx="26.63" ry="10.21" transform="translate(-91.87 534.61) rotate(-18.31)"/><ellipse class="cls-31" cx="668" cy="373" rx="584" ry="367"/><polygon class="cls-31" points="1156.6 806.29 755.47 671.3 1072.94 391.41 1156.6 806.29"/><path d="M303,130.77q-8.18.54-16.22,1c-5.36.32-10.79.48-16.26.48a10.39,10.39,0,0,1-2.14-.24,6.77,6.77,0,0,1-2.11-.82,4.83,4.83,0,0,1-1.61-1.57,4.47,4.47,0,0,1-.64-2.49,4.39,4.39,0,0,1,.56-2.12,8.6,8.6,0,0,1,1.36-1.87,15.12,15.12,0,0,1,1.72-1.58,14.21,14.21,0,0,1,1.63-1.12,10.24,10.24,0,0,1,3.59-1.33,22.38,22.38,0,0,1,3.74-.31l.23-.07a46.38,46.38,0,0,1,6.1-.3q3.33,0,6.11,0l27-.61q10.49-.27,20.82-.58t20.82-.31l1.91,0c.76,0,1.55.08,2.36.17a19.07,19.07,0,0,1,2.31.41,4.11,4.11,0,0,1,1.69.82l-.22-.27a2.7,2.7,0,0,1,1.17,2.46,5.93,5.93,0,0,1-.56,2.59,7.12,7.12,0,0,1-1.39,2,7.88,7.88,0,0,1-1.89,1.44,9,9,0,0,1-2.05.85,21.59,21.59,0,0,1-4.5.75c-1.52.09-3.05.16-4.61.21-.37,0-1.12,0-2.24.07s-2.51.09-4.14.13-3.41.12-5.36.21l-5.88.27c-2,.09-3.92.19-5.8.31s-3.58.22-5.06.34-2.69.23-3.63.34a5.32,5.32,0,0,0-1.59.31,5.53,5.53,0,0,0-.75,1.26,12.83,12.83,0,0,0-.52,1.47q-1.34,4.09-2.31,8.49t-2,8.71q-2.5,10.36-5,20.54t-5.11,20.55Q302,193.29,300,201t-2.72,10.13q-.64,2.46-1.39,4.71a24.48,24.48,0,0,1-1.64,3.89,7.9,7.9,0,0,1-1.47,1.81,11.1,11.1,0,0,1-2,1.47,11.64,11.64,0,0,1-2.16,1,6.51,6.51,0,0,1-2.06.37q-2.16,0-.83-7.74T303,130.77Z"/><path d="M328.35,181.85q-.06,1,.39,1a2.65,2.65,0,0,0,1.55-.85,23,23,0,0,0,2.06-2.15c.74-.86,1.51-1.78,2.33-2.76s1.82-2.14,3-3.48a29.5,29.5,0,0,1,2.84-2.87,3,3,0,0,1,1.8-.85.92.92,0,0,1,.78.37,2.68,2.68,0,0,1,.41.92,5.32,5.32,0,0,1,.17,1.13q0,.58,0,1a7.65,7.65,0,0,1-.78,3.14q-.78,1.71-9.6,12.35t-13.27,7.44q-4.45-3.21-.39-22.83t5.44-21.84q1.38-2.22,5.3-2.25c2.61,0,4.27.32,5,1a4.33,4.33,0,0,1,1.05,3.17,14.54,14.54,0,0,1-.52,2.87c-.36,1.41-.8,3-1.34,4.88s-1.13,3.81-1.8,5.91-1.31,4.11-1.94,6.07-1.2,3.72-1.7,5.29A16.11,16.11,0,0,0,328.35,181.85Zm6.86-36.68a5.7,5.7,0,0,1-4.86-.89,10,10,0,0,1-3.17-3,6.24,6.24,0,0,1-.83-3.1A3.79,3.79,0,0,1,327,136a10.91,10.91,0,0,1,1.58-1.91,10.37,10.37,0,0,1,2-1.5,11.69,11.69,0,0,1,1.78-.89,6.38,6.38,0,0,1,1.77-.44,16.61,16.61,0,0,1,1.83-.11,5.22,5.22,0,0,1,2.25.52,5.93,5.93,0,0,1,1.89,1.4,6.53,6.53,0,0,1,1.28,2.15,7.92,7.92,0,0,1,.47,2.76,4.58,4.58,0,0,1-.75,2.7,22.7,22.7,0,0,1-2,2.42A8.16,8.16,0,0,1,335.21,145.17Z"/><path d="M350.45,117.93c.18-.86.37-1.71.58-2.56a8.7,8.7,0,0,1,.86-2.25,4.93,4.93,0,0,1,1.39-1.6,3.53,3.53,0,0,1,2.16-.62,4.71,4.71,0,0,1,2.25.75,12.94,12.94,0,0,1,2.5,1.92,13.24,13.24,0,0,1,2.05,2.52,4.85,4.85,0,0,1,.86,2.59,8.94,8.94,0,0,1-.36,2.53c-.24.82-.47,1.62-.69,2.39-.63,2.37-1.23,4.74-1.8,7.13s-1.16,4.79-1.75,7.2q-2.67,10.65-7.05,30t-1.39,18.77q3-.58,7.88-7.37t6.44-8.84a1.65,1.65,0,0,1,1.17-.75,1,1,0,0,1,.86.55,4.23,4.23,0,0,1,.55,1.43,9.72,9.72,0,0,1,.2,2.08,12.18,12.18,0,0,1-.28,2.49,7.18,7.18,0,0,1-1.06,2.7,52.05,52.05,0,0,1-3.74,5.56c-1.8,2.41-3.45,4.49-5,6.25s-3.81,4.13-6.89,7.13q-5.61,4-10.16-1.67t1.34-34.13Q347.28,133.71,350.45,117.93Z"/><path d="M372.49,117.93c.18-.86.38-1.71.58-2.56a8.7,8.7,0,0,1,.86-2.25,4.93,4.93,0,0,1,1.39-1.6,3.55,3.55,0,0,1,2.16-.62,4.71,4.71,0,0,1,2.25.75,12.64,12.64,0,0,1,2.5,1.92,13.69,13.69,0,0,1,2.06,2.52,4.94,4.94,0,0,1,.86,2.59,8.94,8.94,0,0,1-.36,2.53c-.25.82-.48,1.62-.7,2.39-.63,2.37-1.23,4.74-1.8,7.13s-1.16,4.79-1.75,7.2q-2.67,10.65-7.05,30T372.1,186.7q3-.58,7.88-7.37t6.44-8.84a1.65,1.65,0,0,1,1.17-.75,1,1,0,0,1,.86.55,4.23,4.23,0,0,1,.55,1.43,9.72,9.72,0,0,1,.2,2.08,11.52,11.52,0,0,1-.28,2.49,7.28,7.28,0,0,1-1.05,2.7,54.13,54.13,0,0,1-3.75,5.56c-1.8,2.41-3.45,4.49-5,6.25s-3.81,4.13-6.88,7.13q-5.61,4-10.16-1.67t1.33-34.13Q369.32,133.71,372.49,117.93Z"/><path d="M382.15,180.11a35.59,35.59,0,0,1,.91-7.27,72.28,72.28,0,0,1,2.42-8.53,66,66,0,0,1,3.39-8,22.73,22.73,0,0,1,3.83-5.7,3.67,3.67,0,0,1,1.19-.86,3.31,3.31,0,0,1,1.19-.23,3.38,3.38,0,0,1,2,.68,7.51,7.51,0,0,1,1.69,1.64,8.47,8.47,0,0,1,1.16,2.08,5.5,5.5,0,0,1,.45,2,12.21,12.21,0,0,1-1.11,4.34c-.74,1.79-1.57,3.8-2.47,6s-1.73,4.53-2.47,7a21.79,21.79,0,0,0-1,7.1c.07,2.3.36,3.48.86,3.55s1.78-1.83,3.83-5.7a49.24,49.24,0,0,0,4.08-9.48c.67-2.46,1.3-5,1.92-7.61s1.19-5.06,1.74-7.31,1.11-4.21,1.64-5.87a9.6,9.6,0,0,1,1.58-3.31,4.28,4.28,0,0,1,1.48-1,4.62,4.62,0,0,1,1.63-.31,4.9,4.9,0,0,1,2.28.65,9.86,9.86,0,0,1,2.28,1.71,10.07,10.07,0,0,1,1.75,2.39,5.79,5.79,0,0,1,.69,2.69,11,11,0,0,1-.28,2.43c-.18.84-.39,1.62-.61,2.35s-.39,1.44-.61,2.12-.44,1.39-.67,2.11c-1.14,3.69-2.24,7.4-3.27,11.13s-2.11,7.44-3.22,11.13c.52-.55,1.14-1.27,1.86-2.15l2.19-2.7a42.24,42.24,0,0,1,3.72-3.79q2.61-2.41,3.33-3a5.25,5.25,0,0,1,1.11-.68,3,3,0,0,1,1.22-.27,2.85,2.85,0,0,1,2.17.88,3.6,3.6,0,0,1,.83,2.53,6.41,6.41,0,0,1-.66,2.39,31.25,31.25,0,0,1-1.73,3.27c-.7,1.19-1.49,2.4-2.35,3.66a39.16,39.16,0,0,1-4.17,4.77q-2.87,2.91-4,4.2a21.89,21.89,0,0,1-1.78,1.91c-.48.46-1.12,1-1.91,1.78s-1.59,1.49-2.39,2.28-1.52,1.6-2.19,2.39a8.62,8.62,0,0,0-1.39,2.15q-1.17,3.15-2.64,7.17t-3.22,8.26q-1.74,4.23-3.86,8.29a47.09,47.09,0,0,1-4.6,7.27,23,23,0,0,1-5.44,5.15,11.28,11.28,0,0,1-6.33,2,6.91,6.91,0,0,1-3.72-1,8.07,8.07,0,0,1-2.61-2.59,11.85,11.85,0,0,1-1.56-3.79,20.18,20.18,0,0,1-.5-4.54,25.37,25.37,0,0,1,.92-6.65,46.39,46.39,0,0,1,2.19-6.32,34.8,34.8,0,0,1,5.3-8.84,35.55,35.55,0,0,1,7.3-6.51c1.3-.91,2.62-1.77,4-2.56l4.09-2.43a2.2,2.2,0,0,1-.56.07h-.56a8.28,8.28,0,0,1-4.46-1.19,10.27,10.27,0,0,1-3.22-3.21,15.59,15.59,0,0,1-2-4.64A22.46,22.46,0,0,1,382.15,180.11Zm-1.33,45.94c.88-1.14,1.81-2.45,2.77-3.93s1.91-3,2.83-4.6,1.8-3.2,2.61-4.81,1.52-3.15,2.11-4.61a43.68,43.68,0,0,0-3.36,3.58,35.42,35.42,0,0,0-3.11,4.34,34.26,34.26,0,0,0-2.44,4.84A22.07,22.07,0,0,0,380.82,226.05Z"/><path d="M435.89,113.63a5,5,0,0,1,2.44.82,13.61,13.61,0,0,1,2.64,2,13.09,13.09,0,0,1,2.14,2.73,5.68,5.68,0,0,1,.89,2.87,17.1,17.1,0,0,1-.56,3.31q-.56,2.36-1.39,5.46t-1.88,6.62c-.71,2.34-1.38,4.59-2,6.76s-1.24,4.12-1.78,5.87-.93,3.08-1.19,4c.67-.55,1.55-1.34,2.64-2.39s2.24-2.07,3.44-3.07a37.85,37.85,0,0,1,3.53-2.63,5.61,5.61,0,0,1,2.83-1.13,2.16,2.16,0,0,1,2.25,1.16,8.69,8.69,0,0,1,.47,3.14,9,9,0,0,1-1,4.27,11.7,11.7,0,0,1-2.53,3.21c-1,.93-2.8,2.42-5.3,4.47s-4.37,3.7-5.61,5a6,6,0,0,0-2,3.21,8.86,8.86,0,0,0,.33,3.1q.48,1.77,1.11,3.69a35.44,35.44,0,0,0,1.34,3.44,12.93,12.93,0,0,0,1.44,2.53c.5.66,1,1,1.42,1a4.23,4.23,0,0,0,2.55-.85,10.72,10.72,0,0,0,2.14-2.12q1-1.26,2.5-3.75c1-1.66,1.81-2.92,2.38-3.76a12.07,12.07,0,0,1,1.81-2.11,2.94,2.94,0,0,1,2-.86,2.89,2.89,0,0,1,1,.21,3.15,3.15,0,0,1,1,.61,3.43,3.43,0,0,1,.78,1,2.37,2.37,0,0,1,.31,1.16,4.62,4.62,0,0,1-.17,1.12c-.11.44-.24.87-.39,1.3s-.3.85-.47,1.26-.31.75-.42,1a41.77,41.77,0,0,1-3.38,6.11,38.79,38.79,0,0,1-4.61,6,24.85,24.85,0,0,1-4.67,3.82,8.91,8.91,0,0,1-4.77,1.54,4.86,4.86,0,0,1-3.05-1,10.75,10.75,0,0,1-2.36-2.56,23.36,23.36,0,0,1-1.86-3.35c-.56-1.2-1.06-2.35-1.5-3.44-.3,1.22-.62,2.62-1,4.19s-.73,3.18-1.12,4.82-.79,3.2-1.22,4.71-.84,2.79-1.25,3.89a3.37,3.37,0,0,1-1.38,1.8,3.74,3.74,0,0,1-2,.58,3,3,0,0,1-2.22-.88,6.33,6.33,0,0,1-1.42-2.19,11.29,11.29,0,0,1-.72-2.83,22.64,22.64,0,0,1-.2-2.83,33.59,33.59,0,0,1,.25-3.52c.17-1.43.4-3,.7-4.67s.61-3.44.94-5.26.69-3.58,1.06-5.29.71-3.3,1-4.78.59-2.69.81-3.65q2.77-11.81,5.22-23.55t4.83-23.61c.18-.91.38-1.82.58-2.73a10.33,10.33,0,0,1,.86-2.46,5,5,0,0,1,1.45-1.77A3.59,3.59,0,0,1,435.89,113.63Z"/><path d="M464,113.63a5.06,5.06,0,0,1,2.44.82,14.24,14.24,0,0,1,2.64,2,13.38,13.38,0,0,1,2.13,2.73,5.68,5.68,0,0,1,.89,2.87,16.86,16.86,0,0,1-.55,3.31c-.37,1.57-.84,3.39-1.39,5.46s-1.19,4.28-1.89,6.62l-2,6.76c-.64,2.16-1.24,4.12-1.77,5.87s-.94,3.08-1.2,4c.67-.55,1.55-1.34,2.64-2.39s2.24-2.07,3.44-3.07a39.22,39.22,0,0,1,3.53-2.63,5.64,5.64,0,0,1,2.83-1.13,2.16,2.16,0,0,1,2.25,1.16,8.69,8.69,0,0,1,.47,3.14,8.88,8.88,0,0,1-1,4.27,11.7,11.7,0,0,1-2.53,3.21q-1.55,1.4-5.3,4.47t-5.61,5a6.09,6.09,0,0,0-2,3.21,8.66,8.66,0,0,0,.34,3.1q.47,1.77,1.11,3.69a35.53,35.53,0,0,0,1.33,3.44,12.93,12.93,0,0,0,1.44,2.53c.5.66,1,1,1.42,1a4.2,4.2,0,0,0,2.55-.85,10.72,10.72,0,0,0,2.14-2.12q1-1.26,2.5-3.75c1-1.66,1.81-2.92,2.39-3.76a11.63,11.63,0,0,1,1.8-2.11,3,3,0,0,1,2-.86,2.85,2.85,0,0,1,1,.21,3.3,3.3,0,0,1,1,.61,3.58,3.58,0,0,1,.77,1,2.27,2.27,0,0,1,.31,1.16,4.62,4.62,0,0,1-.17,1.12c-.11.44-.24.87-.39,1.3s-.3.85-.47,1.26l-.41,1a43,43,0,0,1-3.39,6.11,38.18,38.18,0,0,1-4.61,6,24.8,24.8,0,0,1-4.66,3.82,8.92,8.92,0,0,1-4.78,1.54,4.88,4.88,0,0,1-3.05-1,10.75,10.75,0,0,1-2.36-2.56,23.36,23.36,0,0,1-1.86-3.35c-.56-1.2-1.06-2.35-1.5-3.44-.3,1.22-.62,2.62-1,4.19s-.72,3.18-1.11,4.82-.8,3.2-1.22,4.71-.85,2.79-1.25,3.89a3.38,3.38,0,0,1-1.39,1.8,3.74,3.74,0,0,1-2,.58,3,3,0,0,1-2.22-.88,6.63,6.63,0,0,1-1.42-2.19,11.29,11.29,0,0,1-.72-2.83,22.51,22.51,0,0,1-.19-2.83,31.05,31.05,0,0,1,.25-3.52c.16-1.43.4-3,.69-4.67s.61-3.44.95-5.26.68-3.58,1.05-5.29.71-3.3,1-4.78.58-2.69.8-3.65q2.78-11.81,5.22-23.55t4.83-23.61c.19-.91.38-1.82.59-2.73a10.33,10.33,0,0,1,.86-2.46,5.06,5.06,0,0,1,1.44-1.77A3.6,3.6,0,0,1,464,113.63Z"/><path d="M476,176.77a69.22,69.22,0,0,1,1-9.25,27.48,27.48,0,0,1,6-12.76q5-6.39,11-7.27t9.69,1.91q3.68,2.81,3.33,8.87a17.55,17.55,0,0,1-3.27,9.93,16,16,0,0,1-6.86,5.4,42,42,0,0,1-8.41,2.28,10.39,10.39,0,0,0-.86,2.6,12.15,12.15,0,0,0,.14,5.56c.48,2.21,2,3.08,4.55,2.63a19.2,19.2,0,0,0,7.8-3.55,22.34,22.34,0,0,0,6.69-8.19c.48-.73.92-1.41,1.31-2.05a14.82,14.82,0,0,1,1.22-1.74,4.9,4.9,0,0,1,1.5-1.26,3.21,3.21,0,0,1,2.11-.28,2.22,2.22,0,0,1,1.66.92,2.76,2.76,0,0,1,.36,1.61,5.66,5.66,0,0,1-.44,1.84c-.26.64-.54,1.34-.83,2.12a49,49,0,0,1-3.42,7.06,32.32,32.32,0,0,1-5,6.52,25.11,25.11,0,0,1-6.7,4.81,18.79,18.79,0,0,1-8.49,1.88,12.48,12.48,0,0,1-6.22-1.5,12.64,12.64,0,0,1-4.41-4.17,19.36,19.36,0,0,1-2.61-6.24A33,33,0,0,1,476,176.77Zm23-20.41a30.59,30.59,0,0,0-2.39,2.15c-.85.84-1.67,1.73-2.47,2.66a30.19,30.19,0,0,0-2.22,2.94c-.69,1-1.3,2-1.86,2.9a2.74,2.74,0,0,0,1.78.54,5.11,5.11,0,0,0,2.47-.75,7.92,7.92,0,0,0,2.44-2.15,11.08,11.08,0,0,0,1.75-3.51A13.23,13.23,0,0,0,499,156.36Z"/><path d="M502.52,216.77a7.68,7.68,0,0,1,1.58-1.2,3.87,3.87,0,0,1,1.86-.44,6.82,6.82,0,0,1,4.39,1.47q1.83,1.46,1.83,4.88a8.29,8.29,0,0,1-.5,3,5.67,5.67,0,0,1-1.39,2.09,5.55,5.55,0,0,1-2,1.19,7.8,7.8,0,0,1-2.47.38,7.6,7.6,0,0,1-1.77-.24,6.6,6.6,0,0,1-1.86-.75,4.62,4.62,0,0,1-1.45-1.37,3.47,3.47,0,0,1-.58-2,16.32,16.32,0,0,1,.42-3.93A6.23,6.23,0,0,1,502.52,216.77ZM523.45,122q.78-3.69,1.39-7.3c.4-2.42.87-4.85,1.38-7.31.23-1,.49-1.92.81-2.9a12.89,12.89,0,0,1,1.17-2.66,6.48,6.48,0,0,1,1.72-2,3.87,3.87,0,0,1,2.41-.78,5,5,0,0,1,2.06.51,4.15,4.15,0,0,1,1.72,1.4,7.34,7.34,0,0,1,.69,1.36c.24.59.47,1.22.7,1.88s.4,1.31.55,1.94a7.11,7.11,0,0,1,.22,1.57,15.69,15.69,0,0,1-.33,2.09c-.22,1.11-.5,2.44-.83,4s-.72,3.22-1.14,5-.83,3.5-1.2,5.11-.71,3.08-1,4.37-.53,2.2-.64,2.7q-28.54,97.74-25,71.43t7.5-44.3Q519.57,140.19,523.45,122Z"/><path d="M297.37,360.76a51.93,51.93,0,0,1-7.05,4.71,11.22,11.22,0,0,1-5.11,1.23A6.36,6.36,0,0,1,280.6,365a11.8,11.8,0,0,1-2.78-4.3,24,24,0,0,1-1.36-5.7,50.72,50.72,0,0,1-.36-5.83,40.5,40.5,0,0,1,1.72-11.57,38,38,0,0,1,4.81-10.38,26.78,26.78,0,0,1,7.33-7.47,16.28,16.28,0,0,1,9.3-2.87,15.87,15.87,0,0,1,4.66.75,44.5,44.5,0,0,0,1.28-4.95c.4-2,.81-4.1,1.22-6.38s.81-4.61,1.22-7,.82-4.65,1.25-6.79.88-4.06,1.36-5.76a18,18,0,0,1,1.5-3.93,3.29,3.29,0,0,1,1.64-1.53,5.53,5.53,0,0,1,2-.38,5.44,5.44,0,0,1,2.78.78,9,9,0,0,1,2.36,2.05,10.54,10.54,0,0,1,1.64,2.9,9.9,9.9,0,0,1,.61,3.42,7.77,7.77,0,0,1-.14,1.46q-.15.72-.36,1.47c-.71,2.41-1.35,4.8-1.95,7.17s-1.18,4.75-1.77,7.16c-.85,3.42-1.72,7-2.58,10.82s-1.74,7.65-2.59,11.54S310.84,341,308.25,352q-1.5,5.46,2.33,3.24a23.05,23.05,0,0,0,7.28-7.33,54.31,54.31,0,0,0,5-8.81,2.58,2.58,0,0,1,2-1.43c.93.13,1.63,1.09,2.11,2.86a9,9,0,0,1-.47,5.7,46.77,46.77,0,0,1-3.11,6.35,42.77,42.77,0,0,1-5.14,6.93,30.51,30.51,0,0,1-7,5.9,14.45,14.45,0,0,1-7.55,2.29Q299.92,367.72,297.37,360.76Zm-1.83-29.62a16.85,16.85,0,0,0-2.89,3.31,26.64,26.64,0,0,0-2.44,4.36,28.88,28.88,0,0,0-1.67,4.78,18.3,18.3,0,0,0-.61,4.47,6.73,6.73,0,0,0,.22,1.54,11,11,0,0,0,.61,1.81,6.11,6.11,0,0,0,.95,1.53,1.52,1.52,0,0,0,1.16.65,1.8,1.8,0,0,0,.95-.51l.77-.65a14.92,14.92,0,0,0,3.08-4.16,40.09,40.09,0,0,0,2.56-5.84,49.57,49.57,0,0,0,1.72-6.21,27.37,27.37,0,0,0,.64-5.29q0-.48,0-1a1.83,1.83,0,0,0-.3-.92l-.23-.14a4.63,4.63,0,0,0-2.38.79A17.13,17.13,0,0,0,295.54,331.14Z"/><path d="M336.29,322.19a13.93,13.93,0,0,1-.7,3c-.46,1.55-1,3.35-1.63,5.42s-1.29,4.27-2,6.59-1.25,4.49-1.7,6.52a31.09,31.09,0,0,0-.75,5.22q-.07,2.19.75,2.73a2,2,0,0,0,1.17.34,3.45,3.45,0,0,0,2.66-1.81,23.56,23.56,0,0,0,2.45-4.67q1.15-2.87,2.22-6.45t1.94-7.17q.88-3.59,1.55-6.76c.45-2.11.82-3.88,1.11-5.29.08-.36.15-.74.23-1.12a10.34,10.34,0,0,1,.27-1.13,11.27,11.27,0,0,1,.48-1.54,4.29,4.29,0,0,1,.8-1.33,6.11,6.11,0,0,1,1.58-1.29,15.53,15.53,0,0,1,2.2-1.09,20.49,20.49,0,0,1,2.27-.79,7.52,7.52,0,0,1,1.89-.31,3.18,3.18,0,0,1,2.33.93,3.58,3.58,0,0,1,.95,2.69,14.75,14.75,0,0,1-.36,2.9c-.25,1.16-.54,2.37-.89,3.62s-.72,2.46-1.09,3.62-.66,2.15-.88,3c-1.08,3.54-2.1,7.12-3.09,10.71s-1.91,7.21-2.8,10.85a11.71,11.71,0,0,0-.39,2.84c0,.57.21.85.5.85s.8-.34,1.39-1,1.26-1.55,2-2.6,1.53-2.19,2.36-3.44,1.64-2.48,2.41-3.69,1.5-2.3,2.17-3.28a24.05,24.05,0,0,1,1.61-2.15,1.15,1.15,0,0,1,.67-.34c.48,0,.92.34,1.33,1a4,4,0,0,1,.61,2,9.49,9.49,0,0,1-.95,3.49,48.44,48.44,0,0,1-2.41,4.74q-1.47,2.57-3.28,5.25t-3.58,5.09q-1.77,2.38-3.33,4.2a21.25,21.25,0,0,1-2.5,2.56,8,8,0,0,1-5.33,2q-4.55-1.64-3.88-9.07-4.17,6.21-9.52,6.65t-7.69-6.38q-2.34-6.83.27-17.64c1.74-7.22,2.78-11.41,3.11-12.6s.5-1.8.5-1.84a22.79,22.79,0,0,1,.83-2.87,7.87,7.87,0,0,1,1.45-2.45,14,14,0,0,1,3-2.53,6.68,6.68,0,0,1,3.53-1,3.94,3.94,0,0,1,2.94,1.2A4.83,4.83,0,0,1,336.29,322.19Z"/><path d="M398.14,339.8a49.07,49.07,0,0,0-5.22,13.11q-1.17,5.67-1.44,6.55a4.1,4.1,0,0,1-1,1.54,6.88,6.88,0,0,1-1.55,1.19,8.87,8.87,0,0,1-1.75.75,5.48,5.48,0,0,1-1.55.28,4,4,0,0,1-2.95-1.16,4.86,4.86,0,0,1-1.16-3.55,29.68,29.68,0,0,1,.5-4.71q.49-3,3.22-15.5T389.12,323a8.47,8.47,0,0,1,3.77-4.3,3.53,3.53,0,0,1,4.61.41c1.31,1.28,1.58,3.73.8,7.37a37.56,37.56,0,0,1,6.47-8.25,26.28,26.28,0,0,1,8.47-5.94,4.59,4.59,0,0,1,4.58,1.29q1.86,1.92,1.86,5.74a19,19,0,0,1-.56,3.65q-.56,2.49-1.41,5.66t-5,18q-4.15,14.77,3.11,4.06t8.36-11.88c.72-.77,1.27-1.16,1.64-1.16a2.35,2.35,0,0,1,2.19.89,3.41,3.41,0,0,1,.39,2.15,9.69,9.69,0,0,1-.69,2.59c-.38.89-.73,1.65-1.06,2.29q-8.72,12.76-10.52,15a42.14,42.14,0,0,1-3.67,4,20.23,20.23,0,0,1-3.72,2.87,7,7,0,0,1-3.58,1.09,2.53,2.53,0,0,1-.72-.07,3.94,3.94,0,0,1-3-2.18,11.34,11.34,0,0,1-1.14-4.64q-.17-2.81,2.47-15.94t2.86-14.74c.15-1.07.07-1.61-.22-1.61s-.45.21-.78.62Q402.2,332.36,398.14,339.8Z"/><path d="M462.17,381.58l-.79-8.53H461a19.56,19.56,0,0,1-16.83,10.06c-11.14,0-16.83-9.64-16.83-19.43,0-16.35,11.83-25.3,33.09-25.16v-1.4c0-5.59-1.25-15.65-12.51-15.65a23.84,23.84,0,0,0-14.33,5l-2.27-8.11a29.55,29.55,0,0,1,18.08-6c16.83,0,20.92,14.12,20.92,27.68v25.3a117.24,117.24,0,0,0,.91,16.22Zm-1.47-34.53c-10.92-.28-23.31,2.1-23.31,15.24,0,8,4.32,11.74,9.43,11.74,7.17,0,11.72-5.59,13.31-11.32a15.61,15.61,0,0,0,.57-3.92Zm-21.49-53.26c0-7.41,4.43-13.28,11.59-13.28,6.83,0,11.26,5.73,11.26,13.14s-4.89,12.86-11.37,12.86C443.87,306.51,439.21,300.92,439.21,293.79Zm17.28-.28c0-4.19-2.28-7.69-5.91-7.69s-5.58,3.64-5.58,8c0,3.63,2.28,7.55,5.58,7.55C454.21,301.34,456.49,297.71,456.49,293.51Z"/><path d="M477.71,344.51a69.22,69.22,0,0,1,1-9.25,27.41,27.41,0,0,1,6-12.76q5-6.37,11.05-7.27t9.69,1.91q3.66,2.81,3.33,8.88a17.55,17.55,0,0,1-3.27,9.93,16,16,0,0,1-6.86,5.39,42,42,0,0,1-8.41,2.29,10.24,10.24,0,0,0-.86,2.59,12.15,12.15,0,0,0,.14,5.56q.72,3.32,4.55,2.63a19.19,19.19,0,0,0,7.8-3.55,22.34,22.34,0,0,0,6.69-8.19c.48-.73.92-1.41,1.3-2.05a16.75,16.75,0,0,1,1.23-1.74,5,5,0,0,1,1.5-1.26,3.15,3.15,0,0,1,2.11-.27,2.18,2.18,0,0,1,1.66.92,2.73,2.73,0,0,1,.36,1.6,5.86,5.86,0,0,1-.44,1.84c-.26.64-.54,1.35-.84,2.12A47.92,47.92,0,0,1,512,350.9a31.94,31.94,0,0,1-5,6.51,25.16,25.16,0,0,1-6.69,4.82,18.81,18.81,0,0,1-8.49,1.87,12.48,12.48,0,0,1-6.22-1.5,12.61,12.61,0,0,1-4.41-4.16,19.51,19.51,0,0,1-2.61-6.25A32.5,32.5,0,0,1,477.71,344.51Zm23-20.4a28.69,28.69,0,0,0-2.39,2.15c-.85.84-1.68,1.73-2.47,2.66a30.06,30.06,0,0,0-2.22,2.93c-.69,1-1.31,2-1.86,2.9a2.66,2.66,0,0,0,1.77.55,5.25,5.25,0,0,0,2.48-.75,8.06,8.06,0,0,0,2.44-2.15,11.36,11.36,0,0,0,1.75-3.52A13.2,13.2,0,0,0,500.75,324.11Z"/><path d="M529.67,360.76a51.93,51.93,0,0,1-7,4.71,11.22,11.22,0,0,1-5.11,1.23,6.35,6.35,0,0,1-4.6-1.71,11.68,11.68,0,0,1-2.78-4.3,23.1,23.1,0,0,1-1.36-5.7,50.72,50.72,0,0,1-.36-5.83,40.15,40.15,0,0,1,1.72-11.57,38.3,38.3,0,0,1,4.8-10.38,27,27,0,0,1,7.33-7.47,16.28,16.28,0,0,1,9.3-2.87,15.94,15.94,0,0,1,4.67.75,44.73,44.73,0,0,0,1.27-4.95c.41-2,.82-4.1,1.22-6.38s.82-4.61,1.23-7,.82-4.65,1.24-6.79.88-4.06,1.36-5.76a18,18,0,0,1,1.5-3.93,3.33,3.33,0,0,1,1.64-1.53,5.59,5.59,0,0,1,2-.38,5.38,5.38,0,0,1,2.77.78,8.83,8.83,0,0,1,2.36,2.05,10.29,10.29,0,0,1,1.64,2.9,9.67,9.67,0,0,1,.61,3.42,7,7,0,0,1-.14,1.46,14.27,14.27,0,0,1-.36,1.47q-1.05,3.61-1.94,7.17c-.59,2.36-1.19,4.75-1.78,7.16q-1.27,5.13-2.58,10.82t-2.58,11.54q-1.28,5.83-5.16,22.35-1.5,5.46,2.33,3.24a23,23,0,0,0,7.27-7.33,54.47,54.47,0,0,0,5-8.81c.63-.95,1.29-1.43,2-1.43.92.13,1.62,1.09,2.11,2.86a8.91,8.91,0,0,1-.48,5.7,46.65,46.65,0,0,1-3.1,6.35,42.77,42.77,0,0,1-5.14,6.93,30.56,30.56,0,0,1-7,5.9,14.4,14.4,0,0,1-7.55,2.29Q532.24,367.72,529.67,360.76Zm-1.83-29.62a17.18,17.18,0,0,0-2.89,3.31,27.4,27.4,0,0,0-2.44,4.36,28.84,28.84,0,0,0-1.66,4.78,18.3,18.3,0,0,0-.61,4.47,6.73,6.73,0,0,0,.22,1.54,10.15,10.15,0,0,0,.61,1.81,6.08,6.08,0,0,0,.94,1.53,1.54,1.54,0,0,0,1.17.65,1.78,1.78,0,0,0,.94-.51l.78-.65a15.12,15.12,0,0,0,3.08-4.16,40.06,40.06,0,0,0,2.55-5.84,48,48,0,0,0,1.73-6.21,27.26,27.26,0,0,0,.63-5.29c0-.32,0-.65,0-1a1.75,1.75,0,0,0-.31-.92l-.22-.14a4.66,4.66,0,0,0-2.39.79A18.82,18.82,0,0,0,527.84,331.14Z"/><path d="M552.1,344.51a69.68,69.68,0,0,1,1-9.25,27.41,27.41,0,0,1,6-12.76q5-6.37,11-7.27t9.69,1.91q3.66,2.81,3.33,8.88a17.48,17.48,0,0,1-3.28,9.93,15.91,15.91,0,0,1-6.85,5.39,42.19,42.19,0,0,1-8.41,2.29,9.82,9.82,0,0,0-.86,2.59,12.13,12.13,0,0,0,.13,5.56q.72,3.32,4.56,2.63a19.19,19.19,0,0,0,7.8-3.55,22.54,22.54,0,0,0,6.69-8.19c.48-.73.91-1.41,1.3-2.05a18.37,18.37,0,0,1,1.22-1.74,5.31,5.31,0,0,1,1.5-1.26,3.17,3.17,0,0,1,2.11-.27,2.18,2.18,0,0,1,1.67.92,2.73,2.73,0,0,1,.36,1.6,6.15,6.15,0,0,1-.44,1.84c-.26.64-.54,1.35-.84,2.12a49,49,0,0,1-3.41,7.07,32.3,32.3,0,0,1-5,6.51,25.16,25.16,0,0,1-6.69,4.82,18.84,18.84,0,0,1-8.49,1.87,12.45,12.45,0,0,1-6.22-1.5,12.73,12.73,0,0,1-4.42-4.16,20,20,0,0,1-2.61-6.25A33,33,0,0,1,552.1,344.51Zm23-20.4a27.18,27.18,0,0,0-2.39,2.15c-.85.84-1.68,1.73-2.47,2.66a30.06,30.06,0,0,0-2.22,2.93c-.69,1-1.31,2-1.86,2.9a2.66,2.66,0,0,0,1.77.55,5.19,5.19,0,0,0,2.47-.75,8.09,8.09,0,0,0,2.45-2.15,11.36,11.36,0,0,0,1.75-3.52A13.2,13.2,0,0,0,575.15,324.11Z"/><path d="M632.28,360.76a52.52,52.52,0,0,1-7.06,4.71,11.18,11.18,0,0,1-5.1,1.23,6.36,6.36,0,0,1-4.61-1.71,11.68,11.68,0,0,1-2.78-4.3,23.55,23.55,0,0,1-1.36-5.7,50.72,50.72,0,0,1-.36-5.83,40.5,40.5,0,0,1,1.72-11.57,38,38,0,0,1,4.81-10.38,26.88,26.88,0,0,1,7.32-7.47,16.33,16.33,0,0,1,9.3-2.87,15.94,15.94,0,0,1,4.67.75,42.6,42.6,0,0,0,1.27-4.95c.41-2,.82-4.1,1.23-6.38s.81-4.61,1.22-7,.82-4.65,1.25-6.79.88-4.06,1.36-5.76a18,18,0,0,1,1.5-3.93,3.31,3.31,0,0,1,1.63-1.53,5.62,5.62,0,0,1,2-.38,5.44,5.44,0,0,1,2.78.78,9.15,9.15,0,0,1,2.36,2.05,10.26,10.26,0,0,1,1.63,2.9,9.67,9.67,0,0,1,.61,3.42,7.77,7.77,0,0,1-.13,1.46c-.1.48-.22,1-.37,1.47q-1.05,3.61-1.94,7.17t-1.78,7.16q-1.28,5.13-2.58,10.82t-2.58,11.54Q647,335.51,643.16,352q-1.5,5.46,2.33,3.24a23,23,0,0,0,7.27-7.33,54.47,54.47,0,0,0,5-8.81,2.58,2.58,0,0,1,2-1.43c.92.13,1.63,1.09,2.11,2.86a9,9,0,0,1-.47,5.7,48,48,0,0,1-3.11,6.35,42.77,42.77,0,0,1-5.14,6.93,30.72,30.72,0,0,1-7,5.9,14.45,14.45,0,0,1-7.55,2.29Q634.83,367.72,632.28,360.76Zm-1.84-29.62a16.82,16.82,0,0,0-2.88,3.31,27.44,27.44,0,0,0-2.45,4.36,28.84,28.84,0,0,0-1.66,4.78,18.3,18.3,0,0,0-.61,4.47,6.73,6.73,0,0,0,.22,1.54,11,11,0,0,0,.61,1.81,6.08,6.08,0,0,0,.94,1.53,1.54,1.54,0,0,0,1.17.65,1.74,1.74,0,0,0,.94-.51l.78-.65a15.12,15.12,0,0,0,3.08-4.16,41.21,41.21,0,0,0,2.56-5.84,49.57,49.57,0,0,0,1.72-6.21,27.37,27.37,0,0,0,.64-5.29q0-.48,0-1a1.75,1.75,0,0,0-.31-.92l-.22-.14a4.66,4.66,0,0,0-2.39.79A18.82,18.82,0,0,0,630.44,331.14Z"/><path d="M654.71,344.51a69.22,69.22,0,0,1,1-9.25,27.5,27.5,0,0,1,6-12.76q5-6.37,11.05-7.27t9.69,1.91q3.66,2.81,3.33,8.88a17.55,17.55,0,0,1-3.27,9.93,16,16,0,0,1-6.86,5.39,42,42,0,0,1-8.41,2.29,10.24,10.24,0,0,0-.86,2.59,12.15,12.15,0,0,0,.14,5.56q.72,3.32,4.55,2.63a19.19,19.19,0,0,0,7.8-3.55,22.34,22.34,0,0,0,6.69-8.19c.48-.73.92-1.41,1.31-2.05a15.32,15.32,0,0,1,1.22-1.74,5,5,0,0,1,1.5-1.26,3.15,3.15,0,0,1,2.11-.27,2.18,2.18,0,0,1,1.66.92,2.73,2.73,0,0,1,.36,1.6,5.86,5.86,0,0,1-.44,1.84c-.26.64-.54,1.35-.83,2.12A49,49,0,0,1,689,350.9a31.94,31.94,0,0,1-5,6.51,25.16,25.16,0,0,1-6.69,4.82,18.81,18.81,0,0,1-8.49,1.87,12.48,12.48,0,0,1-6.22-1.5,12.61,12.61,0,0,1-4.41-4.16,19.51,19.51,0,0,1-2.61-6.25A32.5,32.5,0,0,1,654.71,344.51Zm23-20.4a28.69,28.69,0,0,0-2.39,2.15c-.85.84-1.68,1.73-2.47,2.66a30.06,30.06,0,0,0-2.22,2.93c-.69,1-1.31,2-1.86,2.9a2.67,2.67,0,0,0,1.78.55,5.22,5.22,0,0,0,2.47-.75,8.06,8.06,0,0,0,2.44-2.15,11.36,11.36,0,0,0,1.75-3.52A13.2,13.2,0,0,0,677.75,324.11Z"/><path d="M694.07,366.56q-3.06,0-5.5-3.52T686,353.11q-.16-6.41,2.23-18.6A149.26,149.26,0,0,1,694,312.78c-.74.09-1.4.19-2,.3a8.17,8.17,0,0,1-1.61.17c-1.67-.54-2.45-1.49-2.34-2.83a10.12,10.12,0,0,1,.56-2.9,5.92,5.92,0,0,1,1-1.57,7.24,7.24,0,0,1,1.33-1.16q.72-.48,6.72-1.16,2.84-7.51,4.5-9.52a8.46,8.46,0,0,1,4.41-2.77,4.12,4.12,0,0,1,4.53,1.3q1.77,2-1.34,9.76,3.88-.27,6.08-.48c1.46-.13,3.23-.32,5.3-.54,1.45.63,1.83,2.23,1.14,4.77s-1.3,4.06-1.86,4.51a6,6,0,0,1-3.08.89c-1.5.13-3,.25-4.38.34s-2.74.16-4,.2a5.09,5.09,0,0,0-2.5.55c-.46.32-1.13,1.61-2,3.89s-1.43,3.68-1.61,4.23q-.55,2.06-1.45,4.95t-1.86,6.18q-1,3.27-1.88,6.69c-.61,2.27-1.13,4.46-1.56,6.55a47.39,47.39,0,0,0-.83,5.73,12.75,12.75,0,0,0,.25,4.23c.22.55.5.82.83.82s1-.34,1.58-1a22.87,22.87,0,0,0,1.95-2.56c.68-1,1.39-2.13,2.11-3.31s2-3.14,3.72-5.87,2.89-4.41,3.41-5,.93-.93,1.22-.89a2.8,2.8,0,0,1,1.81.72,2.49,2.49,0,0,1,.86,2,9.34,9.34,0,0,1-.5,2.73c-.33,1.05-.65,1.94-.95,2.66a69.41,69.41,0,0,1-4.05,7.58,83,83,0,0,1-5,7.85,22.71,22.71,0,0,1-4,4.13A7.19,7.19,0,0,1,694.07,366.56Z"/><path d="M745.65,303.08q1.27-5,2.75-9.21a27.66,27.66,0,0,1,3.75-7.34,15.85,15.85,0,0,1,5.69-4.85,18.91,18.91,0,0,1,8.63-1.74,8.77,8.77,0,0,1,1.69.18,5.24,5.24,0,0,1,1.7.61,4,4,0,0,1,1.3,1.23,3.53,3.53,0,0,1-.44,4.3,22,22,0,0,1-2.47,2.39c-1,.84-2.1,1.8-3.31,2.86a27.55,27.55,0,0,0-3.47,3.76,26.15,26.15,0,0,0-3,5.05,23.8,23.8,0,0,0-1.92,6.79H757a6.43,6.43,0,0,0,1.47-.17,6.55,6.55,0,0,1,1.52-.17A7.87,7.87,0,0,1,762,307a4.89,4.89,0,0,1,1.8.92,4.61,4.61,0,0,1,1.28,1.68,5.88,5.88,0,0,1,.47,2.45,1.93,1.93,0,0,1-.33,1,2.27,2.27,0,0,1-1.22,2.28,6.81,6.81,0,0,1-2.95.59,22.82,22.82,0,0,1-3.63-.31,18.65,18.65,0,0,0-3-.31h-.17a28.26,28.26,0,0,0-1.94,6.35q-.84,4-1.59,9.08t-1.52,10.81q-.78,5.77-1.72,11.57t-2.2,11.33a77.07,77.07,0,0,1-2.94,10.07,36.86,36.86,0,0,1-3.94,7.85,12.39,12.39,0,0,1-5.25,4.61,11.57,11.57,0,0,1-2.33.85,8.89,8.89,0,0,1-2.22.31,3.71,3.71,0,0,1-1.47-.27,1.62,1.62,0,0,1-.89-1,3.66,3.66,0,0,1-.06-1.81,11.17,11.17,0,0,1,1-2.76,6.34,6.34,0,0,0,.86-2.36c.39-1.48.85-3.43,1.38-5.87s1.13-5.25,1.78-8.46,1.33-6.6,2.06-10.17,1.46-7.24,2.22-11,1.5-7.41,2.25-11,1.44-6.88,2.11-10,1.27-5.84,1.83-8.16a26.39,26.39,0,0,1-3.28.2,3.05,3.05,0,0,1-1.58-.37c-.43-.25-.64-.81-.64-1.67a4.54,4.54,0,0,1,.2-1.27q.18-.7.36-1.26a7.53,7.53,0,0,1,.94-1.91,3.44,3.44,0,0,1,1.08-1,3,3,0,0,1,1.28-.41,14.92,14.92,0,0,1,1.58-.07H743a5.84,5.84,0,0,0,1.25-.14,5.19,5.19,0,0,0,.83-2C745.26,304.51,745.46,303.72,745.65,303.08Z"/><path d="M800.35,317.27l4.77-8.38,4.44,3.77-4.78,8.67c5.35,6.29,8.3,15.38,8.3,25.86,0,24.88-14,35.92-26.83,35.92a22.25,22.25,0,0,1-14.1-4.75l-4.89,8.53-4.21-4.2,4.78-8.38c-5.35-6.15-8.53-15.1-8.53-26.14,0-22.51,12.05-35.79,27.06-35.79A22.63,22.63,0,0,1,800.35,317.27Zm-4.55,8.39a13.22,13.22,0,0,0-9.67-4.05c-12.28,0-17.17,14-17.17,26.28a34.19,34.19,0,0,0,4.1,16.91l.22.14ZM776.7,370a12.08,12.08,0,0,0,9.21,3.92c10.46,0,17.39-11.05,17.39-26.28,0-4.61-.91-11.18-3.86-16.5h-.23Z"/><path d="M835.28,326.7l-3,.68c-1,.23-1.95.5-2.92.82a36.81,36.81,0,0,0-1.94,6.55,68.4,68.4,0,0,1-3.39,10.41,101.17,101.17,0,0,1-4.66,10.24,36,36,0,0,1-3.94,6.14,5,5,0,0,1-3.78,2,4.2,4.2,0,0,1-1-.17,5.26,5.26,0,0,1-1.2-.52,3.71,3.71,0,0,1-1-.85,1.79,1.79,0,0,1-.41-1.13,10.94,10.94,0,0,1,.75-1.84q.75-1.64,1.89-4.2t5.27-12.21q4.14-9.66,4.14-12.32a24.44,24.44,0,0,0-.17-2.8,25.11,25.11,0,0,1-.17-2.87,4.63,4.63,0,0,1,.28-1.4,17.1,17.1,0,0,1,.67-1.7,15,15,0,0,1,.86-1.64,4.67,4.67,0,0,1,.86-1.13l.11-.07a4.53,4.53,0,0,1,2-.88l3-.62c1.11-.23,2.3-.53,3.55-.92a16.65,16.65,0,0,0,3.81-1.77,17.53,17.53,0,0,0,3.69-3.18,19.16,19.16,0,0,0,3.16-5.12,3.88,3.88,0,0,1,2.06-2.25,9.41,9.41,0,0,1,3.27-.48,4.25,4.25,0,0,1,2.67.82c.7.55,1.48,1.14,2.33,1.78a6.7,6.7,0,0,1,1.08.88,2.41,2.41,0,0,1,.31,1.5,9,9,0,0,1-.39,2c-.26,1-.58,2.05-1,3.28s-.82,2.51-1.31,3.86-.93,2.62-1.36,3.85-.81,2.31-1.16,3.24-.6,1.58-.75,1.95q-1.11,3-2.33,6.18c-.82,2.11-1.6,4.18-2.36,6.21s-1.45,3.92-2.06,5.7-1.25,3.87-1.91,6.28-.78,4-.34,4.81,4.8-4.86,13.05-17a3.13,3.13,0,0,1,1.2-1.1,3.37,3.37,0,0,1,1.47-.34,3.15,3.15,0,0,1,2.22,1,3.72,3.72,0,0,1,1,2.8,7.38,7.38,0,0,1-1,3,63.73,63.73,0,0,1-4.06,6.32q-3,4.37-7.16,10.51t-7.1,8.09a8.7,8.7,0,0,1-5.58,1.67c-1.73-.18-3-1.61-3.89-4.3s-1.15-6.45-.83-11.3a77,77,0,0,1,3.19-16.51Q833.78,329.5,835.28,326.7Z"/><path d="M898.29,360.76a51.93,51.93,0,0,1-7,4.71,11.21,11.21,0,0,1-5.1,1.23,6.36,6.36,0,0,1-4.61-1.71,11.68,11.68,0,0,1-2.78-4.3,23.55,23.55,0,0,1-1.36-5.7,50.72,50.72,0,0,1-.36-5.83,40.15,40.15,0,0,1,1.72-11.57,38.3,38.3,0,0,1,4.8-10.38,27,27,0,0,1,7.33-7.47,16.28,16.28,0,0,1,9.3-2.87,15.94,15.94,0,0,1,4.67.75,42.6,42.6,0,0,0,1.27-4.95c.41-2,.82-4.1,1.22-6.38s.82-4.61,1.23-7,.82-4.65,1.25-6.79.87-4.06,1.36-5.76a18.63,18.63,0,0,1,1.49-3.93,3.33,3.33,0,0,1,1.64-1.53,5.62,5.62,0,0,1,2-.38,5.44,5.44,0,0,1,2.78.78,9,9,0,0,1,2.35,2.05,10.05,10.05,0,0,1,1.64,2.9,9.67,9.67,0,0,1,.61,3.42,7,7,0,0,1-.14,1.46,14.27,14.27,0,0,1-.36,1.47q-1.05,3.61-1.94,7.17t-1.78,7.16q-1.28,5.13-2.58,10.82t-2.58,11.54q-1.27,5.83-5.16,22.35-1.5,5.46,2.33,3.24a23,23,0,0,0,7.27-7.33,54.47,54.47,0,0,0,5-8.81c.63-.95,1.29-1.43,2-1.43.92.13,1.63,1.09,2.11,2.86a9,9,0,0,1-.47,5.7,48,48,0,0,1-3.11,6.35,42.77,42.77,0,0,1-5.14,6.93,30.72,30.72,0,0,1-7,5.9,14.45,14.45,0,0,1-7.56,2.29Q900.86,367.72,898.29,360.76Zm-1.83-29.62a16.82,16.82,0,0,0-2.88,3.31,27.44,27.44,0,0,0-2.45,4.36,28.84,28.84,0,0,0-1.66,4.78,18.3,18.3,0,0,0-.61,4.47,6.73,6.73,0,0,0,.22,1.54,11,11,0,0,0,.61,1.81,6.08,6.08,0,0,0,.94,1.53,1.54,1.54,0,0,0,1.17.65,1.74,1.74,0,0,0,.94-.51l.78-.65a15.12,15.12,0,0,0,3.08-4.16,41.21,41.21,0,0,0,2.56-5.84,49.57,49.57,0,0,0,1.72-6.21,27.37,27.37,0,0,0,.64-5.29q0-.48,0-1a1.75,1.75,0,0,0-.31-.92l-.22-.14a4.66,4.66,0,0,0-2.39.79A18.82,18.82,0,0,0,896.46,331.14Z"/><path d="M920.73,344.51a69.22,69.22,0,0,1,1-9.25,27.41,27.41,0,0,1,6-12.76q5-6.37,11-7.27t9.69,1.91q3.66,2.81,3.33,8.88a17.55,17.55,0,0,1-3.27,9.93,16,16,0,0,1-6.86,5.39,42,42,0,0,1-8.41,2.29,10.24,10.24,0,0,0-.86,2.59,12,12,0,0,0,.14,5.56c.48,2.21,2,3.09,4.55,2.63a19.19,19.19,0,0,0,7.8-3.55,22.34,22.34,0,0,0,6.69-8.19c.48-.73.92-1.41,1.3-2.05a16.75,16.75,0,0,1,1.23-1.74,5.13,5.13,0,0,1,1.49-1.26,3.17,3.17,0,0,1,2.11-.27,2.18,2.18,0,0,1,1.67.92,2.73,2.73,0,0,1,.36,1.6,5.86,5.86,0,0,1-.44,1.84c-.26.64-.54,1.35-.84,2.12A47.92,47.92,0,0,1,955,350.9a31.94,31.94,0,0,1-5,6.51,25.16,25.16,0,0,1-6.69,4.82,18.84,18.84,0,0,1-8.49,1.87,12.48,12.48,0,0,1-6.22-1.5,12.61,12.61,0,0,1-4.41-4.16,19.51,19.51,0,0,1-2.61-6.25A32.5,32.5,0,0,1,920.73,344.51Zm23-20.4a28.69,28.69,0,0,0-2.39,2.15c-.85.84-1.68,1.73-2.47,2.66a30.06,30.06,0,0,0-2.22,2.93c-.69,1-1.31,2-1.86,2.9a2.66,2.66,0,0,0,1.77.55,5.19,5.19,0,0,0,2.47-.75,8,8,0,0,0,2.45-2.15,11.36,11.36,0,0,0,1.75-3.52A13.2,13.2,0,0,0,943.77,324.11Z"/><path d="M966,339.8a49.07,49.07,0,0,0-5.22,13.11q-1.17,5.67-1.44,6.55a4.2,4.2,0,0,1-1,1.54,7.17,7.17,0,0,1-1.56,1.19,8.87,8.87,0,0,1-1.75.75,5.48,5.48,0,0,1-1.55.28,4,4,0,0,1-2.94-1.16,4.82,4.82,0,0,1-1.17-3.55,30.92,30.92,0,0,1,.5-4.71q.5-3,3.22-15.5T957,323a8.51,8.51,0,0,1,3.77-4.3,3.53,3.53,0,0,1,4.61.41c1.32,1.28,1.58,3.73.81,7.37a37.49,37.49,0,0,1,6.46-8.25,26.39,26.39,0,0,1,8.47-5.94,4.59,4.59,0,0,1,4.58,1.29q1.86,1.92,1.86,5.74A18.81,18.81,0,0,1,987,323c-.37,1.66-.85,3.55-1.42,5.66s-2.25,8.1-5,18-1.74,11.2,3.11,4.06,7.63-11.11,8.35-11.88,1.27-1.16,1.64-1.16a2.35,2.35,0,0,1,2.19.89,3.41,3.41,0,0,1,.39,2.15,9.33,9.33,0,0,1-.69,2.59c-.37.89-.72,1.65-1.06,2.29q-8.71,12.76-10.52,15a42.08,42.08,0,0,1-3.66,4,20.23,20.23,0,0,1-3.72,2.87,7.08,7.08,0,0,1-3.58,1.09,2.56,2.56,0,0,1-.73-.07,4,4,0,0,1-3-2.18,11.34,11.34,0,0,1-1.14-4.64q-.17-2.81,2.47-15.94t2.86-14.74c.15-1.07.07-1.61-.22-1.61s-.45.21-.78.62Q970.09,332.36,966,339.8Z"/><path d="M304.09,481.75q1.38-3.08,4.16-3.07a4.94,4.94,0,0,1,2.28.64A9.88,9.88,0,0,1,312.8,481a9.55,9.55,0,0,1,1.75,2.39,6,6,0,0,1,.7,2.76,17.7,17.7,0,0,1-.59,3.25q-.59,2.42-1.5,5.69t-2,7c-.74,2.48-1.46,4.86-2.14,7.13s-1.3,4.33-1.83,6.15-.92,3.14-1.14,4a1.33,1.33,0,0,0,.44.06,4.29,4.29,0,0,0,2.72-1.46,32,32,0,0,0,3.11-3.42q1.56-1.93,2.92-3.89c.9-1.29,1.64-2.28,2.19-3a9,9,0,0,1,2.47-2.15,5.07,5.07,0,0,1,2.47-.78,2.31,2.31,0,0,1,1.28.37,2,2,0,0,1,.78,1.13,5,5,0,0,1,0,2,13.4,13.4,0,0,1-.83,2.94,32.54,32.54,0,0,1-4.11,7.4,51.35,51.35,0,0,1-5.63,6.42,75.53,75.53,0,0,1-6.42,5.52q-3.33,2.57-6.44,4.68-1.54,4.5-3.22,9.39t-3.69,9.55a76.07,76.07,0,0,1-4.53,8.87,34.56,34.56,0,0,1-5.66,7.27,28,28,0,0,1-4.44,3.48,9.36,9.36,0,0,1-5.11,1.44,7,7,0,0,1-3.69-1,8.25,8.25,0,0,1-2.64-2.59,11.92,11.92,0,0,1-1.55-3.82,20.67,20.67,0,0,1-.5-4.58,24.78,24.78,0,0,1,.86-6.41,50.38,50.38,0,0,1,2-6.08,30.16,30.16,0,0,1,3.69-6.79,40.8,40.8,0,0,1,4.63-5.29,52.37,52.37,0,0,1,5.31-4.43q2.79-2.06,5.69-4.24a10,10,0,0,1-5.28-1.7,11.18,11.18,0,0,1-3.38-3.89,18.36,18.36,0,0,1-1.84-5.5,37,37,0,0,1-.55-6.52,33.48,33.48,0,0,1,2.11-11.94,32.36,32.36,0,0,1,5.66-9.76,27.3,27.3,0,0,1,8.22-6.59,20.87,20.87,0,0,1,9.71-2.42h.62A2.37,2.37,0,0,1,304.09,481.75Zm-29.32,82.86a22.81,22.81,0,0,0,2.17-2.9q1.21-1.87,2.47-4.2t2.52-4.91q1.27-2.6,2.42-5.06c.76-1.63,1.43-3.16,2-4.57s1.08-2.57,1.45-3.48a14,14,0,0,0-3.67,3.07,39.62,39.62,0,0,0-3.6,4.75,49.56,49.56,0,0,0-3.14,5.52,44.48,44.48,0,0,0-2.25,5.36,18.85,18.85,0,0,0-1,4.23C274.05,563.61,274.25,564.34,274.77,564.61Zm15.1-46.69q1.62,4,4.36.1t6-14.6q3.23-10.68.94-10.75a9.45,9.45,0,0,0-7.19,3.89q-2.91,3.69-4.3,10.51T289.87,517.92Z"/><path d="M336.07,494.44l-3,.68c-1,.23-2,.51-2.92.82a36.13,36.13,0,0,0-1.94,6.56,69.12,69.12,0,0,1-3.39,10.41,101.92,101.92,0,0,1-4.66,10.23,36.42,36.42,0,0,1-3.94,6.15,5,5,0,0,1-3.78,2,4.2,4.2,0,0,1-1.06-.17,4.91,4.91,0,0,1-1.19-.51,3.59,3.59,0,0,1-1-.86,1.71,1.71,0,0,1-.41-1.12,11.28,11.28,0,0,1,.74-1.85q.75-1.63,1.89-4.19t5.28-12.22q4.13-9.66,4.13-12.32a24.53,24.53,0,0,0-.16-2.8,25,25,0,0,1-.17-2.87,4.52,4.52,0,0,1,.28-1.39,15,15,0,0,1,.66-1.71,17,17,0,0,1,.86-1.64,5.16,5.16,0,0,1,.87-1.13l.11-.06a4.48,4.48,0,0,1,2.05-.89l3-.61c1.11-.23,2.29-.54,3.55-.93a15.85,15.85,0,0,0,3.81-1.77,17.48,17.48,0,0,0,3.69-3.18,19.09,19.09,0,0,0,3.16-5.11,3.84,3.84,0,0,1,2.06-2.26,9.68,9.68,0,0,1,3.27-.47,4.28,4.28,0,0,1,2.67.81c.7.55,1.48,1.14,2.33,1.78a6.15,6.15,0,0,1,1.08.89,2.46,2.46,0,0,1,.31,1.5,9.12,9.12,0,0,1-.39,2c-.26,1-.58,2-1,3.27s-.83,2.52-1.31,3.86-.93,2.63-1.36,3.85-.81,2.31-1.16,3.25l-.75,1.94c-.74,2-1.52,4.06-2.34,6.18s-1.6,4.19-2.36,6.21-1.44,3.92-2.05,5.7-1.25,3.87-1.92,6.28-.77,4-.33,4.81,4.79-4.86,13.05-17a3.07,3.07,0,0,1,1.19-1.09,3.3,3.3,0,0,1,1.47-.34,3.14,3.14,0,0,1,2.22.95,3.69,3.69,0,0,1,1,2.8,7.31,7.31,0,0,1-1,3,62.6,62.6,0,0,1-4,6.31q-3,4.36-7.16,10.51T339,536.93a8.58,8.58,0,0,1-5.58,1.67q-2.58-.27-3.88-4.3T328.65,523a77.11,77.11,0,0,1,3.2-16.52Q334.57,497.24,336.07,494.44Z"/><path d="M390.28,549.32l-.8-8.53h-.34a19.56,19.56,0,0,1-16.83,10.07c-11.14,0-16.83-9.65-16.83-19.43,0-16.36,11.83-25.3,33.09-25.16v-1.4c0-5.59-1.25-15.66-12.51-15.66a23.84,23.84,0,0,0-14.33,5l-2.27-8.1a29.5,29.5,0,0,1,18.08-6c16.83,0,20.92,14.12,20.92,27.68v25.3a117,117,0,0,0,.91,16.22Zm-1.48-34.53c-10.92-.28-23.31,2.1-23.31,15.24,0,8,4.32,11.74,9.43,11.74,7.17,0,11.72-5.59,13.31-11.32a15.61,15.61,0,0,0,.57-3.92Zm-21.49-53.26c0-7.41,4.43-13.28,11.59-13.28,6.83,0,11.26,5.74,11.26,13.14s-4.89,12.86-11.37,12.86C372,474.25,367.31,468.66,367.31,461.53Zm17.28-.28c0-4.19-2.27-7.68-5.91-7.68s-5.57,3.63-5.57,8c0,3.64,2.27,7.55,5.57,7.55C382.32,469.08,384.59,465.45,384.59,461.25Z"/><path d="M425.68,528.5a51.93,51.93,0,0,1-7.05,4.71,11.22,11.22,0,0,1-5.11,1.23,6.35,6.35,0,0,1-4.6-1.71,11.59,11.59,0,0,1-2.78-4.3,23.1,23.1,0,0,1-1.36-5.7,50.72,50.72,0,0,1-.36-5.83,40.15,40.15,0,0,1,1.72-11.57,38.44,38.44,0,0,1,4.8-10.38,27,27,0,0,1,7.33-7.47,16.28,16.28,0,0,1,9.3-2.87,15.82,15.82,0,0,1,4.66.75,42.17,42.17,0,0,0,1.28-4.94q.62-3,1.22-6.39t1.22-7q.62-3.59,1.25-6.79t1.36-5.77a18,18,0,0,1,1.5-3.93A3.33,3.33,0,0,1,441.7,449a5.59,5.59,0,0,1,2-.38,5.39,5.39,0,0,1,2.77.79,8.49,8.49,0,0,1,2.36,2.05,10,10,0,0,1,1.64,2.9,9.62,9.62,0,0,1,.61,3.41,8,8,0,0,1-.14,1.47,14.76,14.76,0,0,1-.36,1.46q-1,3.63-1.94,7.17c-.59,2.37-1.19,4.76-1.78,7.17q-1.27,5.12-2.58,10.82t-2.58,11.53q-1.28,5.83-5.16,22.35-1.5,5.47,2.33,3.25a23.18,23.18,0,0,0,7.27-7.34,54.05,54.05,0,0,0,5-8.81c.63-.95,1.29-1.43,2-1.43.92.14,1.62,1.09,2.11,2.87a8.92,8.92,0,0,1-.48,5.7,46.08,46.08,0,0,1-3.11,6.34,42.08,42.08,0,0,1-5.13,6.93,30.61,30.61,0,0,1-7,5.91,14.47,14.47,0,0,1-7.55,2.28Q428.25,535.46,425.68,528.5Zm-1.83-29.62a17.49,17.49,0,0,0-2.89,3.31,27.5,27.5,0,0,0-2.44,4.37,28.73,28.73,0,0,0-1.66,4.77,18.36,18.36,0,0,0-.62,4.48,6.67,6.67,0,0,0,.23,1.53,9.89,9.89,0,0,0,.61,1.81,6.33,6.33,0,0,0,.94,1.54,1.56,1.56,0,0,0,1.17.64,1.78,1.78,0,0,0,.94-.51l.78-.65A15.12,15.12,0,0,0,424,516a39.6,39.6,0,0,0,2.55-5.84,47.11,47.11,0,0,0,1.73-6.21,27.26,27.26,0,0,0,.63-5.29c0-.31,0-.64,0-1a1.78,1.78,0,0,0-.31-.92l-.22-.13a4.64,4.64,0,0,0-2.39.78A18.82,18.82,0,0,0,423.85,498.88Z"/><path d="M457.55,517.34q-.06,1,.39,1a2.64,2.64,0,0,0,1.56-.85,25.85,25.85,0,0,0,2.05-2.15c.74-.87,1.52-1.79,2.33-2.77s1.82-2.13,3-3.48a29.31,29.31,0,0,1,2.83-2.86,3,3,0,0,1,1.8-.86.91.91,0,0,1,.78.38,2.69,2.69,0,0,1,.42.92,5.92,5.92,0,0,1,.16,1.13q0,.57,0,1a7.65,7.65,0,0,1-.78,3.14q-.76,1.69-9.6,12.35t-13.27,7.44q-4.44-3.21-.39-22.83T454.33,487c.93-1.48,2.69-2.23,5.3-2.26s4.27.32,5,1a4.27,4.27,0,0,1,1.06,3.17,14.94,14.94,0,0,1-.53,2.87c-.35,1.41-.8,3-1.33,4.88s-1.14,3.81-1.81,5.9-1.31,4.12-1.94,6.08-1.19,3.72-1.69,5.29A16.18,16.18,0,0,0,457.55,517.34Zm6.86-36.69a5.7,5.7,0,0,1-4.86-.88,9.92,9.92,0,0,1-3.16-3,6.16,6.16,0,0,1-.84-3.11,3.86,3.86,0,0,1,.67-2.11,10.91,10.91,0,0,1,1.58-1.91,10,10,0,0,1,2-1.5,12.68,12.68,0,0,1,1.78-.89,6.46,6.46,0,0,1,1.78-.45c.63-.06,1.24-.1,1.83-.1a5.21,5.21,0,0,1,2.25.51,6,6,0,0,1,1.88,1.4,6.57,6.57,0,0,1,1.28,2.15,7.78,7.78,0,0,1,.47,2.77,4.53,4.53,0,0,1-.75,2.69,21.74,21.74,0,0,1-2.05,2.43A8.07,8.07,0,0,1,464.41,480.65Z"/><path d="M494.75,481.75c.93-2.05,2.31-3.07,4.17-3.07a4.88,4.88,0,0,1,2.27.64,9.93,9.93,0,0,1,2.28,1.71,10.07,10.07,0,0,1,1.75,2.39,5.94,5.94,0,0,1,.69,2.76,17.38,17.38,0,0,1-.58,3.25q-.58,2.42-1.5,5.69t-2,7q-1.11,3.72-2.14,7.13l-1.83,6.15q-.79,2.73-1.14,4a1.4,1.4,0,0,0,.45.06,4.32,4.32,0,0,0,2.72-1.46,34.25,34.25,0,0,0,3.11-3.42c1-1.29,2-2.59,2.91-3.89s1.64-2.28,2.2-3a9,9,0,0,1,2.47-2.15,5,5,0,0,1,2.47-.78,2.28,2.28,0,0,1,1.27.37,2,2,0,0,1,.78,1.13,4.84,4.84,0,0,1,.06,2,13,13,0,0,1-.84,2.94,32.12,32.12,0,0,1-4.1,7.4,52.25,52.25,0,0,1-5.64,6.42,73.88,73.88,0,0,1-6.41,5.52q-3.33,2.57-6.44,4.68-1.56,4.5-3.22,9.39t-3.7,9.55a76,76,0,0,1-4.52,8.87,34.89,34.89,0,0,1-5.66,7.27,28.91,28.91,0,0,1-4.44,3.48,9.36,9.36,0,0,1-5.11,1.44,7,7,0,0,1-3.69-1,8.06,8.06,0,0,1-2.64-2.59,12.16,12.16,0,0,1-1.56-3.82,20.67,20.67,0,0,1-.5-4.58,24.78,24.78,0,0,1,.86-6.41,52.2,52.2,0,0,1,2-6.08,31,31,0,0,1,3.69-6.79,40.86,40.86,0,0,1,4.64-5.29,51.17,51.17,0,0,1,5.3-4.43q2.81-2.06,5.69-4.24a9.94,9.94,0,0,1-5.27-1.7,11.11,11.11,0,0,1-3.39-3.89,18.63,18.63,0,0,1-1.83-5.5,37,37,0,0,1-.56-6.52,33.7,33.7,0,0,1,2.11-11.94,32.59,32.59,0,0,1,5.67-9.76,27.14,27.14,0,0,1,8.21-6.59,20.88,20.88,0,0,1,9.72-2.42h.61A2.32,2.32,0,0,1,494.75,481.75Zm-29.31,82.86a22,22,0,0,0,2.16-2.9q1.23-1.87,2.47-4.2c.83-1.55,1.68-3.19,2.53-4.91s1.65-3.42,2.41-5.06,1.44-3.16,2-4.57,1.07-2.57,1.44-3.48a14.12,14.12,0,0,0-3.66,3.07,39.66,39.66,0,0,0-3.61,4.75,51.19,51.19,0,0,0-3.14,5.52,48,48,0,0,0-2.25,5.36,19.33,19.33,0,0,0-1,4.23C464.71,563.61,464.92,564.34,465.44,564.61Zm15.1-46.69q1.6,4,4.36.1t6-14.6q3.22-10.68.95-10.75a9.43,9.43,0,0,0-7.19,3.89q-2.91,3.69-4.3,10.51T480.54,517.92Z"/><path d="M508.35,512.26a69.52,69.52,0,0,1,1-9.25,27.39,27.39,0,0,1,6-12.77q5-6.37,11-7.26t9.69,1.91q3.66,2.79,3.33,8.87a17.48,17.48,0,0,1-3.28,9.93,15.91,15.91,0,0,1-6.85,5.39,41.53,41.53,0,0,1-8.41,2.29A10,10,0,0,0,520,514a12.17,12.17,0,0,0,.13,5.57c.48,2.2,2,3.08,4.56,2.62a19.06,19.06,0,0,0,7.8-3.55,22.54,22.54,0,0,0,6.69-8.19c.48-.72.91-1.41,1.3-2a16.11,16.11,0,0,1,1.22-1.74,5.18,5.18,0,0,1,1.5-1.27,3.17,3.17,0,0,1,2.11-.27A2.21,2.21,0,0,1,547,506a2.74,2.74,0,0,1,.36,1.61,6.22,6.22,0,0,1-.44,1.84c-.26.64-.54,1.34-.84,2.11a49,49,0,0,1-3.41,7.07,32.37,32.37,0,0,1-5,6.52A25.12,25.12,0,0,1,531,530a18.85,18.85,0,0,1-8.49,1.88,12.35,12.35,0,0,1-6.22-1.51,12.64,12.64,0,0,1-4.42-4.16,19.91,19.91,0,0,1-2.61-6.24A33,33,0,0,1,508.35,512.26Zm23-20.41A30.59,30.59,0,0,0,529,494c-.85.84-1.68,1.73-2.47,2.66a29,29,0,0,0-2.22,2.94c-.69,1-1.31,2-1.86,2.9a2.71,2.71,0,0,0,1.77.54,5.19,5.19,0,0,0,2.47-.75,8,8,0,0,0,2.45-2.15,11.3,11.3,0,0,0,1.75-3.51A13,13,0,0,0,531.39,491.85Z"/><path d="M575.92,534.3c-2,0-3.87-1.17-5.49-3.51s-2.5-5.66-2.61-9.93.63-10.48,2.22-18.6a147.76,147.76,0,0,1,5.83-21.74c-.74.09-1.41.19-2,.31a8.92,8.92,0,0,1-1.61.17c-1.67-.55-2.44-1.49-2.33-2.84a9.84,9.84,0,0,1,.55-2.9,5.92,5.92,0,0,1,1-1.57,7.24,7.24,0,0,1,1.33-1.16c.48-.32,2.72-.7,6.72-1.16q2.84-7.5,4.5-9.52a8.45,8.45,0,0,1,4.41-2.76,4.13,4.13,0,0,1,4.53,1.29q1.77,2.06-1.34,9.76c2.6-.18,4.62-.34,6.08-.47s3.23-.32,5.31-.55q2.16,1,1.13,4.78t-1.86,4.5a5.89,5.89,0,0,1-3.08.89c-1.5.14-3,.25-4.38.34s-2.74.16-3.94.21a4.94,4.94,0,0,0-2.5.54c-.47.32-1.14,1.62-2,3.89s-1.42,3.69-1.61,4.23q-.56,2.06-1.44,4.95t-1.86,6.18q-1,3.27-1.89,6.69c-.61,2.27-1.13,4.46-1.56,6.55a47.67,47.67,0,0,0-.83,5.73,12.84,12.84,0,0,0,.25,4.24c.22.54.5.82.83.82s1-.35,1.59-1a23.19,23.19,0,0,0,1.94-2.56c.68-1,1.39-2.12,2.11-3.31s2-3.14,3.72-5.87,2.9-4.41,3.41-5.05.93-.93,1.23-.89a2.78,2.78,0,0,1,1.8.72,2.49,2.49,0,0,1,.86,2,9.23,9.23,0,0,1-.5,2.73c-.33,1-.65,1.94-.94,2.67a73.14,73.14,0,0,1-4.06,7.57,81.7,81.7,0,0,1-5,7.85,22.39,22.39,0,0,1-4.05,4.13A7.13,7.13,0,0,1,575.92,534.3Z"/><path d="M588.19,515.6a35.69,35.69,0,0,1,.92-7.27,69.85,69.85,0,0,1,2.41-8.53,66.13,66.13,0,0,1,3.39-8,23.19,23.19,0,0,1,3.83-5.69,3.8,3.8,0,0,1,1.2-.86,3,3,0,0,1,1.19-.24,3.37,3.37,0,0,1,2,.69,7.47,7.47,0,0,1,1.69,1.63,8.91,8.91,0,0,1,1.17,2.09,5.47,5.47,0,0,1,.44,2,12.12,12.12,0,0,1-1.11,4.33l-2.47,6q-1.37,3.32-2.47,7a22,22,0,0,0-1,7.1c.08,2.3.36,3.48.86,3.55s1.78-1.83,3.83-5.7a48,48,0,0,0,4.08-9.49q1-3.68,1.92-7.61c.61-2.61,1.19-5,1.75-7.3s1.1-4.21,1.64-5.87a9.16,9.16,0,0,1,1.58-3.31,3.9,3.9,0,0,1,1.47-1,4.46,4.46,0,0,1,1.64-.31,4.9,4.9,0,0,1,2.27.65,9.2,9.2,0,0,1,2.28,1.71,9.62,9.62,0,0,1,1.75,2.39,5.76,5.76,0,0,1,.69,2.69,11.5,11.5,0,0,1-.27,2.42c-.19.85-.39,1.63-.61,2.36s-.39,1.43-.62,2.12-.44,1.38-.66,2.11q-1.73,5.53-3.28,11.13t-3.22,11.12c.52-.54,1.14-1.26,1.86-2.15l2.2-2.69a40.93,40.93,0,0,1,3.72-3.79c1.73-1.62,2.85-2.61,3.33-3a4.79,4.79,0,0,1,1.11-.68,3,3,0,0,1,3.38.61,3.53,3.53,0,0,1,.84,2.53,6.43,6.43,0,0,1-.67,2.38A30.15,30.15,0,0,1,630.5,514q-1.05,1.77-2.36,3.65a39,39,0,0,1-4.16,4.78c-1.91,1.94-3.23,3.33-4,4.2a25.42,25.42,0,0,1-1.78,1.91q-.72.69-1.92,1.77c-.79.73-1.59,1.49-2.38,2.29s-1.53,1.59-2.2,2.39a8.37,8.37,0,0,0-1.38,2.15q-1.17,3.14-2.64,7.17c-1,2.68-2.06,5.43-3.22,8.26s-2.45,5.58-3.86,8.29a47.12,47.12,0,0,1-4.61,7.27,23,23,0,0,1-5.44,5.15,11.24,11.24,0,0,1-6.33,2,7,7,0,0,1-3.72-1,8.17,8.17,0,0,1-2.61-2.59,11.94,11.94,0,0,1-1.55-3.79,19.62,19.62,0,0,1-.5-4.54,25.48,25.48,0,0,1,.91-6.66,44.94,44.94,0,0,1,2.2-6.31,34.35,34.35,0,0,1,5.3-8.84,35.08,35.08,0,0,1,7.3-6.52c1.29-.91,2.62-1.76,4-2.56s2.71-1.6,4.08-2.42a2.15,2.15,0,0,1-.56.07h-.55a8.34,8.34,0,0,1-4.47-1.19,10.38,10.38,0,0,1-3.22-3.21,15.32,15.32,0,0,1-2-4.64A22.1,22.1,0,0,1,588.19,515.6Zm-1.33,45.94c.89-1.14,1.81-2.45,2.78-3.93s1.9-3,2.83-4.61,1.79-3.19,2.61-4.81,1.51-3.15,2.11-4.6a42.11,42.11,0,0,0-3.36,3.58,35,35,0,0,0-3.11,4.33,32.85,32.85,0,0,0-2.44,4.85A22,22,0,0,0,586.86,561.54Z"/><path d="M643.32,528.5a5.87,5.87,0,0,1-1.83,1.88,9.65,9.65,0,0,1-2.41,1.12,12.79,12.79,0,0,1-2.61.55,23.76,23.76,0,0,1-2.42.14c-.07,0-.11,0-.11-.07-1.15,0-2.07-.87-2.77-2.46a23.9,23.9,0,0,1-1.61-6.18,77.51,77.51,0,0,1-.73-8.53q-.17-4.74-.16-9.45c0-3.14,0-6.11.11-8.91s.11-5.1.11-6.93a5.33,5.33,0,0,1,.64-2.69,8.69,8.69,0,0,1,1.64-2.08c.44-.41.92-.85,1.44-1.3a17.48,17.48,0,0,1,1.61-1.26,9.15,9.15,0,0,1,1.72-1,4.41,4.41,0,0,1,1.72-.37,2.61,2.61,0,0,1,1.78.58,3.48,3.48,0,0,1,1,1.5,8.36,8.36,0,0,1,.44,2,21.14,21.14,0,0,1,.11,2.22c0,1.05,0,2.11-.08,3.18s-.12,2.13-.19,3.17q-.35,4.92-.64,9.73t-.42,9.72q2.83-6.08,5.66-12t5.83-11.91c.56-1.05,1.11-2.11,1.67-3.18s1.09-2.12,1.61-3.17c.44-.87.87-1.76,1.28-2.7a13.54,13.54,0,0,1,1.44-2.56,4.89,4.89,0,0,1,1.3-1.23,3.07,3.07,0,0,1,1.64-.47,2.7,2.7,0,0,1,2.5,1.29,6.3,6.3,0,0,1,.78,3.28,9.24,9.24,0,0,1-.22,2c-.15.64-.32,1.27-.5,1.91s-.39,1.09-.61,1.64-.45,1.09-.67,1.64q-3.72,8.81-7.64,17.33t-7.8,17.27c-.14.32-.34.79-.58,1.4s-.48,1.25-.72,1.91-.48,1.26-.72,1.81A8.41,8.41,0,0,1,643.32,528.5Z"/><path d="M694.85,470.83c.85-3.33,1.76-6.4,2.75-9.22a28.1,28.1,0,0,1,3.74-7.34,16,16,0,0,1,5.69-4.84,19,19,0,0,1,8.64-1.74,9.57,9.57,0,0,1,1.69.17,5.33,5.33,0,0,1,1.69.61,3.94,3.94,0,0,1,1.31,1.23,3.53,3.53,0,0,1-.44,4.3,22.14,22.14,0,0,1-2.48,2.39c-1,.84-2.1,1.8-3.3,2.87a28.05,28.05,0,0,0-3.47,3.75,26.46,26.46,0,0,0-3,5.05,23.9,23.9,0,0,0-1.92,6.79h.44a5.94,5.94,0,0,0,1.48-.17,6.55,6.55,0,0,1,1.52-.17,7.53,7.53,0,0,1,2.06.28,4.81,4.81,0,0,1,1.8.92,4.58,4.58,0,0,1,1.28,1.67,5.9,5.9,0,0,1,.47,2.46,1.9,1.9,0,0,1-.33,1,2.29,2.29,0,0,1-1.22,2.29,7,7,0,0,1-3,.58,21.71,21.71,0,0,1-3.63-.31,19.9,19.9,0,0,0-3-.31h-.17a28.42,28.42,0,0,0-1.94,6.35c-.56,2.69-1.09,5.71-1.59,9.08s-1,7-1.52,10.82-1.1,7.7-1.72,11.57-1.36,7.64-2.2,11.33a77.37,77.37,0,0,1-2.94,10.06,36.62,36.62,0,0,1-3.94,7.85,12.32,12.32,0,0,1-5.25,4.61,11.2,11.2,0,0,1-2.33.85,9,9,0,0,1-2.22.31,3.71,3.71,0,0,1-1.47-.27,1.57,1.57,0,0,1-.89-1,3.54,3.54,0,0,1-.06-1.81,11.5,11.5,0,0,1,1-2.76,6.06,6.06,0,0,0,.87-2.35c.38-1.48.85-3.44,1.38-5.87s1.13-5.26,1.78-8.47,1.33-6.6,2-10.17,1.47-7.23,2.23-11,1.5-7.4,2.24-11,1.45-6.88,2.11-10,1.28-5.84,1.84-8.16a24.55,24.55,0,0,1-3.28.21,3.05,3.05,0,0,1-1.58-.38c-.43-.25-.64-.81-.64-1.67a4.82,4.82,0,0,1,.19-1.26c.13-.48.25-.9.36-1.27a8,8,0,0,1,.95-1.91,3.68,3.68,0,0,1,1.08-1,3.11,3.11,0,0,1,1.28-.41,14.92,14.92,0,0,1,1.58-.07h1.31a1.71,1.71,0,0,0,2.08-2.15C694.46,472.25,694.66,471.46,694.85,470.83Z"/><path d="M713.11,517.34q0,1,.39,1a2.64,2.64,0,0,0,1.56-.85,24.31,24.31,0,0,0,2.05-2.15c.74-.87,1.52-1.79,2.33-2.77s1.83-2.13,3-3.48a30.5,30.5,0,0,1,2.83-2.86,3,3,0,0,1,1.81-.86.9.9,0,0,1,.77.38,2.52,2.52,0,0,1,.42.92,5.92,5.92,0,0,1,.17,1.13c0,.38,0,.71,0,1a7.79,7.79,0,0,1-.77,3.14q-.78,1.69-9.61,12.35t-13.27,7.44q-4.44-3.21-.39-22.83T709.89,487q1.4-2.22,5.31-2.26c2.61,0,4.26.32,5,1a4.31,4.31,0,0,1,1.05,3.17,14.94,14.94,0,0,1-.53,2.87q-.53,2.11-1.33,4.88t-1.8,5.9c-.67,2.1-1.32,4.12-1.95,6.08s-1.19,3.72-1.69,5.29A16.18,16.18,0,0,0,713.11,517.34ZM720,480.65a5.71,5.71,0,0,1-4.86-.88,9.92,9.92,0,0,1-3.16-3,6.14,6.14,0,0,1-.83-3.11,3.85,3.85,0,0,1,.66-2.11,11.37,11.37,0,0,1,1.58-1.91,10,10,0,0,1,2-1.5,12.68,12.68,0,0,1,1.78-.89,6.55,6.55,0,0,1,1.78-.45c.63-.06,1.24-.1,1.83-.1a5.21,5.21,0,0,1,2.25.51,6.2,6.2,0,0,1,1.89,1.4,6.73,6.73,0,0,1,1.27,2.15,7.79,7.79,0,0,1,.48,2.77,4.53,4.53,0,0,1-.75,2.69,22,22,0,0,1-2.06,2.43A8.07,8.07,0,0,1,720,480.65Z"/><path d="M739.82,449.12a4.92,4.92,0,0,1,2.44.82A13.61,13.61,0,0,1,744.9,452a13.79,13.79,0,0,1,2.14,2.73,5.65,5.65,0,0,1,.89,2.86,17,17,0,0,1-.56,3.31c-.37,1.57-.83,3.4-1.39,5.47s-1.18,4.27-1.89,6.62-1.37,4.59-2,6.75-1.24,4.12-1.78,5.87-.93,3.09-1.19,4c.66-.55,1.54-1.35,2.64-2.39s2.23-2.07,3.44-3.07a39.14,39.14,0,0,1,3.52-2.63,5.64,5.64,0,0,1,2.83-1.13c1.19,0,1.94.39,2.25,1.16a8.44,8.44,0,0,1,.47,3.14,8.88,8.88,0,0,1-1,4.27,12,12,0,0,1-2.52,3.21q-1.56,1.39-5.31,4.47t-5.6,4.95a6,6,0,0,0-2,3.2,8.89,8.89,0,0,0,.33,3.11c.32,1.18.69,2.41,1.11,3.68s.87,2.43,1.33,3.45a13.78,13.78,0,0,0,1.45,2.53q.75,1,1.41,1a4.24,4.24,0,0,0,2.56-.86,10.66,10.66,0,0,0,2.14-2.11c.64-.84,1.48-2.1,2.49-3.76s1.82-2.91,2.39-3.75a11.74,11.74,0,0,1,1.81-2.12,3,3,0,0,1,2-.85,3.05,3.05,0,0,1,1,.2,3.41,3.41,0,0,1,1,.62,3.57,3.57,0,0,1,.78.95A2.43,2.43,0,0,1,760,508a4.62,4.62,0,0,1-.16,1.12c-.11.43-.24.87-.39,1.3s-.31.85-.47,1.26l-.42,1a42.45,42.45,0,0,1-3.39,6.11,38.32,38.32,0,0,1-4.6,6,25.17,25.17,0,0,1-4.67,3.82,8.91,8.91,0,0,1-4.77,1.54,4.85,4.85,0,0,1-3.06-1,10.58,10.58,0,0,1-2.36-2.56,24.72,24.72,0,0,1-1.86-3.34c-.55-1.2-1.05-2.36-1.5-3.45-.29,1.23-.62,2.63-1,4.2s-.72,3.18-1.11,4.81-.79,3.21-1.22,4.71-.84,2.8-1.25,3.89a3.37,3.37,0,0,1-1.39,1.81,3.72,3.72,0,0,1-2,.58,3,3,0,0,1-2.22-.89,6.51,6.51,0,0,1-1.41-2.18,11.29,11.29,0,0,1-.72-2.83,22.77,22.77,0,0,1-.2-2.83,33.41,33.41,0,0,1,.25-3.52c.17-1.43.4-3,.7-4.68s.61-3.43.94-5.25.69-3.58,1-5.29.72-3.3,1-4.78.58-2.69.81-3.65q2.77-11.81,5.22-23.55t4.83-23.61c.18-.91.38-1.82.58-2.73a10.33,10.33,0,0,1,.86-2.46,5.19,5.19,0,0,1,1.44-1.78A3.66,3.66,0,0,1,739.82,449.12Z"/><path d="M790.23,470.83q1.28-5,2.75-9.22a27.81,27.81,0,0,1,3.75-7.34,15.91,15.91,0,0,1,5.69-4.84,18.94,18.94,0,0,1,8.63-1.74,9.68,9.68,0,0,1,1.7.17,5.42,5.42,0,0,1,1.69.61,3.91,3.91,0,0,1,1.3,1.23,3.53,3.53,0,0,1-.44,4.3,22,22,0,0,1-2.47,2.39q-1.5,1.26-3.3,2.87a27.41,27.41,0,0,0-3.47,3.75,27,27,0,0,0-3,5.05,23.9,23.9,0,0,0-1.92,6.79h.45a5.81,5.81,0,0,0,1.47-.17,6.57,6.57,0,0,1,1.53-.17,7.46,7.46,0,0,1,2.05.28,4.78,4.78,0,0,1,1.81.92,4.55,4.55,0,0,1,1.27,1.67,5.74,5.74,0,0,1,.47,2.46,1.9,1.9,0,0,1-.33,1,2.29,2.29,0,0,1-1.22,2.29,6.91,6.91,0,0,1-2.94.58,21.73,21.73,0,0,1-3.64-.31,19.9,19.9,0,0,0-3-.31h-.17a29,29,0,0,0-1.94,6.35c-.55,2.69-1.08,5.71-1.58,9.08s-1,7-1.53,10.82-1.09,7.7-1.72,11.57-1.36,7.64-2.19,11.33A78.92,78.92,0,0,1,787,542.25,36.62,36.62,0,0,1,783,550.1a12.36,12.36,0,0,1-5.24,4.61,11.08,11.08,0,0,1-2.34.85,8.89,8.89,0,0,1-2.22.31,3.78,3.78,0,0,1-1.47-.27,1.6,1.6,0,0,1-.89-1,3.67,3.67,0,0,1,0-1.81,11.08,11.08,0,0,1,1-2.76,6.14,6.14,0,0,0,.86-2.35q.58-2.22,1.39-5.87t1.77-8.47q1-4.82,2.06-10.17l2.22-11q1.14-5.62,2.25-11t2.11-10c.66-3.12,1.28-5.84,1.83-8.16a24.55,24.55,0,0,1-3.28.21,3.11,3.11,0,0,1-1.58-.38c-.42-.25-.64-.81-.64-1.67A4.87,4.87,0,0,1,781,480c.13-.48.25-.9.36-1.27a8.07,8.07,0,0,1,.94-1.91,3.84,3.84,0,0,1,1.09-1,3.07,3.07,0,0,1,1.27-.41,15,15,0,0,1,1.59-.07h1.3a5.27,5.27,0,0,0,1.25-.14,5.12,5.12,0,0,0,.83-2C789.84,472.25,790.05,471.46,790.23,470.83Z"/><path d="M826.71,483.11a5,5,0,0,1,6.88-.13,4.67,4.67,0,0,1,1.5,3.75,21.6,21.6,0,0,1-.41,3.62q-.42,2.25-1.09,5T832.1,501q-.84,2.92-1.61,5.69c-.52,1.85-1,3.55-1.48,5.12s-.82,2.86-1.08,3.86q-.61,6.21,3.94,2.39a24.41,24.41,0,0,0,6.44-7.68,33.34,33.34,0,0,1,2.42-4.47,1.76,1.76,0,0,1,1.41-.62,2.53,2.53,0,0,1,2,1.37q.92,1.36,0,3.69a30.34,30.34,0,0,1-1.2,2.79q-8,16.25-13.71,17.24t-8.5-5.84q-4.83,4.79-7,5.57a12.82,12.82,0,0,1-4.42.78,8.4,8.4,0,0,1-5.27-1.57,10.56,10.56,0,0,1-3.22-4.13,20.44,20.44,0,0,1-1.61-5.77,46.51,46.51,0,0,1-.45-6.48,35.91,35.91,0,0,1,1.83-11.43,34.26,34.26,0,0,1,5-9.73,25.35,25.35,0,0,1,7.47-6.76,18,18,0,0,1,9.24-2.52,14.72,14.72,0,0,1,2.2.17C825.24,482.78,826,482.93,826.71,483.11Zm-9.08,12.73a20.46,20.46,0,0,0-6.49,9.42q-2.21,6-1.36,10.14t5.91-2.94q5.09-7,6-11.84t.58-6.49Q821.93,492.47,817.63,495.84Z"/><path d="M845,534.3c-2,0-3.87-1.17-5.5-3.51s-2.49-5.66-2.6-9.93.63-10.48,2.22-18.6A147.76,147.76,0,0,1,845,480.52c-.75.09-1.41.19-2,.31a9,9,0,0,1-1.61.17c-1.67-.55-2.45-1.49-2.33-2.84a9.84,9.84,0,0,1,.55-2.9,5.92,5.92,0,0,1,1-1.57,7.24,7.24,0,0,1,1.33-1.16c.48-.32,2.72-.7,6.72-1.16q2.83-7.5,4.5-9.52a8.45,8.45,0,0,1,4.41-2.76,4.13,4.13,0,0,1,4.53,1.29q1.77,2.06-1.34,9.76,3.88-.27,6.08-.47c1.46-.14,3.23-.32,5.31-.55q2.16,1,1.13,4.78t-1.86,4.5a5.89,5.89,0,0,1-3.08.89c-1.5.14-3,.25-4.38.34s-2.74.16-4,.21a4.92,4.92,0,0,0-2.49.54c-.47.32-1.14,1.62-2,3.89S854,488,853.86,488.5q-.55,2.06-1.44,4.95t-1.86,6.18q-1,3.27-1.89,6.69c-.61,2.27-1.13,4.46-1.56,6.55a47.67,47.67,0,0,0-.83,5.73,12.84,12.84,0,0,0,.25,4.24c.22.54.5.82.83.82s1-.35,1.59-1a23.19,23.19,0,0,0,1.94-2.56c.68-1,1.39-2.12,2.11-3.31s2-3.14,3.72-5.87,2.89-4.41,3.41-5.05.93-.93,1.22-.89a2.8,2.8,0,0,1,1.81.72,2.49,2.49,0,0,1,.86,2,9.23,9.23,0,0,1-.5,2.73c-.33,1-.65,1.94-.94,2.67a73.14,73.14,0,0,1-4.06,7.57,81.7,81.7,0,0,1-5,7.85,22.39,22.39,0,0,1-4.05,4.13A7.13,7.13,0,0,1,845,534.3Z"/><path d="M895.83,517.34c0,.66.09,1,.39,1a2.64,2.64,0,0,0,1.56-.85,24.31,24.31,0,0,0,2.05-2.15c.74-.87,1.52-1.79,2.33-2.77s1.82-2.13,3-3.48a29.31,29.31,0,0,1,2.83-2.86,3,3,0,0,1,1.8-.86.91.91,0,0,1,.78.38,2.52,2.52,0,0,1,.42.92,5.22,5.22,0,0,1,.16,1.13q0,.57,0,1a7.65,7.65,0,0,1-.78,3.14q-.76,1.69-9.6,12.35t-13.27,7.44q-4.44-3.21-.39-22.83T892.61,487q1.39-2.22,5.3-2.26t5,1a4.27,4.27,0,0,1,1.06,3.17,14.94,14.94,0,0,1-.53,2.87c-.35,1.41-.8,3-1.33,4.88s-1.14,3.81-1.81,5.9-1.31,4.12-1.94,6.08-1.19,3.72-1.69,5.29A16.18,16.18,0,0,0,895.83,517.34Zm6.86-36.69a5.7,5.7,0,0,1-4.86-.88,9.92,9.92,0,0,1-3.16-3,6.16,6.16,0,0,1-.84-3.11,3.86,3.86,0,0,1,.67-2.11,10.91,10.91,0,0,1,1.58-1.91,10,10,0,0,1,2-1.5,12.68,12.68,0,0,1,1.78-.89,6.55,6.55,0,0,1,1.78-.45c.63-.06,1.24-.1,1.83-.1a5.21,5.21,0,0,1,2.25.51,6.2,6.2,0,0,1,1.89,1.4,6.73,6.73,0,0,1,1.27,2.15,7.78,7.78,0,0,1,.47,2.77,4.53,4.53,0,0,1-.75,2.69,20.71,20.71,0,0,1-2.05,2.43A8.07,8.07,0,0,1,902.69,480.65Z"/><path d="M954.8,489.6l1.36-2a15.47,15.47,0,0,1,2.27-2.5,5.34,5.34,0,0,1,4.33-1.19c1.84.18,3.25,1.55,4.25,4.1q2.88-5.88,7.19-8.4t6.41-2.52a5.42,5.42,0,0,1,2.95.81,4.81,4.81,0,0,1,1.88,2.7,13.52,13.52,0,0,1,.42,4.95,38.46,38.46,0,0,1-1.47,7.64q-.23.82-.81,2.67c-.39,1.22-.83,2.64-1.33,4.23s-1.76,5.24-3.77,10.95-2.7,8.91-2,9.59,2.38-1,5.13-5.15,4.48-6.61,5.17-7.47a19.23,19.23,0,0,1,1.52-1.78,5.44,5.44,0,0,1,1.34-1.06,3.48,3.48,0,0,1,1.55-.3,2.79,2.79,0,0,1,1.89.88A2.88,2.88,0,0,1,994,508a3.48,3.48,0,0,1-.5,1.81c-.33.56-.64,1.12-.94,1.67a110.73,110.73,0,0,1-8.91,13q-6,7.77-10.36,8.39-6.43.75-7.27-5.42t3.58-19q4.41-12.84.36-12.32t-13,26.92a15.79,15.79,0,0,1-2.39,4.06q-2.06,2.84-4.28,1c-1.48-1.23-1.88-3.58-1.22-7.06s1.28-6.22,1.83-8.23a42,42,0,0,0,1.25-7.23q.42-4.23-1.08-4.71t-4.39,7.61a123.38,123.38,0,0,0-4.46,15.43q-1.59,7.33-4,9.31a4.12,4.12,0,0,1-4.83.72q-2.38-1.26.39-17.17t4.75-20.92q2-5,4.46-7.13c1.67-1.41,4.09-1.88,7.28-1.4S954.91,488.5,954.8,489.6Z"/><path d="M996.71,517.34q0,1,.39,1a2.64,2.64,0,0,0,1.56-.85,24.31,24.31,0,0,0,2.05-2.15c.74-.87,1.52-1.79,2.33-2.77s1.83-2.13,3-3.48a30.5,30.5,0,0,1,2.83-2.86,3,3,0,0,1,1.81-.86.9.9,0,0,1,.77.38,2.52,2.52,0,0,1,.42.92,5.92,5.92,0,0,1,.17,1.13c0,.38,0,.71,0,1a7.79,7.79,0,0,1-.77,3.14q-.78,1.69-9.61,12.35t-13.27,7.44q-4.44-3.21-.39-22.83T993.49,487q1.39-2.22,5.31-2.26c2.61,0,4.26.32,5,1a4.31,4.31,0,0,1,1.05,3.17,14.94,14.94,0,0,1-.53,2.87q-.52,2.11-1.33,4.88t-1.8,5.9c-.67,2.1-1.32,4.12-1.95,6.08s-1.19,3.72-1.69,5.29A16.18,16.18,0,0,0,996.71,517.34Zm6.86-36.69a5.71,5.71,0,0,1-4.86-.88,9.92,9.92,0,0,1-3.16-3,6.14,6.14,0,0,1-.83-3.11,3.85,3.85,0,0,1,.66-2.11A11.37,11.37,0,0,1,997,469.6a10,10,0,0,1,2-1.5,12.68,12.68,0,0,1,1.78-.89,6.55,6.55,0,0,1,1.78-.45c.63-.06,1.24-.1,1.83-.1a5.21,5.21,0,0,1,2.25.51,6.2,6.2,0,0,1,1.89,1.4,6.73,6.73,0,0,1,1.27,2.15,7.79,7.79,0,0,1,.48,2.77,4.53,4.53,0,0,1-.75,2.69,22,22,0,0,1-2.06,2.43A8.07,8.07,0,0,1,1003.57,480.65Z"/><path d="M1014.59,534.3c-2,0-3.87-1.17-5.5-3.51s-2.49-5.66-2.6-9.93.63-10.48,2.22-18.6a147.76,147.76,0,0,1,5.83-21.74c-.74.09-1.41.19-2,.31a9,9,0,0,1-1.61.17c-1.67-.55-2.45-1.49-2.33-2.84a9.84,9.84,0,0,1,.55-2.9,5.92,5.92,0,0,1,1-1.57,7.24,7.24,0,0,1,1.33-1.16c.48-.32,2.72-.7,6.72-1.16q2.84-7.5,4.5-9.52a8.45,8.45,0,0,1,4.41-2.76,4.13,4.13,0,0,1,4.53,1.29q1.77,2.06-1.34,9.76,3.89-.27,6.08-.47c1.47-.14,3.23-.32,5.31-.55q2.16,1,1.13,4.78t-1.86,4.5a5.89,5.89,0,0,1-3.08.89c-1.5.14-3,.25-4.38.34s-2.74.16-4,.21a4.92,4.92,0,0,0-2.49.54c-.47.32-1.14,1.62-2,3.89s-1.43,3.69-1.61,4.23q-.55,2.06-1.44,4.95t-1.86,6.18q-1,3.27-1.89,6.69c-.61,2.27-1.13,4.46-1.56,6.55a47.67,47.67,0,0,0-.83,5.73,12.84,12.84,0,0,0,.25,4.24c.22.54.5.82.83.82s1-.35,1.59-1a23.19,23.19,0,0,0,1.94-2.56c.68-1,1.39-2.12,2.11-3.31s2-3.14,3.72-5.87,2.89-4.41,3.41-5.05.93-.93,1.22-.89a2.8,2.8,0,0,1,1.81.72,2.49,2.49,0,0,1,.86,2,9.23,9.23,0,0,1-.5,2.73c-.33,1-.65,1.94-.94,2.67a73.14,73.14,0,0,1-4.06,7.57,81.7,81.7,0,0,1-5,7.85,22.39,22.39,0,0,1-4,4.13A7.13,7.13,0,0,1,1014.59,534.3Z"/><path d="M1063.12,496.76a11.49,11.49,0,0,1,1.77-6.14,23,23,0,0,1,4.33-5.12,34.51,34.51,0,0,1,5.42-3.92,46.54,46.54,0,0,1,5.08-2.63c.66-.27,1.34-.51,2-.72a7.64,7.64,0,0,1,2.14-.31,3.47,3.47,0,0,1,1,.17,4.18,4.18,0,0,1,1,.48q.45.31,1.11,3.45a11.07,11.07,0,0,1-.11,5.63,27.66,27.66,0,0,1-2.92,6q-2.13,3.48-3.8,2.6a3,3,0,0,1-1.58-3c.05-1.43-1-1.6-3.11-.51s-2.49,2.89-1.08,5.39a45.66,45.66,0,0,1,2.75,6.21,53.94,53.94,0,0,1,2.27,8.12,22.75,22.75,0,0,1-.47,9.83,21.9,21.9,0,0,1-5.25,9.8,15.45,15.45,0,0,1-10.3,4.88,9.1,9.1,0,0,1-4.44-1.13,10.6,10.6,0,0,1-3.52-3.17,16.28,16.28,0,0,1-2.31-4.85,21.36,21.36,0,0,1-.83-6.07,21,21,0,0,1,1.08-6.93,19.51,19.51,0,0,1,2.75-5.33,13.37,13.37,0,0,1,3.69-3.44,7.56,7.56,0,0,1,3.92-1.23,5.47,5.47,0,0,1,1.89.34,16,16,0,0,1-.84-1.74c-.29-.71-.56-1.46-.8-2.25s-.45-1.57-.61-2.32A9.25,9.25,0,0,1,1063.12,496.76Zm1.83,16a10,10,0,0,0-3.78,6,6.87,6.87,0,0,0,.06,2.87,2.54,2.54,0,0,0,1.33,1.77,3.83,3.83,0,0,0,1.67.34,4.42,4.42,0,0,0,2.5-.78,9.26,9.26,0,0,0,2.08-2,9.89,9.89,0,0,0,1.44-2.63,8,8,0,0,0,.53-2.73,9,9,0,0,0-.81-3.62,32.14,32.14,0,0,0-1.58-3.21,6.41,6.41,0,0,1-.61,1.44,4.76,4.76,0,0,1-.75,1,5.34,5.34,0,0,1-.94.75C1065.74,512.21,1065.36,512.49,1065,512.8Z"/><path d="M1094.15,453.42c.19-.86.38-1.72.59-2.56a8.7,8.7,0,0,1,.86-2.25A5.06,5.06,0,0,1,1097,447a3.64,3.64,0,0,1,2.17-.61,4.71,4.71,0,0,1,2.25.75,12.88,12.88,0,0,1,2.5,1.91,14,14,0,0,1,2,2.53,4.91,4.91,0,0,1,.86,2.59,8.94,8.94,0,0,1-.36,2.53c-.24.82-.47,1.61-.69,2.39q-.94,3.54-1.81,7.13c-.57,2.39-1.16,4.79-1.75,7.2q-2.65,10.65-7,30t-1.39,18.77q3-.59,7.89-7.37t6.44-8.84a1.63,1.63,0,0,1,1.16-.75,1,1,0,0,1,.86.54,4.16,4.16,0,0,1,.56,1.44,9.77,9.77,0,0,1,.19,2.08,12.22,12.22,0,0,1-.27,2.49,7.36,7.36,0,0,1-1.06,2.7,51,51,0,0,1-3.75,5.56c-1.79,2.41-3.45,4.49-5,6.24s-3.82,4.13-6.89,7.14q-5.61,4-10.16-1.68t1.33-34.12Q1091,469.2,1094.15,453.42Z"/><path d="M1114.14,517.34q-.06,1,.39,1a2.62,2.62,0,0,0,1.55-.85,24.28,24.28,0,0,0,2.06-2.15c.74-.87,1.52-1.79,2.33-2.77s1.82-2.13,3-3.48a29.31,29.31,0,0,1,2.83-2.86,3,3,0,0,1,1.8-.86.93.93,0,0,1,.78.38,2.89,2.89,0,0,1,.42.92,5.92,5.92,0,0,1,.16,1.13q0,.57,0,1a7.65,7.65,0,0,1-.78,3.14q-.78,1.69-9.6,12.35t-13.27,7.44q-4.44-3.21-.39-22.83t5.44-21.84q1.38-2.22,5.3-2.26t5,1a4.32,4.32,0,0,1,1.06,3.17,14.94,14.94,0,0,1-.53,2.87c-.35,1.41-.8,3-1.33,4.88s-1.14,3.81-1.81,5.9-1.31,4.12-1.94,6.08-1.19,3.72-1.69,5.29A16.18,16.18,0,0,0,1114.14,517.34Zm6.86-36.69a5.7,5.7,0,0,1-4.86-.88,10,10,0,0,1-3.17-3,6.25,6.25,0,0,1-.83-3.11,3.78,3.78,0,0,1,.67-2.11,10.91,10.91,0,0,1,1.58-1.91,10,10,0,0,1,2-1.5,12.16,12.16,0,0,1,1.78-.89,6.39,6.39,0,0,1,1.77-.45c.63-.06,1.24-.1,1.84-.1a5.27,5.27,0,0,1,2.25.51,6,6,0,0,1,1.88,1.4,6.57,6.57,0,0,1,1.28,2.15,8,8,0,0,1,.47,2.77,4.53,4.53,0,0,1-.75,2.69,21.74,21.74,0,0,1-2.05,2.43A8.07,8.07,0,0,1,1121,480.65Z"/><path d="M1140.85,449.12a5,5,0,0,1,2.44.82,14.24,14.24,0,0,1,2.64,2.05,13.38,13.38,0,0,1,2.13,2.73,5.55,5.55,0,0,1,.89,2.86,16.74,16.74,0,0,1-.55,3.31c-.37,1.57-.84,3.4-1.39,5.47s-1.19,4.27-1.89,6.62-1.38,4.59-2,6.75-1.24,4.12-1.77,5.87-.94,3.09-1.2,4c.67-.55,1.55-1.35,2.64-2.39s2.24-2.07,3.44-3.07a39.22,39.22,0,0,1,3.53-2.63,5.64,5.64,0,0,1,2.83-1.13,2.16,2.16,0,0,1,2.25,1.16,8.65,8.65,0,0,1,.47,3.14,8.88,8.88,0,0,1-1,4.27,12,12,0,0,1-2.53,3.21q-1.54,1.39-5.3,4.47a73.44,73.44,0,0,0-5.61,4.95,6,6,0,0,0-2,3.2,8.44,8.44,0,0,0,.33,3.11c.31,1.18.68,2.41,1.11,3.68a34.78,34.78,0,0,0,1.33,3.45,13.24,13.24,0,0,0,1.44,2.53c.5.66,1,1,1.42,1a4.19,4.19,0,0,0,2.55-.86,10.66,10.66,0,0,0,2.14-2.11c.65-.84,1.48-2.1,2.5-3.76s1.81-2.91,2.39-3.75a11.71,11.71,0,0,1,1.8-2.12,3,3,0,0,1,2-.85,3.05,3.05,0,0,1,1,.2,3.5,3.5,0,0,1,1.8,1.57A2.33,2.33,0,0,1,1161,508a4.69,4.69,0,0,1-.17,1.12c-.11.43-.24.87-.39,1.3s-.3.85-.47,1.26-.3.75-.41,1a42.45,42.45,0,0,1-3.39,6.11,38.31,38.31,0,0,1-4.61,6,24.8,24.8,0,0,1-4.66,3.82,8.92,8.92,0,0,1-4.78,1.54,4.85,4.85,0,0,1-3-1,10.39,10.39,0,0,1-2.36-2.56,23.68,23.68,0,0,1-1.86-3.34c-.56-1.2-1.06-2.36-1.5-3.45-.3,1.23-.62,2.63-1,4.2s-.72,3.18-1.11,4.81-.8,3.21-1.22,4.71-.85,2.8-1.25,3.89a3.37,3.37,0,0,1-1.39,1.81,3.74,3.74,0,0,1-2,.58,3,3,0,0,1-2.22-.89,6.69,6.69,0,0,1-1.42-2.18,11.29,11.29,0,0,1-.72-2.83,22.64,22.64,0,0,1-.19-2.83,30.9,30.9,0,0,1,.25-3.52c.16-1.43.4-3,.69-4.68s.61-3.43,1-5.25.68-3.58,1-5.29l1-4.78c.31-1.48.58-2.69.8-3.65q2.77-11.81,5.22-23.55t4.83-23.61c.19-.91.38-1.82.59-2.73a10.33,10.33,0,0,1,.86-2.46,5.19,5.19,0,0,1,1.44-1.78A3.66,3.66,0,0,1,1140.85,449.12Z"/></svg>
