<svg id="Layer_1" data-name="Layer 1" xmlns="http://www.w3.org/2000/svg" width="360" height="360" viewBox="0 0 360 360"><defs><style>.cls-1{fill:#816006;}.cls-2{fill:#ac8109;}.cls-3{fill:#3200ff;}.cls-4{fill:#3f90ff;}</style></defs><title>Lufrskib</title><polygon points="297.59 249.79 294.35 250.56 256.1 91.48 259.35 90.72 297.59 249.79"/><polygon points="200.05 292.08 197.28 293.92 105.02 158.2 107.79 156.36 200.05 292.08"/><path class="cls-1" d="M208,273.94c-5.07,1-10.2,1.75-15.36,2.3-1.2.59-2.43,1.14-3.66,1.68a26.55,26.55,0,0,0-2,2.85,27.91,27.91,0,0,0,9.06-2.53Q202,276,208,273.94Z"/><path class="cls-1" d="M190.17,276.5c-.42.46-.83.94-1.22,1.42,1.23-.54,2.46-1.09,3.66-1.68Z"/><path class="cls-1" d="M250.13,260.17l5.32-1.61q10.51-4.86,21-9.78,7.76-7,15.6-13.89c-1.25.31-2.49.66-3.72,1A179.85,179.85,0,0,1,250.13,260.17Z"/><path class="cls-1" d="M306.58,218.56a181.55,181.55,0,0,1-18.24,17.34c1.23-.35,2.47-.7,3.72-1,5.89-5.12,11.84-10.15,17.92-15A27.53,27.53,0,0,0,306.58,218.56Z"/><path class="cls-1" d="M257.16,238.61c14.93-6.21,28.63-14.25,43-21.25a26.39,26.39,0,0,0-14.83,3.43l-89,50.76a26,26,0,0,0-6.23,4.95l2.44-.26C215,265.39,233.62,247.14,257.16,238.61Z"/><path class="cls-1" d="M250.13,260.17a179.85,179.85,0,0,0,38.21-24.27c-21.25,6.14-40.22,18.1-58.88,30.77Q239.78,263.31,250.13,260.17Z"/><path class="cls-2" d="M306.58,218.56a26.7,26.7,0,0,0-6.4-1.2c-14.39,7-28.09,15-43,21.25-23.54,8.53-42.17,26.78-64.55,37.63,5.16-.55,10.29-1.31,15.36-2.3q10.72-3.76,21.49-7.27C248.12,254,267.09,242,288.34,235.9A181.55,181.55,0,0,0,306.58,218.56Z"/><path class="cls-1" d="M255.45,258.56l-5.32,1.61a180.16,180.16,0,0,1-25.23,9.61c-3.2,2.19-6.4,4.4-9.61,6.58C228.77,270.72,242.14,264.71,255.45,258.56Z"/><path class="cls-2" d="M196,278.24a27.91,27.91,0,0,1-9.06,2.53,26.2,26.2,0,0,0-3.13,7.91c10.59-3.81,21.07-8,31.47-12.32,3.21-2.18,6.41-4.39,9.61-6.58-5.57,1.65-11.21,3.05-16.93,4.16Q202,276.06,196,278.24Z"/><path class="cls-1" d="M250.13,260.17q-10.35,3.13-20.67,6.5l-4.56,3.11A180.16,180.16,0,0,0,250.13,260.17Z"/><path class="cls-1" d="M224.9,269.78l4.56-3.11q-10.77,3.51-21.49,7.27C213.69,272.83,219.33,271.43,224.9,269.78Z"/><path class="cls-1" d="M270.56,254.16c2-1.8,3.93-3.6,5.9-5.38q-10.5,4.91-21,9.78Q263,256.31,270.56,254.16Z"/><path class="cls-2" d="M221.83,289.14q9.81-3.94,19.46-8.32c9.9-8.82,19.58-17.79,29.27-26.66q-7.56,2.16-15.11,4.4c-13.31,6.15-26.68,12.16-40.16,17.8-6.45,4.4-12.93,8.73-19.51,12.78Z"/><path class="cls-1" d="M183.71,289.14h12.07c6.58-4.05,13.06-8.38,19.51-12.78-10.4,4.36-20.88,8.51-31.47,12.32C183.79,288.83,183.75,289,183.71,289.14Z"/><path class="cls-1" d="M226.45,289.14q6.28-3.12,12.56-6.28l2.28-2q-9.64,4.37-19.46,8.32Z"/><path class="cls-1" d="M184.57,302.24c12.64-3.76,25.05-8.17,37.26-13.1H195.78c-4.1,2.53-8.23,4.94-12.43,7.19A25.37,25.37,0,0,0,184.57,302.24Z"/><path class="cls-1" d="M183.35,296.33c4.2-2.25,8.33-4.66,12.43-7.19H183.71A25.47,25.47,0,0,0,183.35,296.33Z"/><path class="cls-1" d="M184.57,302.24a25.18,25.18,0,0,0,2.19,4.87l.44.76c13.22-6,26.28-12.29,39.25-18.73h-4.62C209.62,294.07,197.21,298.48,184.57,302.24Z"/><path class="cls-1" d="M320.26,228.64c-2.26,1-4.5,2-6.76,3h.81l-.9,0c-12.36,5.57-24.65,11.31-37,17.07-2,1.78-3.93,3.58-5.9,5.38q21.88-6.21,43.95-11.73c3.17-2.51,6.34-5,9.5-7.52l-2.68-4.59C321,229.74,320.63,229.18,320.26,228.64Z"/><path class="cls-1" d="M313.5,231.67l-.09,0,.9,0Z"/><path class="cls-2" d="M241.29,280.82c24.8-11.22,48.88-24.28,72.64-37.94l.58-.45q-22.06,5.55-43.95,11.73C260.87,263,251.19,272,241.29,280.82Z"/><path class="cls-2" d="M276.46,248.78c12.3-5.76,24.59-11.5,37-17.07a106.22,106.22,0,0,0-21.35,3.18Q284.2,241.73,276.46,248.78Z"/><path class="cls-1" d="M319.44,227.53a26.27,26.27,0,0,0-9.46-7.64c-6.08,4.85-12,9.88-17.92,15a106.22,106.22,0,0,1,21.35-3.18l.09,0h-2.2A74.15,74.15,0,0,1,319.44,227.53Z"/><path class="cls-1" d="M319.44,227.53a74.15,74.15,0,0,0-8.14,4.14h2.2c2.26-1,4.5-2,6.76-3C320,228.26,319.72,227.89,319.44,227.53Z"/><path class="cls-1" d="M239,282.86c22.64-11.43,45.11-23.14,67.81-34.35,2.38-1.86,4.74-3.75,7.11-5.63-23.76,13.66-47.84,26.72-72.64,37.94Z"/><path class="cls-1" d="M314.51,242.43l.37-.1q5-2.9,10.06-5.83l-.93-1.59C320.85,237.43,317.68,239.92,314.51,242.43Z"/><path class="cls-1" d="M313.93,242.88l.95-.55-.37.1Z"/><path class="cls-1" d="M314.88,242.33l9.62-2.39,1.91-.92-1.47-2.52Q319.93,239.44,314.88,242.33Z"/><path class="cls-1" d="M313.93,242.88c-2.37,1.88-4.73,3.77-7.11,5.63q8.81-4.33,17.68-8.57l-9.62,2.39Z"/><path class="cls-2" d="M193,315.9c13.17-8.37,26.32-16.75,38.66-26.76h-5.21c-13,6.44-26,12.74-39.25,18.73L201.87,333c17.33-15.16,35.12-29.64,53.07-43.86H231.66C219.32,299.15,206.17,307.53,193,315.9Z"/><path class="cls-1" d="M208.91,345l1.13,2a26.12,26.12,0,0,0,11.54,10.51q44.82-35.82,91.79-68.35H275.32C252.67,307.12,230.46,325.66,208.91,345Z"/><path class="cls-2" d="M313.37,289.14q-47,32.55-91.79,68.35a26.56,26.56,0,0,0,24.44-1l4.21-2.4c32.3-21.24,63.91-43.17,95.65-65Z"/><path class="cls-1" d="M345.88,289.14c-31.74,21.8-63.35,43.73-95.65,65L335,305.75a26,26,0,0,0,12.46-16.61Z"/><path class="cls-1" d="M201.87,333l7,12c21.55-19.37,43.76-37.91,66.41-55.89H254.94C237,303.36,219.2,317.84,201.87,333Z"/><path class="cls-1" d="M234.11,287.16c-.81.68-1.63,1.32-2.45,2h23.28c17.24-13.65,34.62-27.07,51.88-40.63-22.7,11.21-45.17,22.92-67.81,34.35Z"/><path class="cls-1" d="M330.83,246.59q-28.06,20.88-55.51,42.55h38.05q15-10.41,30.34-20.5Z"/><path class="cls-1" d="M347.44,289.14c.1-.41.19-.83.27-1.25l-1.83,1.25Z"/><path class="cls-2" d="M344.62,270.19l-.91-1.55q-15.3,10.08-30.34,20.5h32.51l1.83-1.25A25.68,25.68,0,0,0,344.62,270.19Z"/><path class="cls-1" d="M324.5,239.94l2.14-.53-.23-.39Z"/><path class="cls-2" d="M324.5,239.94q-8.87,4.22-17.68,8.57c-17.26,13.56-34.64,27-51.88,40.63h20.38q27.39-21.74,55.51-42.55l-4.19-7.18Z"/><path class="cls-1" d="M231.66,289.14c.82-.66,1.64-1.3,2.45-2l4.9-4.3q-6.27,3.17-12.56,6.28Z"/><ellipse class="cls-3" cx="178.66" cy="127.74" rx="102.33" ry="83.2" transform="translate(-36.09 81.68) rotate(-23.46)"/><polygon class="cls-3" points="349.6 97.1 360 65.07 327.13 64.19 331.37 28.71 298.59 37.05 296.17 0 273.25 10.22 276.91 15.53 272.68 10.79 239.19 115.48 349.35 97.82 349.37 97.83 349.37 97.82 350.13 97.7 349.6 97.1"/><polygon class="cls-3" points="16.96 147.26 0 174.65 32.78 184.32 21.29 216.63 55.86 217.58 50.73 253.15 75.8 249.69 73.22 243.69 76.49 249.3 131.43 159.64 17.36 146.65 17.35 146.63 17.34 146.65 16.55 146.56 16.96 147.26"/><path class="cls-4" d="M273.07,88.29c19.7,48.07-19.88,98.48-62.87,116.44"/></svg>
