<svg id="Layer_1" data-name="Layer 1" xmlns="http://www.w3.org/2000/svg" width="127.63" height="112.49" viewBox="0 0 127.63 112.49"><defs><style>.cls-1{fill:#bf7b00;}.cls-2{fill:#fff;}.cls-3{fill:none;stroke:#fff;stroke-miterlimit:10;stroke-width:2px;}</style></defs><title>lyd</title><path d="M66.57,6.22q18,0,43.12,15.33,18.12,18.6,18.12,37.26v4.86q0,31-37.13,45.38A68,68,0,0,1,70,112.24H67.38q-33.06,0-51.78-23.45Q7.83,78.17,7.84,62.84q0-24.36,31.06-47.74A56.21,56.21,0,0,1,66.57,6.22ZM24.18,45.7c.59,4.44,1.19,6.87,1.78,7.29a9.18,9.18,0,0,0,5.25,2,6.35,6.35,0,0,0,5-2.85,18.65,18.65,0,0,0,.59-4.3c0-2.26-.66-3.86-2-4.79a7,7,0,0,0-4.06-1.45Q27.37,41.61,24.18,45.7ZM41.49,87.13q3.91,7.35,7.77,7.35a5.37,5.37,0,0,0,4.36-5.69q0-3.89-5.18-7.29H45Q41.49,82.82,41.49,87.13Zm2.89-66.06L42.31,23.7l2.14,2.57a21.85,21.85,0,0,0,5,.76,3.89,3.89,0,0,0,2.51-.62,4,4,0,0,0,.37-1.66q0-2.09-2.44-3.82a13.93,13.93,0,0,0-3.25-.49A3.34,3.34,0,0,0,44.38,21.07ZM79.81,64.23l-2.07-2.57-3.26,1.25q-2.37,3.81-2.37,5.76a2.66,2.66,0,0,0,.15.9,4.29,4.29,0,0,0,2.67,1,6.19,6.19,0,0,0,3.55-1.32,8.37,8.37,0,0,0,1.55-4A2.1,2.1,0,0,0,79.81,64.23Zm12.42-38-3.62,4.58a1.09,1.09,0,0,0-.22.7,6.67,6.67,0,0,0,1.4,3.19,5,5,0,0,0,3,.9,13.93,13.93,0,0,0,6.73-2.29,5.72,5.72,0,0,0,.45-2.15c0-1.67-.92-3.15-2.74-4.44l-1.33-1a1.54,1.54,0,0,0-1-.28A6.68,6.68,0,0,0,92.23,26.27ZM99.33,78c0,3.23,2,4.85,6.07,4.85h1.7q4.37-2,4.36-6.45c0-1.48-2.58-2.82-7.76-4A5.27,5.27,0,0,0,99.33,78Z"/><path class="cls-1" d="M58.54.24q18,0,43.13,15.34,18.12,18.6,18.12,37.26V57.7q0,31-37.13,45.38A68,68,0,0,1,62,106.27H59.36q-33.07,0-51.78-23.45Q-.19,72.2-.19,56.87q0-24.36,31.07-47.74A56.32,56.32,0,0,1,58.54.24ZM16.16,39.73Q17,46.39,17.93,47a9.23,9.23,0,0,0,5.26,2,6.34,6.34,0,0,0,5-2.84,18.65,18.65,0,0,0,.59-4.3c0-2.27-.67-3.86-2-4.79a7.09,7.09,0,0,0-4.07-1.46Q19.34,35.63,16.16,39.73ZM33.47,81.15q3.91,7.36,7.76,7.36a5.38,5.38,0,0,0,4.37-5.69q0-3.88-5.18-7.29H36.94Q33.48,76.85,33.47,81.15Zm2.88-66.06-2.07,2.64,2.15,2.57a21.86,21.86,0,0,0,5,.76,4,4,0,0,0,2.52-.62,4.2,4.2,0,0,0,.37-1.67c0-1.39-.82-2.66-2.44-3.82a13.92,13.92,0,0,0-3.26-.48A3.42,3.42,0,0,0,36.35,15.09ZM71.78,58.25l-2.07-2.56-3.25,1.24q-2.37,3.82-2.37,5.76a2.67,2.67,0,0,0,.15.91,4.32,4.32,0,0,0,2.66,1,6.14,6.14,0,0,0,3.55-1.32,8.37,8.37,0,0,0,1.56-4A2,2,0,0,0,71.78,58.25ZM84.21,20.3l-3.62,4.58a1,1,0,0,0-.23.69,6.58,6.58,0,0,0,1.41,3.19,5,5,0,0,0,3,.91,14.08,14.08,0,0,0,6.73-2.29,5.91,5.91,0,0,0,.44-2.16q0-2.49-2.73-4.44l-1.34-1a1.56,1.56,0,0,0-1-.28A6.64,6.64,0,0,0,84.21,20.3ZM91.31,72q0,4.86,6.07,4.86h1.7q4.36-2,4.36-6.45c0-1.48-2.59-2.83-7.76-4A5.27,5.27,0,0,0,91.31,72Z"/><path class="cls-2" d="M70,69.17a5.3,5.3,0,0,0,8-4.43l.43-27a5.3,5.3,0,0,0-7.88-4.69L59.09,39.4A7.75,7.75,0,0,0,53.59,37L37.11,36.6a7.73,7.73,0,0,0-7.92,7.53L28.88,58.5a7.74,7.74,0,0,0,7.59,7.87L53,66.72a7.75,7.75,0,0,0,6.75-3.65L70,69.17"/><path class="cls-3" d="M83.06,32.91c8.3,0,15.06,7.75,15.09,17.37s-6.68,17.45-15,17.47"/><path class="cls-3" d="M81.57,38.88c5.82,0,10.55,5.54,10.57,12.42S87.46,63.76,81.65,63.78"/><path class="cls-3" d="M88.56,29.9c8.59,0,15.58,9.32,15.61,20.86s-6.89,20.93-15.48,21"/></svg>
