<svg id="Layer_1" data-name="Layer 1" xmlns="http://www.w3.org/2000/svg" width="127.63" height="112.49" viewBox="0 0 127.63 112.49"><defs><style>.cls-1{fill:#bf7b00;}.cls-2{fill:#fff;}</style></defs><title>musik</title><path d="M66.57,5.77q18,0,43.12,15.47Q127.81,40,127.81,58.84v4.9q0,31.29-37.13,45.78A67.44,67.44,0,0,1,70,112.74H67.38q-33.06,0-51.78-23.66Q7.83,78.37,7.84,62.9q0-24.57,31.06-48.17A56,56,0,0,1,66.57,5.77ZM24.18,45.61c.59,4.48,1.19,6.93,1.78,7.35a9.15,9.15,0,0,0,5.25,2,6.35,6.35,0,0,0,5-2.87,19,19,0,0,0,.59-4.34c0-2.29-.66-3.9-2-4.83a7,7,0,0,0-4.06-1.47C28.5,41.48,26.3,42.85,24.18,45.61ZM41.49,87.4q3.91,7.42,7.77,7.42a5.4,5.4,0,0,0,4.36-5.74q0-3.92-5.18-7.35H45Q41.49,83.07,41.49,87.4Zm2.89-66.65-2.07,2.66L44.45,26a21.41,21.41,0,0,0,5,.77,3.89,3.89,0,0,0,2.51-.63,4.08,4.08,0,0,0,.37-1.68q0-2.1-2.44-3.85a13.93,13.93,0,0,0-3.25-.49A3.34,3.34,0,0,0,44.38,20.75ZM79.81,64.3l-2.07-2.59L74.48,63c-1.58,2.57-2.37,4.5-2.37,5.81a2.67,2.67,0,0,0,.15.91,4.3,4.3,0,0,0,2.67,1,6.14,6.14,0,0,0,3.55-1.33A8.52,8.52,0,0,0,80,65.28,2.18,2.18,0,0,0,79.81,64.3ZM92.23,26l-3.62,4.62a1.09,1.09,0,0,0-.22.7,6.75,6.75,0,0,0,1.4,3.22,4.91,4.91,0,0,0,3,.92,13.92,13.92,0,0,0,6.73-2.32A5.78,5.78,0,0,0,99.93,31c0-1.68-.92-3.17-2.74-4.48l-1.33-1a1.61,1.61,0,0,0-1-.28A6.73,6.73,0,0,0,92.23,26Zm7.1,52.16c0,3.27,2,4.9,6.07,4.9h1.7a6.77,6.77,0,0,0,4.36-6.51c0-1.49-2.58-2.85-7.76-4.06A5.31,5.31,0,0,0,99.33,78.16Z"/><path class="cls-1" d="M58.54-.26q18,0,43.13,15.48Q119.79,34,119.79,52.81v4.9q0,31.29-37.13,45.79A67.74,67.74,0,0,1,62,106.72H59.36q-33.07,0-51.78-23.67Q-.19,72.34-.19,56.87q0-24.57,31.07-48.16A55.92,55.92,0,0,1,58.54-.26ZM16.16,39.58q.89,6.72,1.77,7.35a9.2,9.2,0,0,0,5.26,2,6.35,6.35,0,0,0,5-2.87,19,19,0,0,0,.59-4.34q0-3.44-2-4.83a7,7,0,0,0-4.07-1.47Q19.34,35.45,16.16,39.58ZM33.47,81.37q3.91,7.42,7.76,7.42a5.41,5.41,0,0,0,4.37-5.74q0-3.92-5.18-7.35H36.94Q33.48,77,33.47,81.37Zm2.88-66.64-2.07,2.66L36.43,20a22,22,0,0,0,5,.77,3.92,3.92,0,0,0,2.52-.63,4.25,4.25,0,0,0,.37-1.68c0-1.4-.82-2.69-2.44-3.85a13.49,13.49,0,0,0-3.26-.49A3.36,3.36,0,0,0,36.35,14.73ZM71.78,58.27l-2.07-2.59-3.25,1.26q-2.37,3.86-2.37,5.81a2.67,2.67,0,0,0,.15.91,4.21,4.21,0,0,0,2.66,1,6.09,6.09,0,0,0,3.55-1.33A8.45,8.45,0,0,0,72,59.25,2.06,2.06,0,0,0,71.78,58.27ZM84.21,20,80.59,24.6a1.07,1.07,0,0,0-.23.7,6.73,6.73,0,0,0,1.41,3.22,5,5,0,0,0,3,.91,13.92,13.92,0,0,0,6.73-2.31A6,6,0,0,0,91.9,25c0-1.68-.91-3.18-2.73-4.48l-1.34-1a1.5,1.5,0,0,0-1-.28A6.48,6.48,0,0,0,84.21,20Zm7.1,52.15q0,4.91,6.07,4.9h1.7a6.77,6.77,0,0,0,4.36-6.51q0-2.23-7.76-4.06A5.31,5.31,0,0,0,91.31,72.13Z"/><path class="cls-2" d="M89.69,27l-19.08-4.3a2.69,2.69,0,0,0-1.24-.46l-3.06-.3a2.37,2.37,0,0,0-2.65,1.9L59.48,58.08a33.39,33.39,0,0,0-11.23,1.47C37.19,62.92,30.19,70.8,32.62,77.16S46,85.94,57,82.57,75.09,71.32,72.66,65a9.77,9.77,0,0,0-5.46-5.19l3.45-28.25,16.7,3.76c2.55.58,3.92,15,5.82-3.1A4.29,4.29,0,0,0,89.69,27Z"/></svg>
