<svg id="Layer_1" data-name="Layer 1" xmlns="http://www.w3.org/2000/svg" width="337.03" height="318.75" viewBox="0 0 337.03 318.75"><defs><style>.cls-1{fill:#bf7b00;}.cls-2{fill:#ee7fff;}.cls-3{fill:#fff;}</style></defs><title>play</title><path class="cls-1" d="M165-.12q50.7,0,121.13,46.13Q337,102,337,158.12v14.62q0,93.31-104.3,136.53a179.4,179.4,0,0,1-58.18,9.61h-7.27q-92.88,0-145.44-70.57Q0,216.38,0,170.23,0,97,87.28,26.6,123.85,2,165-.12Zm-119,118.78q2.51,20.06,5,21.93,7.89,6,14.75,6,7.89,0,14.13-8.56a59.07,59.07,0,0,0,1.66-12.94q0-10.23-5.61-14.41-5.82-4.38-11.43-4.38Q54.86,106.35,45.93,118.66ZM94.55,243.3q11,22.13,21.82,22.13,12.25-3.56,12.26-17.12,0-11.69-14.55-21.92h-9.76Q94.54,230.37,94.55,243.3Zm8.1-198.75-5.81,7.94,6,7.72a58.1,58.1,0,0,0,13.92,2.3c3.33,0,5.68-.63,7.07-1.88a13,13,0,0,0,1-5q0-6.27-6.86-11.49a36.26,36.26,0,0,0-9.14-1.46C106.11,42.67,104,43.3,102.65,44.55Zm99.53,129.86-5.82-7.73-9.14,3.76q-6.66,11.49-6.65,17.33a8.46,8.46,0,0,0,.41,2.71,11.56,11.56,0,0,0,7.48,2.92q4.78,0,10-4,4.35-7.51,4.36-12.11A6.54,6.54,0,0,0,202.18,174.41Zm34.9-114.2L226.9,74a3.37,3.37,0,0,0-.62,2.09q0,3.33,3.94,9.6a13.26,13.26,0,0,0,8.31,2.71q7.91,0,18.91-6.89A18.45,18.45,0,0,0,258.69,75q0-7.52-7.69-13.36l-3.74-2.92a4.15,4.15,0,0,0-2.7-.84C242.62,57.91,240.12,58.68,237.08,60.21ZM257,215.74q0,14.63,17,14.62h4.78q12.26-6.06,12.26-19.42,0-6.67-21.82-12.11Q257,202.18,257,215.74Z"/><path class="cls-2" d="M166.36,68.13q28,0,66.82,25.45,28.08,30.87,28.08,61.85v8.06q0,51.48-57.54,75.32a99.11,99.11,0,0,1-32.09,5.3h-4q-51.24,0-80.23-38.93-12-17.62-12-43.07,0-40.43,48.14-79.24Q143.67,69.28,166.36,68.13Zm-65.68,65.53q1.38,11.06,2.75,12.09c2.9,2.23,5.62,3.34,8.14,3.34q4.35,0,7.79-4.72a32.79,32.79,0,0,0,.92-7.14q0-5.64-3.09-7.95a10.55,10.55,0,0,0-6.31-2.42Q105.62,126.86,100.68,133.66Zm26.82,68.76q6.08,12.2,12,12.2,6.75-2,6.76-9.44,0-6.45-8-12.09h-5.38Q127.51,195.28,127.5,202.42ZM132,92.77l-3.21,4.38,3.33,4.26a31.61,31.61,0,0,0,7.68,1.27,5.77,5.77,0,0,0,3.89-1,7.2,7.2,0,0,0,.58-2.76c0-2.3-1.27-4.42-3.79-6.34a20.23,20.23,0,0,0-5-.8A5,5,0,0,0,132,92.77Zm54.9,71.64-3.21-4.26-5,2.07q-3.68,6.33-3.67,9.56a4.81,4.81,0,0,0,.23,1.5,6.42,6.42,0,0,0,4.13,1.61,9.18,9.18,0,0,0,5.5-2.19c1.6-2.76,2.41-5,2.41-6.68A3.57,3.57,0,0,0,186.87,164.41Zm19.26-63-5.62,7.6a1.88,1.88,0,0,0-.34,1.16c0,1.22.72,3,2.18,5.29a7.26,7.26,0,0,0,4.58,1.5q4.35,0,10.43-3.8a10.17,10.17,0,0,0,.69-3.57c0-2.76-1.42-5.22-4.24-7.37l-2.07-1.61a2.27,2.27,0,0,0-1.49-.46A9.82,9.82,0,0,0,206.13,101.41Zm11,85.8q0,8.07,9.4,8.07h2.64q6.75-3.34,6.76-10.72,0-3.67-12-6.68Q217.13,179.73,217.13,187.21Z"/><path class="cls-3" d="M238.06,176.59l-83.38,45.54a16.39,16.39,0,0,1-24.25-14.39V116.66a16.39,16.39,0,0,1,24.25-14.39l83.38,45.54A16.39,16.39,0,0,1,238.06,176.59Z"/></svg>
