<svg id="Layer_1" data-name="Layer 1" xmlns="http://www.w3.org/2000/svg" width="409.36" height="301.79" viewBox="0 0 409.36 301.79"><defs><style>.cls-1{fill:#bf7b00;}.cls-2{fill:#6a4400;stroke:#7f4e00;}.cls-2,.cls-3{stroke-miterlimit:10;}.cls-3{fill:none;stroke:#000;stroke-width:80px;}.cls-4{fill:#fff;}.cls-5{fill:#aa0400;}</style></defs><title>Ræv</title><path class="cls-1" d="M343.58,175.67C340,143,391.1,53,351.89,38.82,317.05,26.24,217.06,158.1,217.06,191s43.12,75.5,80.19,75.5S351.89,252.35,343.58,175.67Z"/><path class="cls-1" d="M211.56,268.86H182.22c-35.44,0-35.44-15.39-35.44-34.21V195.72c0-18.81,15.95-34.21,35.44-34.21h29.34c19.49,0,35.44,15.4,35.44,34.21v38.93C247,253.47,247,268.86,211.56,268.86Z"/><path class="cls-2" d="M332.55,89.55C316.61,190.92,229,141,198.11,89.55c-21.15-35.23-101.44,61.7-101.44,33S202.37,7,244.56,7,337,61.56,332.55,89.55Z"/><path class="cls-3" d="M127.23,82.47c47.3,31,69.66,51.24,69.66,103.81"/><polygon class="cls-1" points="45.34 -0.11 97.89 24.67 61.07 42.3 45.34 -0.11"/><polygon class="cls-1" points="49.68 34.38 50 90.28 -0.32 62.59 49.68 34.38"/><ellipse class="cls-1" cx="88.73" cy="62.42" rx="55" ry="41.88"/><polygon class="cls-1" points="151.56 85.24 127.06 82.73 141.56 63.51 151.56 85.24"/><polygon class="cls-1" points="140.58 101.89 117.48 93.62 136.45 78.45 140.58 101.89"/><polygon class="cls-1" points="120.4 111.33 101.62 95.93 124.83 87.94 120.4 111.33"/><polygon points="1.21 62.87 12.34 56.52 12.86 68.29 1.21 62.87"/><path class="cls-1" d="M158.26,10.75,136,62.94,124,42.88q-4.27-7.16-8.56-14.31Z"/><path class="cls-4" d="M155.29,16,136.84,54.17c-1.9-1.37-8.34-6.38-8.41-14.06C128.34,30.06,139.22,18.88,155.29,16Z"/><polygon points="112.56 31.75 98.28 38.59 98.55 39.12 112.83 32.28 112.56 31.75"/><polygon points="68.48 27.44 81.77 36.78 82 36.46 68.72 27.13 68.48 27.44"/><path d="M88.12,54.75c0,8.14-10.4,14.74-23.23,14.74S38,52.53,33.12,45.9C27,37.64,45.34,36.46,64.89,40,81.23,43,88.12,46.6,88.12,54.75Z"/><polyline points="33.12 40 53.9 40 67.34 51.8"/><path d="M144.34,68.31c0,8.15-22.62,7.08-35.45,7.08S79.56,71.74,79.56,63.6s16.51-17.7,29.33-17.7S144.34,60.17,144.34,68.31Z"/><ellipse class="cls-5" cx="55.73" cy="52.98" rx="3.55" ry="10.36" transform="translate(-9.7 93.38) rotate(-75.24)"/><ellipse class="cls-5" cx="102.17" cy="62.42" rx="3.55" ry="10.36" transform="translate(15.79 145.32) rotate(-75.24)"/><path class="cls-4" d="M357.41,117.6c1.89-54.17,53.09-52.67,52.26-66.55-1.38-23-62.38-46.56-89.58.56"/><polygon class="cls-4" points="357.91 117.06 338.44 125.48 350.04 97.93 357.91 117.06"/><polygon class="cls-4" points="350.57 98.19 331.1 106.6 342.7 79.05 350.57 98.19"/><rect class="cls-1" x="205.45" y="252.35" width="28.11" height="49.55" rx="8.5" ry="8.5"/><rect class="cls-1" x="166.34" y="251.17" width="29.33" height="49.55" rx="8.5" ry="8.5" transform="translate(362 551.88) rotate(180)"/></svg>
