<svg id="Layer_1" data-name="Layer 1" xmlns="http://www.w3.org/2000/svg" width="1920" height="1080" viewBox="0 0 1920 1080"><defs><style>.cls-1{fill:#d8d0ff;}.cls-2{fill:#426205;}.cls-3{fill:#7abf5f;}.cls-4{fill:#688137;}.cls-5{fill:#eebfff;}.cls-6{fill:#553900;}.cls-7{fill:#a79b69;}.cls-8{fill:#dddbcc;}.cls-9{fill:#7f4b00;}.cls-10{fill:#bfbc66;}.cls-11{fill:#d4d399;}.cls-12{fill:#816006;}.cls-13{fill:#ac8109;}.cls-14{fill:#3200ff;}.cls-15{fill:#3f90ff;}.cls-16{fill:#aa002d;}.cls-17{fill:#ff6ade;}.cls-18{fill:#55bcff;}.cls-19{fill:#ffe12a;}.cls-20{fill:#7c7f00;}.cls-21{fill:#ffb494;stroke:#bf4200;}.cls-21,.cls-29{stroke-miterlimit:10;}.cls-22{fill:#ffe9fb;}.cls-23{fill:#fff;}.cls-24{fill:#94dbff;}.cls-25{fill:#ffe93f;}.cls-26{fill:#ffbfc7;}.cls-27{fill:#bf0a00;}.cls-28{fill:#ff8c88;}.cls-29{fill:none;stroke:#000;stroke-width:6px;}</style></defs><title>Artboard 24</title><rect class="cls-1" width="1920" height="1080"/><path class="cls-2" d="M30.9,884.64c1-296.27,3.42-520,302.2-519s966.72,205.48,965.72,501.74"/><path class="cls-3" d="M1894.89,1078H26.11A29.14,29.14,0,0,1-3,1049V703c0-16,13.1-29,2-32l1521.52,21c43.11,3,403.47-5,403.47,11v346A29.14,29.14,0,0,1,1894.89,1078Z"/><rect x="581.97" y="134.9" width="3.33" height="165.01" transform="translate(-34.45 140.84) rotate(-13.37)"/><path class="cls-4" d="M1929.51,822.22C1943,534.82,1951.44,317.7,1639.07,303S618.47,451.73,605,739.14"/><ellipse class="cls-5" cx="1609.39" cy="237.52" rx="31.11" ry="20.12" transform="translate(851.24 1676.88) rotate(-70.62)"/><ellipse class="cls-5" cx="1600.2" cy="284.65" rx="31.11" ry="20.12" transform="translate(800.63 1699.69) rotate(-70.62)"/><ellipse class="cls-5" cx="1600.2" cy="192.04" rx="31.11" ry="20.12" transform="translate(887.99 1637.82) rotate(-70.62)"/><ellipse class="cls-5" cx="1532.03" cy="235.03" rx="88.09" ry="128.16"/><polygon class="cls-6" points="1514.41 346.66 1548.11 346.66 1531.26 431 1514.41 346.66"/><ellipse class="cls-5" cx="1468.45" cy="307.8" rx="20.39" ry="30.69" transform="translate(51.88 802.19) rotate(-31.08)"/><ellipse class="cls-5" cx="1452.36" cy="256.53" rx="20.13" ry="31.08" transform="translate(1.01 518.73) rotate(-20.26)"/><ellipse class="cls-5" cx="1459.13" cy="208.99" rx="18.93" ry="28.54" transform="translate(-9.25 337.83) rotate(-13.17)"/><ellipse class="cls-5" cx="1581.05" cy="324.34" rx="30.61" ry="20.44" transform="translate(447.55 1473.28) rotate(-56.98)"/><ellipse class="cls-5" cx="1521.3" cy="120.1" rx="20.25" ry="30.91" transform="translate(94.36 661.04) rotate(-25.28)"/><ellipse class="cls-5" cx="1489.13" cy="140.77" rx="19.97" ry="31.33" transform="translate(-1.69 262.34) rotate(-10.06)"/><ellipse class="cls-5" cx="1473.81" cy="171.37" rx="20.39" ry="30.69" transform="translate(123.08 785.37) rotate(-31.08)"/><ellipse class="cls-5" cx="1584.12" cy="162.27" rx="31.11" ry="20.12" transform="translate(905.33 1602.76) rotate(-70.62)"/><ellipse class="cls-5" cx="1565.73" cy="140.77" rx="31.11" ry="20.12" transform="translate(913.32 1571.05) rotate(-70.62)"/><ellipse class="cls-5" cx="1542.75" cy="120.1" rx="31.11" ry="20.12" transform="translate(917.47 1535.56) rotate(-70.62)"/><ellipse class="cls-5" cx="1779.39" cy="398.52" rx="31.11" ry="20.12" transform="translate(812.94 1944.81) rotate(-70.62)"/><ellipse class="cls-5" cx="1770.2" cy="445.65" rx="31.11" ry="20.12" transform="translate(762.34 1967.63) rotate(-70.62)"/><ellipse class="cls-5" cx="1770.2" cy="353.04" rx="31.11" ry="20.12" transform="translate(849.7 1905.75) rotate(-70.62)"/><ellipse class="cls-5" cx="1702.03" cy="396.03" rx="88.09" ry="128.16"/><polygon class="cls-6" points="1684.41 507.66 1718.11 507.66 1701.26 592 1684.41 507.66"/><ellipse class="cls-5" cx="1638.45" cy="468.8" rx="20.39" ry="30.69" transform="translate(-6.83 913.05) rotate(-31.08)"/><ellipse class="cls-5" cx="1622.36" cy="417.53" rx="20.13" ry="31.08" transform="translate(-44.22 587.55) rotate(-20.26)"/><ellipse class="cls-5" cx="1629.13" cy="369.99" rx="18.93" ry="28.54" transform="translate(-41.45 380.78) rotate(-13.17)"/><ellipse class="cls-5" cx="1751.05" cy="485.34" rx="30.61" ry="20.44" transform="translate(389.91 1689.09) rotate(-56.98)"/><ellipse class="cls-5" cx="1691.3" cy="281.1" rx="20.25" ry="30.91" transform="translate(41.89 749.04) rotate(-25.28)"/><ellipse class="cls-5" cx="1659.13" cy="301.77" rx="19.97" ry="31.33" transform="translate(-27.21 294.52) rotate(-10.06)"/><ellipse class="cls-5" cx="1643.81" cy="332.37" rx="20.39" ry="30.69" transform="translate(64.37 896.23) rotate(-31.08)"/><ellipse class="cls-5" cx="1754.12" cy="323.27" rx="31.11" ry="20.12" transform="translate(867.03 1870.69) rotate(-70.62)"/><ellipse class="cls-5" cx="1735.73" cy="301.77" rx="31.11" ry="20.12" transform="translate(875.03 1838.99) rotate(-70.62)"/><ellipse class="cls-5" cx="1712.75" cy="281.1" rx="31.11" ry="20.12" transform="translate(879.17 1803.5) rotate(-70.62)"/><ellipse class="cls-5" cx="1469.39" cy="374.52" rx="31.11" ry="20.12" transform="translate(628.46 1636.34) rotate(-70.62)"/><ellipse class="cls-5" cx="1460.2" cy="421.65" rx="31.11" ry="20.12" transform="translate(577.86 1659.16) rotate(-70.62)"/><ellipse class="cls-5" cx="1460.2" cy="329.04" rx="31.11" ry="20.12" transform="translate(665.22 1597.29) rotate(-70.62)"/><ellipse class="cls-5" cx="1392.03" cy="372.03" rx="88.09" ry="128.16"/><polygon class="cls-6" points="1374.41 483.66 1408.11 483.66 1391.26 568 1374.41 483.66"/><ellipse class="cls-5" cx="1328.45" cy="444.8" rx="20.39" ry="30.69" transform="translate(-38.93 749.58) rotate(-31.08)"/><ellipse class="cls-5" cx="1312.36" cy="393.53" rx="20.13" ry="31.08" transform="translate(-55.08 478.73) rotate(-20.26)"/><ellipse class="cls-5" cx="1319.13" cy="345.99" rx="18.93" ry="28.54" transform="translate(-44.13 309.54) rotate(-13.17)"/><ellipse class="cls-5" cx="1441.05" cy="461.34" rx="30.61" ry="20.44" transform="translate(268.96 1418.24) rotate(-56.98)"/><ellipse class="cls-5" cx="1381.3" cy="257.1" rx="20.25" ry="30.91" transform="translate(22.46 614.38) rotate(-25.28)"/><ellipse class="cls-5" cx="1349.13" cy="277.77" rx="19.97" ry="31.33" transform="translate(-27.78 239.99) rotate(-10.06)"/><ellipse class="cls-5" cx="1333.81" cy="308.37" rx="20.39" ry="30.69" transform="translate(32.26 732.77) rotate(-31.08)"/><ellipse class="cls-5" cx="1444.12" cy="299.27" rx="31.11" ry="20.12" transform="translate(682.55 1562.23) rotate(-70.62)"/><ellipse class="cls-5" cx="1425.73" cy="277.77" rx="31.11" ry="20.12" transform="translate(690.55 1530.52) rotate(-70.62)"/><ellipse class="cls-5" cx="1402.75" cy="257.1" rx="31.11" ry="20.12" transform="translate(694.69 1495.03) rotate(-70.62)"/><rect class="cls-7" x="150" y="704" width="236" height="208" rx="29" ry="29"/><ellipse class="cls-8" cx="268.5" cy="711" rx="151.5" ry="44"/><ellipse class="cls-8" cx="269" cy="663" rx="135" ry="44"/><ellipse class="cls-8" cx="269.5" cy="614" rx="106.5" ry="44"/><path class="cls-8" d="M331,569.5c0-24.58,17-97.5,3-69.5-15.31,30.63-127,44.92-127,69.5S234.76,614,269,614,331,594.08,331,569.5Z"/><path class="cls-9" d="M1460.54,765h0"/><path class="cls-10" d="M294,917h38V883.44c-12.68.08-25.36.42-38,.61Z"/><path class="cls-11" d="M294,856v28c12.64-.19,25.32-.53,38-.61V856Z"/><path class="cls-11" d="M332,883.44V917h6.8A16.25,16.25,0,0,0,355,900.8V883.7C347.35,883.45,339.68,883.4,332,883.44Z"/><path class="cls-10" d="M355,883.7V856H332v27.44C339.68,883.4,347.35,883.45,355,883.7Z"/><path class="cls-10" d="M294,759v26h38V757H289.2A16.25,16.25,0,0,0,273,773.2V785h21Z"/><path class="cls-10" d="M294,808h0V785H273v47h21Z"/><path class="cls-11" d="M273,884.13V900.8A16.25,16.25,0,0,0,289.2,917H294v-33C287,884.15,280,884.2,273,884.13Z"/><path class="cls-10" d="M268,858c5.67,0,20.33-2,26-2V832H273v52.13c7,.07,14,0,21-.08V856C288.33,856,273.67,858,268,858Z"/><path class="cls-11" d="M294,785v23h38V785Z"/><path class="cls-10" d="M332,785v23h23V785Z"/><path class="cls-11" d="M355,773.2A16.25,16.25,0,0,0,338.8,757H332v28h23Z"/><path class="cls-10" d="M355,808H332v24h23Z"/><path class="cls-11" d="M332,832v24h23V832Z"/><path class="cls-10" d="M332,808H294v24h38Z"/><path class="cls-10" d="M294,832v24h38V832Z"/><rect x="457.97" y="189.9" width="3.33" height="165.01" transform="translate(-73.8 302.65) rotate(-33.9)"/><path class="cls-12" d="M514.93,321.66c-5.06,1-10.17,1.76-15.32,2.32-1.2.59-2.42,1.15-3.65,1.7a24.47,24.47,0,0,0-2,2.87,27.77,27.77,0,0,0,9-2.55Q509,323.78,514.93,321.66Z"/><path class="cls-12" d="M497.18,324.24c-.43.46-.83.95-1.22,1.44,1.23-.55,2.45-1.11,3.65-1.7Z"/><path class="cls-12" d="M557,307.76c1.76-.54,3.53-1.09,5.3-1.62q10.49-4.9,21-9.88,7.72-7.1,15.56-14c-1.25.32-2.48.66-3.71,1A179.27,179.27,0,0,1,557,307.76Z"/><path class="cls-12" d="M613.29,265.77a182.74,182.74,0,0,1-18.19,17.5c1.23-.36,2.46-.7,3.71-1,5.87-5.17,11.81-10.24,17.87-15.13A25.46,25.46,0,0,0,613.29,265.77Z"/><path class="cls-12" d="M564,286c14.89-6.27,28.55-14.37,42.91-21.44A26.12,26.12,0,0,0,592.12,268l-88.74,51.23a26.18,26.18,0,0,0-6.2,5l2.43-.26C521.93,313,540.51,294.61,564,286Z"/><path class="cls-12" d="M557,307.76a179.27,179.27,0,0,0,38.11-24.49c-21.2,6.2-40.12,18.26-58.74,31.05Q546.65,310.93,557,307.76Z"/><path class="cls-13" d="M613.29,265.77a26.55,26.55,0,0,0-6.38-1.21c-14.36,7.07-28,15.17-42.91,21.44-23.49,8.61-42.07,27-64.39,38,5.15-.56,10.26-1.32,15.32-2.32q10.7-3.81,21.43-7.34c18.62-12.79,37.54-24.85,58.74-31.05A182.74,182.74,0,0,0,613.29,265.77Z"/><path class="cls-12" d="M562.29,306.14c-1.77.53-3.54,1.08-5.3,1.62a179,179,0,0,1-25.17,9.69l-9.59,6.65C535.68,318.4,549,312.34,562.29,306.14Z"/><path class="cls-13" d="M503,326a27.77,27.77,0,0,1-9,2.55,26.34,26.34,0,0,0-3.13,8c10.56-3.84,21-8,31.39-12.43l9.59-6.65q-8.34,2.52-16.89,4.21Q509,323.79,503,326Z"/><path class="cls-12" d="M557,307.76q-10.34,3.17-20.63,6.56l-4.54,3.13A179,179,0,0,0,557,307.76Z"/><path class="cls-12" d="M531.82,317.45l4.54-3.13q-10.73,3.54-21.43,7.34Q523.48,320,531.82,317.45Z"/><path class="cls-12" d="M577.37,301.7c2-1.82,3.91-3.63,5.88-5.44q-10.47,5-21,9.88Q569.82,303.86,577.37,301.7Z"/><path class="cls-13" d="M528.75,337q9.79-4,19.42-8.4c9.87-8.9,19.53-18,29.2-26.9q-7.56,2.16-15.08,4.44c-13.28,6.2-26.61,12.26-40.06,18-6.43,4.44-12.89,8.81-19.46,12.9Z"/><path class="cls-12" d="M490.74,337h12c6.57-4.09,13-8.46,19.46-12.9-10.38,4.4-20.83,8.59-31.39,12.43C490.81,336.69,490.77,336.84,490.74,337Z"/><path class="cls-12" d="M533.36,337q6.27-3.15,12.53-6.34l2.28-2.06q-9.63,4.41-19.42,8.4Z"/><path class="cls-12" d="M491.58,350.22c12.62-3.79,25-8.25,37.17-13.22h-26c-4.08,2.55-8.21,5-12.4,7.25A26.37,26.37,0,0,0,491.58,350.22Z"/><path class="cls-12" d="M490.37,344.25c4.19-2.27,8.32-4.7,12.4-7.25h-12A25.88,25.88,0,0,0,490.37,344.25Z"/><path class="cls-12" d="M491.58,350.22a26.43,26.43,0,0,0,2.19,4.91l.44.77c13.19-6,26.22-12.4,39.15-18.9h-4.61C516.58,342,504.2,346.43,491.58,350.22Z"/><path class="cls-12" d="M626.94,275.94c-2.25,1-4.5,2-6.74,3.06h.8l-.9,0c-12.32,5.62-24.59,11.42-36.85,17.22-2,1.81-3.92,3.62-5.88,5.44q21.82-6.29,43.83-11.85c3.16-2.52,6.33-5,9.48-7.58L628,277.63C627.67,277.05,627.31,276.49,626.94,275.94Z"/><path class="cls-12" d="M620.2,279l-.1,0,.9,0Z"/><path class="cls-13" d="M548.17,328.6c24.74-11.32,48.75-24.51,72.46-38.29l.57-.46q-22,5.61-43.83,11.85C567.7,310.65,558,319.7,548.17,328.6Z"/><path class="cls-13" d="M583.25,296.26c12.26-5.8,24.53-11.6,36.85-17.22a104.94,104.94,0,0,0-21.29,3.21Q591,289.15,583.25,296.26Z"/><path class="cls-12" d="M626.12,274.82a26.07,26.07,0,0,0-9.44-7.7c-6.06,4.89-12,10-17.87,15.13A104.94,104.94,0,0,1,620.1,279l.1,0H618A72.49,72.49,0,0,1,626.12,274.82Z"/><path class="cls-12" d="M626.12,274.82A72.49,72.49,0,0,0,618,279h2.2c2.24-1,4.49-2.05,6.74-3.06C626.67,275.55,626.4,275.19,626.12,274.82Z"/><path class="cls-12" d="M545.89,330.66c22.59-11.54,45-23.36,67.64-34.66l7.1-5.69c-23.71,13.78-47.72,27-72.46,38.29Z"/><path class="cls-12" d="M621.2,289.85l.38-.09q5-2.92,10-5.88l-.93-1.61C627.53,284.81,624.36,287.33,621.2,289.85Z"/><path class="cls-12" d="M620.63,290.31l1-.55-.38.09Z"/><path class="cls-12" d="M621.58,289.76q4.78-1.23,9.59-2.42l1.9-.92-1.46-2.54Q626.6,286.84,621.58,289.76Z"/><path class="cls-12" d="M620.63,290.31l-7.1,5.69q8.79-4.39,17.64-8.66-4.8,1.2-9.59,2.42Z"/><path class="cls-13" d="M500,364c13.13-8.44,26.25-16.91,38.56-27h-5.2c-12.93,6.5-26,12.85-39.15,18.9l14.64,25.35c17.28-15.29,35-29.9,52.93-44.25H538.56C526.25,347.09,513.13,355.56,500,364Z"/><path class="cls-12" d="M515.86,393.4l1.14,2A26,26,0,0,0,528.51,406q44.7-36.14,91.55-69H582.11C559.52,355.14,537.36,373.85,515.86,393.4Z"/><path class="cls-13" d="M620.06,337q-46.89,32.83-91.55,69a26.21,26.21,0,0,0,24.37-1l4.2-2.42C589.3,381.12,620.83,359,652.49,337Z"/><path class="cls-12" d="M652.49,337c-31.66,22-63.19,44.12-95.41,65.56l84.54-48.81A26.17,26.17,0,0,0,654.05,337Z"/><path class="cls-12" d="M508.85,381.25l7,12.15c21.5-19.55,43.66-38.26,66.25-56.4H561.78C543.88,351.35,526.13,366,508.85,381.25Z"/><path class="cls-12" d="M541,335c-.81.68-1.63,1.33-2.44,2h23.22c17.19-13.78,34.53-27.32,51.75-41-22.65,11.3-45,23.12-67.64,34.66C544.26,332.11,542.64,333.56,541,335Z"/><path class="cls-12" d="M637.48,294.05c-18.66,14.06-37.15,28.32-55.37,42.95h37.95q15-10.51,30.27-20.7Z"/><path class="cls-12" d="M654.05,337c.1-.42.19-.84.26-1.26L652.49,337Z"/><path class="cls-13" d="M651.23,317.87l-.9-1.57q-15.27,10.18-30.27,20.7h32.43l1.82-1.26A26.13,26.13,0,0,0,651.23,317.87Z"/><path class="cls-12" d="M631.17,287.34l2.13-.53-.23-.39Z"/><path class="cls-13" d="M631.17,287.34q-8.85,4.26-17.64,8.66c-17.22,13.68-34.56,27.22-51.75,41h20.33c18.22-14.63,36.71-28.89,55.37-42.95l-4.18-7.24Z"/><path class="cls-12" d="M538.56,337c.81-.67,1.63-1.32,2.44-2,1.64-1.44,3.26-2.89,4.89-4.34q-6.25,3.18-12.53,6.34Z"/><ellipse class="cls-14" cx="485.69" cy="174.12" rx="102.27" ry="83.8" transform="translate(-28.32 218.88) rotate(-24.7)"/><polygon class="cls-14" points="656.21 143.2 666.58 110.88 633.79 109.99 638.02 74.18 605.32 82.6 602.91 45.21 580.05 55.52 583.69 60.88 579.48 56.1 546.07 161.75 655.96 143.93 655.97 143.94 655.97 143.92 656.73 143.8 656.21 143.2"/><polygon class="cls-14" points="324.4 193.81 307.48 221.46 340.19 231.22 328.72 263.82 363.21 264.78 358.09 300.68 383.09 297.18 380.52 291.13 383.78 296.79 438.58 206.31 324.8 193.2 324.79 193.18 324.78 193.19 323.99 193.1 324.4 193.81"/><path class="cls-15" d="M579.87,134.3c19.64,48.51-19.83,99.39-62.71,117.52"/><ellipse class="cls-16" cx="926.16" cy="663.01" rx="49.72" ry="91.99" transform="matrix(0.26, -0.97, 0.97, 0.26, 44.52, 1384.17)"/><ellipse class="cls-17" cx="1060.66" cy="565.51" rx="39.87" ry="80.53" transform="translate(238.06 1441.94) rotate(-74.88)"/><ellipse class="cls-18" cx="1207.66" cy="497.01" rx="31.66" ry="78.31" transform="translate(412.85 1533.22) rotate(-74.88)"/><path class="cls-19" d="M1231.53,660.1c10.52-45.9-23.28-139,48.54-222.82s166.53-119.83,211.54-80.54,53,171.53-48.53,222.82C1312.66,645.43,1231.35,660.9,1231.53,660.1Z"/><path class="cls-19" d="M1879.27,511C1811.46,478.11,1778,406.5,1804.52,351S1930,238.1,1975.34,310.08c58.29,92.44,40.12,245.42,39.51,245.56"/><rect class="cls-20" x="1261.82" y="642.8" width="5.62" height="135.51"/><ellipse class="cls-21" cx="1264.63" cy="601.27" rx="56.25" ry="48.09"/><path class="cls-22" d="M1292.42,721.54a41.39,41.39,0,0,0-.63-11.12c-2.72-14.14-11.91-23.41-20.51-20.71-5.88,1.84-10,8.81-11.09,17.55-19.47-5.49-35.49-4-40.32,5.25-6.94,13.27,11.92,37.47,42.12,54s60.31,19.25,67.25,6C1335.76,760,1319.49,737.91,1292.42,721.54Z"/><path class="cls-5" d="M1488.19,1099c-97.06-114,87.13-456.36,203.15-459s336.76,286.65,248,458.1"/><path class="cls-5" d="M1935.53,824.41H1829.46c8,0,2.47-11.36,2.47-25.24h0a57.17,57.17,0,0,1,9.6-31.19l111-15.14c9.51,5.94,2.73,32.44,2.73,46.33h0C1955.27,813.05,1957.12,824.41,1935.53,824.41Z"/><path class="cls-5" d="M1518,807l-73.11,13.66c-2.52-.63-20.1-8.44-38.75-14.82l-58.82-77.27c-14.81-19.46-24.9-8.71-38.78,2.38s-45,26.14-44.45,39.46l91.33,88c1.68-.21,3.6-.53,5.7-1l138.38,34.85c7.16-16,15.41-30.15,20-48.82h0C1524.09,824.77,1523.41,808.37,1518,807Z"/><ellipse class="cls-23" cx="673" cy="369" rx="584" ry="367"/><polygon class="cls-23" points="1161.6 802.29 760.47 667.3 1077.94 387.41 1161.6 802.29"/><path d="M290.15,210.39l7.06-12.3c-6.37-8.39-10.13-20.83-10.13-34.81,0-29.77,15.36-49.2,35.37-49.2a28.16,28.16,0,0,1,19.1,7.41l6.71-11.32,6,5-7.05,12c6.36,8.53,9.89,20.83,9.89,34.67,0,32.85-16.49,49.48-34.8,49.48a28.78,28.78,0,0,1-19.44-7.55l-7.16,12Zm46.51-80c-3.86-4.05-8.64-6.57-14.33-6.57-16.71,0-25.12,19-25.12,38.72a56.12,56.12,0,0,0,5.68,25.31l.11-.14Zm-28.88,64.45a17.82,17.82,0,0,0,14.33,6.7c16,0,24.9-18,24.9-39.28a54.59,54.59,0,0,0-5.34-24.46h-.35Z"/><path d="M375.09,142.18l10.8,38c1.82,6.15,3.3,11.74,4.44,17.33h.34c1.25-5.59,2.84-11.18,4.66-17.33l10.69-38h10.46l-21.6,67.65h-9.55L364.4,142.18Z"/><path d="M411.57,212.77a7.42,7.42,0,0,1,1.58-1.2,3.82,3.82,0,0,1,1.86-.44,6.78,6.78,0,0,1,4.38,1.47q1.85,1.46,1.84,4.88a8.29,8.29,0,0,1-.5,3,5.67,5.67,0,0,1-1.39,2.09,5.55,5.55,0,0,1-2,1.19,7.85,7.85,0,0,1-2.47.38,7.75,7.75,0,0,1-1.78-.24,6.85,6.85,0,0,1-1.86-.75,4.7,4.7,0,0,1-1.44-1.37,3.47,3.47,0,0,1-.58-2,16.88,16.88,0,0,1,.41-3.93A6.32,6.32,0,0,1,411.57,212.77ZM432.5,118c.51-2.46,1-4.89,1.38-7.3s.87-4.85,1.39-7.31c.22-1,.49-1.92.81-2.9a13.43,13.43,0,0,1,1.16-2.66,6.76,6.76,0,0,1,1.72-2,3.9,3.9,0,0,1,2.42-.78,4.94,4.94,0,0,1,2.05.51,4.18,4.18,0,0,1,1.73,1.4,7.34,7.34,0,0,1,.69,1.36c.24.59.47,1.22.69,1.88a19.83,19.83,0,0,1,.56,1.94,7.11,7.11,0,0,1,.22,1.57,15.69,15.69,0,0,1-.33,2.09q-.33,1.66-.84,4t-1.13,5c-.43,1.79-.83,3.5-1.2,5.11s-.71,3.08-1,4.37-.53,2.2-.64,2.7q-28.55,97.74-25,71.43t7.5-44.3Q428.62,136.19,432.5,118Z"/><path d="M302.37,356.76a52.57,52.57,0,0,1-7.05,4.71,11.22,11.22,0,0,1-5.11,1.23A6.38,6.38,0,0,1,285.6,361a11.8,11.8,0,0,1-2.78-4.3,24,24,0,0,1-1.36-5.7,50.72,50.72,0,0,1-.36-5.83,40.5,40.5,0,0,1,1.72-11.57,38,38,0,0,1,4.81-10.38,26.78,26.78,0,0,1,7.33-7.47,16.28,16.28,0,0,1,9.3-2.87,15.87,15.87,0,0,1,4.66.75,44.5,44.5,0,0,0,1.28-4.95c.4-2,.81-4.1,1.22-6.38s.81-4.61,1.22-7,.82-4.65,1.25-6.79.88-4.06,1.36-5.76a18,18,0,0,1,1.5-3.93,3.29,3.29,0,0,1,1.64-1.53,5.53,5.53,0,0,1,2-.38,5.44,5.44,0,0,1,2.78.78,9,9,0,0,1,2.36,2.05,10.54,10.54,0,0,1,1.64,2.9,9.9,9.9,0,0,1,.61,3.42,7.77,7.77,0,0,1-.14,1.46q-.15.72-.36,1.47c-.71,2.41-1.35,4.8-1.95,7.17s-1.18,4.75-1.77,7.16c-.85,3.42-1.72,7-2.58,10.82s-1.74,7.65-2.59,11.54S315.84,337,313.25,348q-1.5,5.46,2.33,3.24a23.05,23.05,0,0,0,7.28-7.33,54.31,54.31,0,0,0,5-8.81,2.58,2.58,0,0,1,2-1.43c.93.13,1.63,1.09,2.11,2.86a9,9,0,0,1-.47,5.7,46.77,46.77,0,0,1-3.11,6.35,42.77,42.77,0,0,1-5.14,6.93,30.51,30.51,0,0,1-7,5.9,14.45,14.45,0,0,1-7.55,2.29Q304.92,363.72,302.37,356.76Zm-1.83-29.62a16.85,16.85,0,0,0-2.89,3.31,26.64,26.64,0,0,0-2.44,4.36,28.88,28.88,0,0,0-1.67,4.78,18.3,18.3,0,0,0-.61,4.47,6.73,6.73,0,0,0,.22,1.54,11,11,0,0,0,.61,1.81,6.11,6.11,0,0,0,.95,1.53,1.52,1.52,0,0,0,1.16.65,1.8,1.8,0,0,0,.95-.51l.77-.65a14.92,14.92,0,0,0,3.08-4.16,40.09,40.09,0,0,0,2.56-5.84,49.57,49.57,0,0,0,1.72-6.21,26.6,26.6,0,0,0,.64-5.29q0-.48,0-1a1.75,1.75,0,0,0-.31-.92l-.22-.14a4.63,4.63,0,0,0-2.38.79A17.13,17.13,0,0,0,300.54,327.14Z"/><path d="M341.29,318.19a13.93,13.93,0,0,1-.7,3c-.46,1.55-1,3.35-1.63,5.42s-1.29,4.27-2,6.59-1.25,4.49-1.7,6.52a31.09,31.09,0,0,0-.75,5.22q-.07,2.19.75,2.73a2,2,0,0,0,1.17.34,3.45,3.45,0,0,0,2.66-1.81,23.56,23.56,0,0,0,2.45-4.67q1.15-2.87,2.22-6.45t1.94-7.17q.88-3.59,1.55-6.76c.45-2.11.82-3.88,1.11-5.29.08-.36.15-.74.23-1.12a10.34,10.34,0,0,1,.27-1.13,11.27,11.27,0,0,1,.48-1.54,4.29,4.29,0,0,1,.8-1.33,6.11,6.11,0,0,1,1.58-1.29,15.53,15.53,0,0,1,2.2-1.09,20.49,20.49,0,0,1,2.27-.79,7.52,7.52,0,0,1,1.89-.31,3.18,3.18,0,0,1,2.33.93,3.58,3.58,0,0,1,.95,2.69,14.75,14.75,0,0,1-.36,2.9c-.25,1.16-.54,2.37-.89,3.62s-.72,2.46-1.09,3.62-.66,2.15-.88,3c-1.08,3.54-2.1,7.12-3.09,10.71s-1.91,7.21-2.8,10.85a11.71,11.71,0,0,0-.39,2.84c0,.57.21.85.5.85s.8-.34,1.39-1,1.26-1.55,2-2.6,1.53-2.19,2.36-3.44,1.64-2.48,2.41-3.69,1.5-2.3,2.17-3.28a24.05,24.05,0,0,1,1.61-2.15,1.15,1.15,0,0,1,.67-.34c.48,0,.92.34,1.33,1a4,4,0,0,1,.61,2,9.64,9.64,0,0,1-.94,3.49,48.68,48.68,0,0,1-2.42,4.74q-1.47,2.57-3.28,5.25t-3.58,5.09q-1.77,2.38-3.33,4.2a21.25,21.25,0,0,1-2.5,2.56,8,8,0,0,1-5.33,2q-4.55-1.64-3.88-9.07-4.17,6.21-9.52,6.65t-7.69-6.38q-2.34-6.83.27-17.64c1.74-7.22,2.78-11.41,3.11-12.6s.5-1.8.5-1.84a22.79,22.79,0,0,1,.83-2.87,7.87,7.87,0,0,1,1.45-2.45,14,14,0,0,1,3-2.53,6.68,6.68,0,0,1,3.53-1,3.94,3.94,0,0,1,2.94,1.2A4.83,4.83,0,0,1,341.29,318.19Z"/><path d="M403.14,335.8a49.07,49.07,0,0,0-5.22,13.11q-1.17,5.67-1.44,6.55a4.1,4.1,0,0,1-1,1.54,6.88,6.88,0,0,1-1.55,1.19,8.87,8.87,0,0,1-1.75.75,5.48,5.48,0,0,1-1.55.28,4,4,0,0,1-2.95-1.16,4.86,4.86,0,0,1-1.16-3.55,29.68,29.68,0,0,1,.5-4.71q.49-3,3.22-15.5T394.12,319a8.47,8.47,0,0,1,3.77-4.3,3.53,3.53,0,0,1,4.61.41c1.31,1.28,1.58,3.73.8,7.37a37.56,37.56,0,0,1,6.47-8.25,26.28,26.28,0,0,1,8.47-5.94,4.59,4.59,0,0,1,4.58,1.29q1.86,1.92,1.86,5.74a19,19,0,0,1-.56,3.65q-.56,2.49-1.41,5.66t-5,18q-4.15,14.77,3.11,4.06t8.36-11.88c.72-.77,1.27-1.16,1.64-1.16a2.35,2.35,0,0,1,2.19.89,3.41,3.41,0,0,1,.39,2.15,9.36,9.36,0,0,1-.7,2.59c-.37.89-.72,1.65-1.05,2.29q-8.72,12.76-10.52,15a42.14,42.14,0,0,1-3.67,4,20.23,20.23,0,0,1-3.72,2.87,7,7,0,0,1-3.58,1.09,2.53,2.53,0,0,1-.72-.07,3.94,3.94,0,0,1-3-2.18,11.34,11.34,0,0,1-1.14-4.64q-.17-2.81,2.47-15.94t2.86-14.74c.15-1.07.07-1.61-.22-1.61s-.45.21-.78.62Q407.2,328.36,403.14,335.8Z"/><path d="M467.17,377.58l-.79-8.53H466a19.56,19.56,0,0,1-16.83,10.06c-11.14,0-16.83-9.64-16.83-19.43,0-16.35,11.83-25.3,33.09-25.16v-1.4c0-5.59-1.25-15.65-12.51-15.65a23.84,23.84,0,0,0-14.33,5l-2.27-8.11a29.55,29.55,0,0,1,18.08-6c16.83,0,20.92,14.12,20.92,27.68v25.3a117.24,117.24,0,0,0,.91,16.22Zm-1.47-34.53c-10.92-.28-23.31,2.1-23.31,15.24,0,8,4.32,11.74,9.43,11.74,7.17,0,11.72-5.59,13.31-11.32a15.61,15.61,0,0,0,.57-3.92Zm-21.49-53.26c0-7.41,4.43-13.28,11.59-13.28,6.83,0,11.26,5.73,11.26,13.14s-4.89,12.86-11.37,12.86C448.87,302.51,444.21,296.92,444.21,289.79Zm17.28-.28c0-4.19-2.28-7.69-5.91-7.69s-5.58,3.64-5.58,8c0,3.63,2.28,7.55,5.58,7.55C459.21,297.34,461.49,293.71,461.49,289.51Z"/><path d="M482.71,340.51a69.22,69.22,0,0,1,1-9.25,27.5,27.5,0,0,1,6-12.76q5-6.37,11.05-7.27t9.69,1.91q3.66,2.81,3.33,8.88a17.55,17.55,0,0,1-3.27,9.93,16,16,0,0,1-6.86,5.39,42,42,0,0,1-8.41,2.29,10.24,10.24,0,0,0-.86,2.59,12.15,12.15,0,0,0,.14,5.56q.72,3.32,4.55,2.63a19.19,19.19,0,0,0,7.8-3.55,22.34,22.34,0,0,0,6.69-8.19c.48-.73.92-1.41,1.31-2.05a15.32,15.32,0,0,1,1.22-1.74,5,5,0,0,1,1.5-1.26,3.15,3.15,0,0,1,2.11-.27,2.18,2.18,0,0,1,1.66.92,2.73,2.73,0,0,1,.36,1.6,5.86,5.86,0,0,1-.44,1.84c-.26.64-.54,1.35-.84,2.12A47.92,47.92,0,0,1,517,346.9a31.94,31.94,0,0,1-5,6.51,25.16,25.16,0,0,1-6.69,4.82,18.81,18.81,0,0,1-8.49,1.87,12.48,12.48,0,0,1-6.22-1.5,12.61,12.61,0,0,1-4.41-4.16,19.51,19.51,0,0,1-2.61-6.25A32.5,32.5,0,0,1,482.71,340.51Zm23-20.4a28.69,28.69,0,0,0-2.39,2.15c-.85.84-1.68,1.73-2.47,2.66a30.06,30.06,0,0,0-2.22,2.93c-.69,1-1.31,2-1.86,2.9a2.66,2.66,0,0,0,1.77.55,5.22,5.22,0,0,0,2.48-.75,8.06,8.06,0,0,0,2.44-2.15,11.36,11.36,0,0,0,1.75-3.52A13.2,13.2,0,0,0,505.75,320.11Z"/><path d="M534.67,356.76a51.93,51.93,0,0,1-7,4.71,11.22,11.22,0,0,1-5.11,1.23,6.35,6.35,0,0,1-4.6-1.71,11.68,11.68,0,0,1-2.78-4.3,23.1,23.1,0,0,1-1.36-5.7,50.72,50.72,0,0,1-.36-5.83,40.15,40.15,0,0,1,1.72-11.57,38.3,38.3,0,0,1,4.8-10.38,27,27,0,0,1,7.33-7.47,16.28,16.28,0,0,1,9.3-2.87,15.94,15.94,0,0,1,4.67.75,44.73,44.73,0,0,0,1.27-4.95c.41-2,.82-4.1,1.22-6.38s.82-4.61,1.23-7,.82-4.65,1.24-6.79.88-4.06,1.36-5.76a18.56,18.56,0,0,1,1.5-3.93,3.33,3.33,0,0,1,1.64-1.53,5.59,5.59,0,0,1,2-.38,5.38,5.38,0,0,1,2.77.78,8.83,8.83,0,0,1,2.36,2.05,10.29,10.29,0,0,1,1.64,2.9,9.67,9.67,0,0,1,.61,3.42,7,7,0,0,1-.14,1.46,14.27,14.27,0,0,1-.36,1.47q-1.05,3.61-1.94,7.17c-.59,2.36-1.19,4.75-1.78,7.16q-1.27,5.13-2.58,10.82t-2.58,11.54q-1.28,5.83-5.16,22.35-1.5,5.46,2.33,3.24a23,23,0,0,0,7.27-7.33,54.47,54.47,0,0,0,5-8.81c.63-.95,1.29-1.43,2-1.43.92.13,1.62,1.09,2.11,2.86a8.91,8.91,0,0,1-.48,5.7,46.65,46.65,0,0,1-3.1,6.35,42.77,42.77,0,0,1-5.14,6.93,30.56,30.56,0,0,1-7,5.9,14.4,14.4,0,0,1-7.55,2.29Q537.24,363.72,534.67,356.76Zm-1.83-29.62a17.18,17.18,0,0,0-2.89,3.31,27.4,27.4,0,0,0-2.44,4.36,28.84,28.84,0,0,0-1.66,4.78,18.3,18.3,0,0,0-.61,4.47,6.73,6.73,0,0,0,.22,1.54,10.15,10.15,0,0,0,.61,1.81,6.08,6.08,0,0,0,.94,1.53,1.54,1.54,0,0,0,1.17.65,1.78,1.78,0,0,0,.94-.51l.78-.65a15.12,15.12,0,0,0,3.08-4.16,40.06,40.06,0,0,0,2.55-5.84,48,48,0,0,0,1.73-6.21,27.26,27.26,0,0,0,.63-5.29c0-.32,0-.65,0-1a1.75,1.75,0,0,0-.31-.92l-.22-.14a4.66,4.66,0,0,0-2.39.79A18.82,18.82,0,0,0,532.84,327.14Z"/><path d="M557.1,340.51a69.68,69.68,0,0,1,1-9.25,27.41,27.41,0,0,1,6-12.76q5-6.37,11-7.27t9.69,1.91q3.66,2.81,3.33,8.88a17.48,17.48,0,0,1-3.28,9.93,15.91,15.91,0,0,1-6.85,5.39,42.19,42.19,0,0,1-8.41,2.29,9.82,9.82,0,0,0-.86,2.59,12.13,12.13,0,0,0,.13,5.56q.72,3.32,4.56,2.63a19.19,19.19,0,0,0,7.8-3.55,22.54,22.54,0,0,0,6.69-8.19c.48-.73.91-1.41,1.3-2.05a18.37,18.37,0,0,1,1.22-1.74,5.31,5.31,0,0,1,1.5-1.26,3.17,3.17,0,0,1,2.11-.27,2.18,2.18,0,0,1,1.67.92,2.73,2.73,0,0,1,.36,1.6,6.15,6.15,0,0,1-.44,1.84c-.26.64-.54,1.35-.84,2.12a49,49,0,0,1-3.41,7.07,32.3,32.3,0,0,1-5,6.51,25.16,25.16,0,0,1-6.69,4.82,18.84,18.84,0,0,1-8.49,1.87,12.45,12.45,0,0,1-6.22-1.5,12.73,12.73,0,0,1-4.42-4.16,20,20,0,0,1-2.61-6.25A33,33,0,0,1,557.1,340.51Zm23-20.4a27.18,27.18,0,0,0-2.39,2.15c-.85.84-1.68,1.73-2.47,2.66a30.06,30.06,0,0,0-2.22,2.93c-.69,1-1.31,2-1.86,2.9a2.66,2.66,0,0,0,1.77.55,5.19,5.19,0,0,0,2.47-.75,8.09,8.09,0,0,0,2.45-2.15,11.36,11.36,0,0,0,1.75-3.52A13.2,13.2,0,0,0,580.15,320.11Z"/><path d="M637.28,356.76a52.52,52.52,0,0,1-7.06,4.71,11.18,11.18,0,0,1-5.1,1.23,6.36,6.36,0,0,1-4.61-1.71,11.68,11.68,0,0,1-2.78-4.3,23.55,23.55,0,0,1-1.36-5.7,50.72,50.72,0,0,1-.36-5.83,40.5,40.5,0,0,1,1.72-11.57,38,38,0,0,1,4.81-10.38,26.88,26.88,0,0,1,7.32-7.47,16.31,16.31,0,0,1,9.3-2.87,15.94,15.94,0,0,1,4.67.75,42.6,42.6,0,0,0,1.27-4.95c.41-2,.82-4.1,1.23-6.38s.81-4.61,1.22-7,.82-4.65,1.25-6.79.88-4.06,1.36-5.76a18,18,0,0,1,1.5-3.93,3.31,3.31,0,0,1,1.63-1.53,5.62,5.62,0,0,1,2-.38,5.44,5.44,0,0,1,2.78.78,9.15,9.15,0,0,1,2.36,2.05,10.26,10.26,0,0,1,1.63,2.9,9.67,9.67,0,0,1,.61,3.42,7.77,7.77,0,0,1-.13,1.46q-.15.72-.36,1.47-1.07,3.61-2,7.17t-1.78,7.16q-1.28,5.13-2.58,10.82t-2.58,11.54Q652,331.51,648.16,348q-1.5,5.46,2.33,3.24a23,23,0,0,0,7.27-7.33,54.47,54.47,0,0,0,5-8.81,2.58,2.58,0,0,1,2-1.43c.92.13,1.63,1.09,2.11,2.86a9,9,0,0,1-.47,5.7,48,48,0,0,1-3.11,6.35,42.77,42.77,0,0,1-5.14,6.93,30.72,30.72,0,0,1-7,5.9,14.45,14.45,0,0,1-7.55,2.29Q639.83,363.72,637.28,356.76Zm-1.84-29.62a16.82,16.82,0,0,0-2.88,3.31,27.44,27.44,0,0,0-2.45,4.36,28.84,28.84,0,0,0-1.66,4.78,18.3,18.3,0,0,0-.61,4.47,6.73,6.73,0,0,0,.22,1.54,11,11,0,0,0,.61,1.81,6.08,6.08,0,0,0,.94,1.53,1.54,1.54,0,0,0,1.17.65,1.74,1.74,0,0,0,.94-.51l.78-.65a15.12,15.12,0,0,0,3.08-4.16,40.09,40.09,0,0,0,2.56-5.84,49.57,49.57,0,0,0,1.72-6.21,27.37,27.37,0,0,0,.64-5.29q0-.48,0-1a1.75,1.75,0,0,0-.31-.92l-.22-.14a4.66,4.66,0,0,0-2.39.79A18.82,18.82,0,0,0,635.44,327.14Z"/><path d="M659.71,340.51a69.22,69.22,0,0,1,1-9.25,27.5,27.5,0,0,1,6-12.76q5-6.37,11.05-7.27t9.69,1.91q3.66,2.81,3.33,8.88a17.55,17.55,0,0,1-3.27,9.93,16,16,0,0,1-6.86,5.39,42,42,0,0,1-8.41,2.29,10.24,10.24,0,0,0-.86,2.59,12.15,12.15,0,0,0,.14,5.56q.72,3.32,4.55,2.63a19.19,19.19,0,0,0,7.8-3.55,22.34,22.34,0,0,0,6.69-8.19c.48-.73.92-1.41,1.31-2.05a15.32,15.32,0,0,1,1.22-1.74,5,5,0,0,1,1.5-1.26,3.15,3.15,0,0,1,2.11-.27,2.18,2.18,0,0,1,1.66.92,2.73,2.73,0,0,1,.36,1.6,5.86,5.86,0,0,1-.44,1.84c-.26.64-.54,1.35-.83,2.12A49,49,0,0,1,694,346.9a31.94,31.94,0,0,1-5,6.51,25.16,25.16,0,0,1-6.69,4.82,18.81,18.81,0,0,1-8.49,1.87,12.48,12.48,0,0,1-6.22-1.5,12.61,12.61,0,0,1-4.41-4.16,19.51,19.51,0,0,1-2.61-6.25A32.5,32.5,0,0,1,659.71,340.51Zm23-20.4a28.69,28.69,0,0,0-2.39,2.15c-.85.84-1.68,1.73-2.47,2.66a30.06,30.06,0,0,0-2.22,2.93c-.69,1-1.31,2-1.86,2.9a2.66,2.66,0,0,0,1.77.55,5.22,5.22,0,0,0,2.48-.75,8.06,8.06,0,0,0,2.44-2.15,11.36,11.36,0,0,0,1.75-3.52A13.2,13.2,0,0,0,682.75,320.11Z"/><path d="M699.07,362.56q-3.06,0-5.5-3.52T691,349.11q-.16-6.41,2.23-18.6A149.26,149.26,0,0,1,699,308.78c-.74.09-1.4.19-2,.3a8.17,8.17,0,0,1-1.61.17c-1.67-.54-2.45-1.49-2.34-2.83a10.12,10.12,0,0,1,.56-2.9,5.92,5.92,0,0,1,1-1.57,7.24,7.24,0,0,1,1.33-1.16q.72-.48,6.72-1.16,2.84-7.51,4.5-9.52a8.46,8.46,0,0,1,4.41-2.77,4.12,4.12,0,0,1,4.53,1.3q1.77,2-1.34,9.76,3.88-.27,6.08-.48c1.46-.13,3.23-.32,5.3-.54,1.45.63,1.83,2.23,1.14,4.77s-1.3,4.06-1.86,4.51a6,6,0,0,1-3.08.89c-1.5.13-3,.25-4.38.34s-2.74.16-4,.2a5,5,0,0,0-2.49.55c-.47.32-1.14,1.61-2,3.89s-1.43,3.68-1.61,4.23q-.55,2.06-1.45,4.95t-1.86,6.18q-1,3.27-1.88,6.69c-.61,2.27-1.13,4.46-1.56,6.55a47.39,47.39,0,0,0-.83,5.73,12.75,12.75,0,0,0,.25,4.23c.22.55.5.82.83.82s1-.34,1.58-1a22.87,22.87,0,0,0,1.95-2.56c.68-1,1.39-2.13,2.11-3.31s2-3.14,3.72-5.87,2.89-4.41,3.41-5,.93-.93,1.22-.89a2.8,2.8,0,0,1,1.81.72,2.49,2.49,0,0,1,.86,2,9.34,9.34,0,0,1-.5,2.73c-.33,1.05-.65,1.94-.94,2.66a71.94,71.94,0,0,1-4.06,7.58,83,83,0,0,1-5,7.85,22.71,22.71,0,0,1-4,4.13A7.19,7.19,0,0,1,699.07,362.56Z"/><path d="M749.87,345.6q-.06,1,.39,1a2.7,2.7,0,0,0,1.56-.85,24.62,24.62,0,0,0,2-2.16c.74-.86,1.52-1.78,2.33-2.76s1.82-2.14,3-3.48a29.68,29.68,0,0,1,2.83-2.87,3,3,0,0,1,1.8-.85.91.91,0,0,1,.78.38,2.61,2.61,0,0,1,.42.92,5.93,5.93,0,0,1,.16,1.12q0,.58,0,1a7.58,7.58,0,0,1-.78,3.14q-.76,1.71-9.6,12.36T741.6,360q-4.44-3.21-.39-22.84t5.44-21.84c.93-1.47,2.69-2.23,5.3-2.25s4.27.32,5,1a4.32,4.32,0,0,1,1.06,3.18,14.94,14.94,0,0,1-.53,2.87c-.35,1.41-.8,3-1.33,4.88s-1.14,3.81-1.81,5.9S753,335,752.37,337s-1.19,3.72-1.69,5.29A16.23,16.23,0,0,0,749.87,345.6Zm6.86-36.69a5.67,5.67,0,0,1-4.86-.89,9.8,9.8,0,0,1-3.16-3,6.18,6.18,0,0,1-.84-3.11,3.84,3.84,0,0,1,.67-2.11,11,11,0,0,1,1.58-1.92,10.37,10.37,0,0,1,2-1.5,13.89,13.89,0,0,1,1.78-.89,6.83,6.83,0,0,1,1.78-.44,16.54,16.54,0,0,1,1.83-.1,5.24,5.24,0,0,1,2.25.51,5.89,5.89,0,0,1,1.88,1.4,6.47,6.47,0,0,1,1.28,2.15,7.71,7.71,0,0,1,.47,2.77,4.53,4.53,0,0,1-.75,2.69,21.75,21.75,0,0,1-2.05,2.42A8.08,8.08,0,0,1,756.73,308.91Z"/><path d="M776.58,277.38a5,5,0,0,1,2.44.82,13.85,13.85,0,0,1,2.64,2,13.38,13.38,0,0,1,2.13,2.73,5.62,5.62,0,0,1,.89,2.87,16.86,16.86,0,0,1-.55,3.31q-.55,2.36-1.39,5.46t-1.89,6.62c-.7,2.35-1.38,4.6-2,6.76s-1.24,4.12-1.78,5.87-.94,3.08-1.19,4c.66-.54,1.54-1.34,2.63-2.39s2.24-2.07,3.45-3.07a39.64,39.64,0,0,1,3.52-2.63,5.61,5.61,0,0,1,2.83-1.12c1.19,0,1.94.39,2.25,1.16a8.62,8.62,0,0,1,.47,3.14,8.82,8.82,0,0,1-1,4.26,11.7,11.7,0,0,1-2.53,3.21q-1.54,1.41-5.3,4.47t-5.6,4.95a6,6,0,0,0-2,3.21,8.46,8.46,0,0,0,.33,3.11c.31,1.18.68,2.41,1.11,3.68s.87,2.42,1.33,3.45a13.12,13.12,0,0,0,1.45,2.52q.75,1,1.41,1a4.23,4.23,0,0,0,2.56-.85,10.42,10.42,0,0,0,2.13-2.12q1-1.26,2.5-3.75t2.39-3.75a11.38,11.38,0,0,1,1.8-2.12,3,3,0,0,1,2-.85,3.05,3.05,0,0,1,1,.2,3.33,3.33,0,0,1,1,.62,3.77,3.77,0,0,1,.78.95,2.39,2.39,0,0,1,.3,1.16,4.24,4.24,0,0,1-.17,1.13c-.11.43-.24.86-.38,1.3s-.31.85-.48,1.26-.3.75-.41,1a43,43,0,0,1-3.39,6.11,38.79,38.79,0,0,1-4.61,6,25.2,25.2,0,0,1-4.66,3.82,9,9,0,0,1-4.78,1.53,4.9,4.9,0,0,1-3.05-1,10.58,10.58,0,0,1-2.36-2.56,25.35,25.35,0,0,1-1.86-3.34q-.83-1.82-1.5-3.45c-.29,1.23-.62,2.63-1,4.2s-.72,3.17-1.11,4.81-.8,3.21-1.22,4.71-.84,2.8-1.25,3.89a3.41,3.41,0,0,1-1.39,1.81,3.72,3.72,0,0,1-2,.58,3,3,0,0,1-2.22-.89,6.51,6.51,0,0,1-1.41-2.18,11,11,0,0,1-.73-2.84,24.43,24.43,0,0,1-.19-2.83,30.75,30.75,0,0,1,.25-3.51c.17-1.44.4-3,.69-4.68s.61-3.43,1-5.25.68-3.59,1-5.29.72-3.3,1-4.78.58-2.7.8-3.65q2.77-11.82,5.22-23.55T771.41,285c.19-.91.38-1.82.59-2.73a10.33,10.33,0,0,1,.86-2.46,5.25,5.25,0,0,1,1.44-1.77A3.66,3.66,0,0,1,776.58,277.38Z"/><path d="M804.67,277.38a4.92,4.92,0,0,1,2.44.82,13.75,13.75,0,0,1,4.78,4.77,5.71,5.71,0,0,1,.89,2.87,17.1,17.1,0,0,1-.56,3.31q-.56,2.36-1.39,5.46T809,301.23c-.71,2.35-1.38,4.6-2,6.76s-1.24,4.12-1.78,5.87-.93,3.08-1.19,4c.67-.54,1.54-1.34,2.64-2.39s2.24-2.07,3.44-3.07a41.15,41.15,0,0,1,3.52-2.63,5.64,5.64,0,0,1,2.84-1.12c1.18,0,1.93.39,2.24,1.16a8.38,8.38,0,0,1,.48,3.14,8.82,8.82,0,0,1-1,4.26,11.66,11.66,0,0,1-2.52,3.21q-1.56,1.41-5.3,4.47t-5.61,4.95a6,6,0,0,0-2,3.21,8.92,8.92,0,0,0,.33,3.11c.32,1.18.69,2.41,1.11,3.68a35.68,35.68,0,0,0,1.34,3.45,13.13,13.13,0,0,0,1.44,2.52q.75,1,1.41,1a4.23,4.23,0,0,0,2.56-.85,10.46,10.46,0,0,0,2.14-2.12c.64-.84,1.48-2.09,2.5-3.75s1.81-2.91,2.38-3.75a11.8,11.8,0,0,1,1.81-2.12,2.93,2.93,0,0,1,2-.85,3.05,3.05,0,0,1,1,.2,3.22,3.22,0,0,1,1,.62,3.39,3.39,0,0,1,.78.95,2.4,2.4,0,0,1,.31,1.16,4.7,4.7,0,0,1-.17,1.13c-.11.43-.24.86-.39,1.3s-.31.85-.47,1.26l-.42,1A42,42,0,0,1,820,347.1a38.8,38.8,0,0,1-4.6,6,25.25,25.25,0,0,1-4.67,3.82,9,9,0,0,1-4.77,1.53,4.9,4.9,0,0,1-3.06-1,10.78,10.78,0,0,1-2.36-2.56,25.35,25.35,0,0,1-1.86-3.34c-.55-1.21-1-2.36-1.49-3.45-.3,1.23-.62,2.63-1,4.2s-.72,3.17-1.11,4.81-.79,3.21-1.22,4.71-.84,2.8-1.25,3.89a3.36,3.36,0,0,1-1.39,1.81,3.71,3.71,0,0,1-2,.58,3,3,0,0,1-2.22-.89A6.39,6.39,0,0,1,785.6,365a11.37,11.37,0,0,1-.72-2.84,22.51,22.51,0,0,1-.2-2.83,33.25,33.25,0,0,1,.25-3.51c.17-1.44.4-3,.7-4.68s.61-3.43.94-5.25.69-3.59,1.06-5.29.71-3.3,1-4.78.59-2.7.81-3.65q2.77-11.82,5.22-23.55T799.51,285c.18-.91.38-1.82.58-2.73a10.33,10.33,0,0,1,.86-2.46,5.25,5.25,0,0,1,1.44-1.77A3.7,3.7,0,0,1,804.67,277.38Z"/><path d="M816.66,340.51a71,71,0,0,1,1-9.25,27.53,27.53,0,0,1,6-12.76q5-6.37,11-7.27t9.69,1.91q3.66,2.81,3.33,8.88a17.48,17.48,0,0,1-3.28,9.93,15.91,15.91,0,0,1-6.85,5.39,42.19,42.19,0,0,1-8.41,2.29,10.06,10.06,0,0,0-.87,2.59,12.29,12.29,0,0,0,.14,5.56q.72,3.32,4.56,2.63a19.19,19.19,0,0,0,7.8-3.55,22.54,22.54,0,0,0,6.69-8.19c.48-.73.91-1.41,1.3-2.05a18.37,18.37,0,0,1,1.22-1.74,5.31,5.31,0,0,1,1.5-1.26,3.17,3.17,0,0,1,2.11-.27,2.18,2.18,0,0,1,1.67.92,2.73,2.73,0,0,1,.36,1.6,5.89,5.89,0,0,1-.45,1.84l-.83,2.12A49,49,0,0,1,851,346.9a32.3,32.3,0,0,1-5,6.51,25.16,25.16,0,0,1-6.69,4.82,18.84,18.84,0,0,1-8.49,1.87,12.45,12.45,0,0,1-6.22-1.5,12.73,12.73,0,0,1-4.42-4.16,20,20,0,0,1-2.61-6.25A33,33,0,0,1,816.66,340.51Zm23-20.4a28.69,28.69,0,0,0-2.38,2.15c-.85.84-1.68,1.73-2.47,2.66a30.06,30.06,0,0,0-2.22,2.93c-.69,1-1.31,2-1.86,2.9a2.66,2.66,0,0,0,1.77.55,5.19,5.19,0,0,0,2.47-.75,8.09,8.09,0,0,0,2.45-2.15,11.36,11.36,0,0,0,1.75-3.52A13,13,0,0,0,839.7,320.11Z"/><path d="M887.17,299.08c.86-3.32,1.77-6.39,2.75-9.21a27.66,27.66,0,0,1,3.75-7.34,15.94,15.94,0,0,1,5.69-4.85,19,19,0,0,1,8.64-1.74,8.85,8.85,0,0,1,1.69.18,5.18,5.18,0,0,1,1.69.61,4,4,0,0,1,1.31,1.23,3.53,3.53,0,0,1,.52,2,3.48,3.48,0,0,1-1,2.29,22,22,0,0,1-2.47,2.39c-1,.84-2.1,1.8-3.3,2.86a27.55,27.55,0,0,0-3.47,3.76,26.68,26.68,0,0,0-3,5.05,23.81,23.81,0,0,0-1.91,6.79h.44a6.3,6.3,0,0,0,1.47-.17,6.57,6.57,0,0,1,1.53-.17,7.79,7.79,0,0,1,2,.27,4.93,4.93,0,0,1,1.81.92,4.59,4.59,0,0,1,1.27,1.68,5.73,5.73,0,0,1,.48,2.45,1.86,1.86,0,0,1-.34,1,2.25,2.25,0,0,1-1.22,2.28,6.73,6.73,0,0,1-2.94.59,22.84,22.84,0,0,1-3.64-.31,18.65,18.65,0,0,0-3-.31h-.16a28.73,28.73,0,0,0-2,6.35q-.82,4-1.58,9.08t-1.53,10.81q-.78,5.77-1.72,11.57t-2.19,11.33a77.07,77.07,0,0,1-2.94,10.07,36.87,36.87,0,0,1-3.95,7.85,12.31,12.31,0,0,1-5.24,4.61,11.8,11.8,0,0,1-2.33.85,9,9,0,0,1-2.22.31,3.79,3.79,0,0,1-1.48-.27,1.61,1.61,0,0,1-.88-1,3.55,3.55,0,0,1-.06-1.81,11.08,11.08,0,0,1,1-2.76,6.15,6.15,0,0,0,.86-2.36c.39-1.48.85-3.43,1.39-5.87s1.13-5.25,1.78-8.46,1.33-6.6,2.05-10.17,1.46-7.24,2.22-11,1.51-7.41,2.25-11,1.44-6.88,2.11-10,1.28-5.84,1.83-8.16a26.23,26.23,0,0,1-3.27.2,3.05,3.05,0,0,1-1.58-.37c-.43-.25-.64-.81-.64-1.67a4.89,4.89,0,0,1,.19-1.27q.2-.7.36-1.26a7.51,7.51,0,0,1,1-1.91,3.44,3.44,0,0,1,1.08-1,3,3,0,0,1,1.27-.41,15.12,15.12,0,0,1,1.59-.07h1.3a5.77,5.77,0,0,0,1.25-.14,5.19,5.19,0,0,0,.83-2C886.79,300.51,887,299.72,887.17,299.08Z"/><path d="M941.87,313.27l4.78-8.38,4.43,3.77-4.77,8.67c5.34,6.29,8.3,15.38,8.3,25.86,0,24.88-14,35.92-26.84,35.92a22.26,22.26,0,0,1-14.1-4.75l-4.89,8.53-4.2-4.2,4.77-8.38c-5.34-6.15-8.53-15.1-8.53-26.14,0-22.51,12.06-35.79,27.07-35.79A22.58,22.58,0,0,1,941.87,313.27Zm-4.55,8.39a13.2,13.2,0,0,0-9.66-4.05c-12.28,0-17.17,14-17.17,26.28a34.29,34.29,0,0,0,4.09,16.91l.23.14ZM918.22,366a12.11,12.11,0,0,0,9.21,3.92c10.46,0,17.4-11.05,17.4-26.28,0-4.61-.91-11.18-3.87-16.5h-.22Z"/><path d="M976.8,322.7l-3,.68c-1,.23-2,.5-2.91.82a35.19,35.19,0,0,0-1.94,6.55,68.4,68.4,0,0,1-3.39,10.41,101.17,101.17,0,0,1-4.66,10.24,36.61,36.61,0,0,1-3.95,6.14,4.91,4.91,0,0,1-3.77,2,4.2,4.2,0,0,1-1.06-.17,5.38,5.38,0,0,1-1.19-.52,3.56,3.56,0,0,1-1-.85,1.74,1.74,0,0,1-.42-1.13,10.94,10.94,0,0,1,.75-1.84q.75-1.64,1.89-4.2t5.28-12.21q4.13-9.66,4.13-12.32a24.4,24.4,0,0,0-.16-2.8,23,23,0,0,1-.17-2.87,4.63,4.63,0,0,1,.28-1.4,14.88,14.88,0,0,1,.66-1.7,17,17,0,0,1,.86-1.64,4.94,4.94,0,0,1,.86-1.13l.11-.07a4.57,4.57,0,0,1,2.06-.88l3-.62c1.11-.23,2.29-.53,3.55-.92a16.4,16.4,0,0,0,3.8-1.77,17.57,17.57,0,0,0,3.7-3.18,19.16,19.16,0,0,0,3.16-5.12,3.87,3.87,0,0,1,2.05-2.25,9.51,9.51,0,0,1,3.28-.48,4.29,4.29,0,0,1,2.67.82c.7.55,1.48,1.14,2.33,1.78a6.7,6.7,0,0,1,1.08.88,2.48,2.48,0,0,1,.31,1.5,9.63,9.63,0,0,1-.39,2c-.26,1-.59,2.05-1,3.28s-.83,2.51-1.31,3.86-.93,2.62-1.36,3.85-.81,2.31-1.17,3.24-.6,1.58-.75,1.95c-.74,2-1.51,4.06-2.33,6.18s-1.6,4.18-2.36,6.21-1.44,3.92-2,5.7-1.25,3.87-1.92,6.28-.77,4-.33,4.81,4.79-4.86,13-17a3.1,3.1,0,0,1,1.19-1.1,3.37,3.37,0,0,1,1.47-.34,3.11,3.11,0,0,1,2.22,1,3.69,3.69,0,0,1,1,2.8,7.23,7.23,0,0,1-1,3,61.29,61.29,0,0,1-4,6.32Q990.9,351,986.8,357.1t-7.11,8.09a8.7,8.7,0,0,1-5.58,1.67c-1.72-.18-3-1.61-3.88-4.3s-1.15-6.45-.84-11.3a77.58,77.58,0,0,1,3.19-16.51Q975.31,325.5,976.8,322.7Z"/><path d="M1039.82,356.76a51.93,51.93,0,0,1-7,4.71,11.22,11.22,0,0,1-5.11,1.23,6.38,6.38,0,0,1-4.61-1.71,11.66,11.66,0,0,1-2.77-4.3,23.1,23.1,0,0,1-1.36-5.7,50.72,50.72,0,0,1-.36-5.83,40.15,40.15,0,0,1,1.72-11.57,38,38,0,0,1,4.8-10.38,26.91,26.91,0,0,1,7.33-7.47,16.28,16.28,0,0,1,9.3-2.87,15.87,15.87,0,0,1,4.66.75,42.4,42.4,0,0,0,1.28-4.95c.41-2,.81-4.1,1.22-6.38s.81-4.61,1.22-7,.83-4.65,1.25-6.79.88-4.06,1.36-5.76a18,18,0,0,1,1.5-3.93,3.29,3.29,0,0,1,1.64-1.53,5.57,5.57,0,0,1,2-.38,5.42,5.42,0,0,1,2.78.78,9,9,0,0,1,2.36,2.05,10.54,10.54,0,0,1,1.64,2.9,9.9,9.9,0,0,1,.61,3.42,7.77,7.77,0,0,1-.14,1.46,14.27,14.27,0,0,1-.36,1.47q-1.05,3.61-1.94,7.17t-1.78,7.16q-1.27,5.13-2.58,10.82t-2.58,11.54q-1.29,5.83-5.17,22.35-1.5,5.46,2.33,3.24a23.05,23.05,0,0,0,7.28-7.33,54.31,54.31,0,0,0,5-8.81,2.58,2.58,0,0,1,2-1.43c.93.13,1.63,1.09,2.11,2.86a8.9,8.9,0,0,1-.47,5.7,46.77,46.77,0,0,1-3.11,6.35,43.27,43.27,0,0,1-5.13,6.93,30.56,30.56,0,0,1-7,5.9,14.42,14.42,0,0,1-7.55,2.29Q1042.37,363.72,1039.82,356.76ZM1038,327.14a17.18,17.18,0,0,0-2.89,3.31,27.4,27.4,0,0,0-2.44,4.36,28.88,28.88,0,0,0-1.67,4.78,18.3,18.3,0,0,0-.61,4.47,7.34,7.34,0,0,0,.22,1.54,12,12,0,0,0,.61,1.81,6.11,6.11,0,0,0,1,1.53,1.54,1.54,0,0,0,1.16.65,1.76,1.76,0,0,0,1-.51l.78-.65a15.12,15.12,0,0,0,3.08-4.16,40.06,40.06,0,0,0,2.55-5.84,47.92,47.92,0,0,0,1.72-6.21,26.6,26.6,0,0,0,.64-5.29q0-.48,0-1a1.83,1.83,0,0,0-.3-.92l-.22-.14a4.63,4.63,0,0,0-2.39.79A17.93,17.93,0,0,0,1038,327.14Z"/><path d="M1062.25,340.51a71,71,0,0,1,1-9.25,27.53,27.53,0,0,1,6-12.76q5-6.37,11-7.27t9.69,1.91q3.66,2.81,3.33,8.88A17.63,17.63,0,0,1,1090,332a15.94,15.94,0,0,1-6.86,5.39,42,42,0,0,1-8.41,2.29,10.71,10.71,0,0,0-.86,2.59,12.15,12.15,0,0,0,.14,5.56q.72,3.32,4.55,2.63a19.07,19.07,0,0,0,7.8-3.55,22.34,22.34,0,0,0,6.69-8.19c.49-.73.92-1.41,1.31-2.05a18.37,18.37,0,0,1,1.22-1.74,5.31,5.31,0,0,1,1.5-1.26,3.16,3.16,0,0,1,2.11-.27,2.2,2.2,0,0,1,1.67.92,2.89,2.89,0,0,1,.36,1.6,5.89,5.89,0,0,1-.45,1.84c-.26.64-.53,1.35-.83,2.12a50,50,0,0,1-3.41,7.07,32.3,32.3,0,0,1-5,6.51,25.48,25.48,0,0,1-6.69,4.82,18.86,18.86,0,0,1-8.5,1.87,12.48,12.48,0,0,1-6.22-1.5,12.79,12.79,0,0,1-4.41-4.16,19.51,19.51,0,0,1-2.61-6.25A33,33,0,0,1,1062.25,340.51Zm23-20.4a30.38,30.38,0,0,0-2.39,2.15c-.85.84-1.67,1.73-2.47,2.66a33.63,33.63,0,0,0-2.22,2.93c-.68,1-1.3,2-1.86,2.9a2.71,2.71,0,0,0,1.78.55,5.22,5.22,0,0,0,2.47-.75,7.94,7.94,0,0,0,2.44-2.15,10.94,10.94,0,0,0,1.75-3.52A13,13,0,0,0,1085.29,320.11Z"/><path d="M1107.56,335.8a48.4,48.4,0,0,0-5.22,13.11q-1.17,5.67-1.45,6.55a4.07,4.07,0,0,1-1,1.54,6.88,6.88,0,0,1-1.55,1.19,9.13,9.13,0,0,1-1.75.75,5.49,5.49,0,0,1-1.56.28,4,4,0,0,1-2.94-1.16,4.82,4.82,0,0,1-1.16-3.55,29.68,29.68,0,0,1,.5-4.71q.49-3,3.21-15.5t3.86-15.29a8.53,8.53,0,0,1,3.78-4.3,3.53,3.53,0,0,1,4.61.41c1.31,1.28,1.58,3.73.8,7.37a37.56,37.56,0,0,1,6.47-8.25,26.18,26.18,0,0,1,8.47-5.94,4.59,4.59,0,0,1,4.58,1.29q1.86,1.92,1.86,5.74a19,19,0,0,1-.56,3.65q-.55,2.49-1.41,5.66t-5,18q-4.15,14.77,3.11,4.06t8.36-11.88c.72-.77,1.26-1.16,1.64-1.16a2.35,2.35,0,0,1,2.19.89,3.41,3.41,0,0,1,.39,2.15,9.73,9.73,0,0,1-.7,2.59c-.37.89-.72,1.65-1,2.29q-8.71,12.76-10.52,15a43.51,43.51,0,0,1-3.67,4,20.23,20.23,0,0,1-3.72,2.87,7,7,0,0,1-3.58,1.09,2.53,2.53,0,0,1-.72-.07,4,4,0,0,1-3-2.18,11.51,11.51,0,0,1-1.13-4.64q-.18-2.81,2.47-15.94T1115,326.9c.14-1.07.07-1.61-.23-1.61s-.44.21-.77.62Q1111.6,328.36,1107.56,335.8Z"/><path d="M309.09,477.75q1.38-3.08,4.16-3.07a4.94,4.94,0,0,1,2.28.64A9.88,9.88,0,0,1,317.8,477a9.55,9.55,0,0,1,1.75,2.39,6,6,0,0,1,.7,2.76,17.7,17.7,0,0,1-.59,3.25q-.59,2.42-1.5,5.69t-2,7c-.74,2.48-1.46,4.86-2.14,7.13s-1.3,4.33-1.83,6.15-.92,3.14-1.14,4a1.33,1.33,0,0,0,.44.06,4.29,4.29,0,0,0,2.72-1.46,32,32,0,0,0,3.11-3.42q1.56-1.94,2.92-3.89c.9-1.29,1.64-2.28,2.19-3a9,9,0,0,1,2.47-2.15,5.07,5.07,0,0,1,2.47-.78,2.31,2.31,0,0,1,1.28.37,2,2,0,0,1,.78,1.13,5,5,0,0,1,0,2,13.4,13.4,0,0,1-.83,2.94,32.54,32.54,0,0,1-4.11,7.4,51.35,51.35,0,0,1-5.63,6.42,75.53,75.53,0,0,1-6.42,5.52q-3.33,2.57-6.44,4.68-1.54,4.5-3.22,9.39t-3.69,9.55a76.07,76.07,0,0,1-4.53,8.87,34.56,34.56,0,0,1-5.66,7.27,28,28,0,0,1-4.44,3.48,9.36,9.36,0,0,1-5.11,1.44,7,7,0,0,1-3.69-1,8.25,8.25,0,0,1-2.64-2.59,11.92,11.92,0,0,1-1.55-3.82,20.67,20.67,0,0,1-.5-4.58,24.78,24.78,0,0,1,.86-6.41,50.38,50.38,0,0,1,2-6.08,30.16,30.16,0,0,1,3.69-6.79,40.8,40.8,0,0,1,4.63-5.29,52.37,52.37,0,0,1,5.31-4.43q2.79-2.06,5.69-4.24a10,10,0,0,1-5.28-1.7,11.18,11.18,0,0,1-3.38-3.89,18.36,18.36,0,0,1-1.84-5.5,37,37,0,0,1-.55-6.52,33.48,33.48,0,0,1,2.11-11.94,32.36,32.36,0,0,1,5.66-9.76,27.3,27.3,0,0,1,8.22-6.59,20.87,20.87,0,0,1,9.71-2.42h.62A2.37,2.37,0,0,1,309.09,477.75Zm-29.32,82.86a22.81,22.81,0,0,0,2.17-2.9q1.21-1.87,2.47-4.2t2.52-4.91q1.27-2.6,2.42-5.06c.76-1.63,1.43-3.16,2-4.57s1.07-2.57,1.44-3.48a14,14,0,0,0-3.67,3.07,40.74,40.74,0,0,0-3.61,4.75,51.13,51.13,0,0,0-3.13,5.52,44.48,44.48,0,0,0-2.25,5.36,18.85,18.85,0,0,0-1,4.23C279.05,559.61,279.25,560.34,279.77,560.61Zm15.1-46.69q1.62,4,4.36.1t6-14.6q3.23-10.68.94-10.75a9.45,9.45,0,0,0-7.19,3.89q-2.91,3.69-4.3,10.51T294.87,513.92Z"/><path d="M341.07,490.44l-3,.68c-1,.23-2,.51-2.92.82a36.13,36.13,0,0,0-1.94,6.56,69.12,69.12,0,0,1-3.39,10.41,101.92,101.92,0,0,1-4.66,10.23,36.42,36.42,0,0,1-3.94,6.15,5,5,0,0,1-3.78,2,4.06,4.06,0,0,1-1.05-.17,4.81,4.81,0,0,1-1.2-.51,3.59,3.59,0,0,1-1-.86,1.71,1.71,0,0,1-.41-1.12,11.28,11.28,0,0,1,.74-1.85q.75-1.63,1.89-4.19t5.28-12.22q4.13-9.66,4.13-12.32a24.53,24.53,0,0,0-.16-2.8,25,25,0,0,1-.17-2.87,4.52,4.52,0,0,1,.28-1.39,15,15,0,0,1,.66-1.71,17,17,0,0,1,.86-1.64,5.16,5.16,0,0,1,.87-1.13l.11-.06a4.48,4.48,0,0,1,2.05-.89l3-.61c1.11-.23,2.29-.54,3.55-.93a15.85,15.85,0,0,0,3.81-1.77,17.48,17.48,0,0,0,3.69-3.18,19.09,19.09,0,0,0,3.16-5.11,3.84,3.84,0,0,1,2.06-2.26,9.68,9.68,0,0,1,3.27-.47,4.28,4.28,0,0,1,2.67.81c.7.55,1.48,1.14,2.33,1.78a6.15,6.15,0,0,1,1.08.89,2.46,2.46,0,0,1,.31,1.5,9.12,9.12,0,0,1-.39,2c-.26,1-.58,2-1,3.27s-.83,2.52-1.31,3.86-.93,2.63-1.36,3.85-.81,2.31-1.16,3.25l-.75,1.94c-.74,2-1.52,4.06-2.34,6.18s-1.6,4.19-2.36,6.21-1.44,3.92-2.05,5.7-1.25,3.87-1.92,6.28-.77,4-.33,4.81,4.79-4.86,13.05-17a3.07,3.07,0,0,1,1.19-1.09,3.27,3.27,0,0,1,1.47-.34,3.14,3.14,0,0,1,2.22.95,3.69,3.69,0,0,1,1,2.8,7.31,7.31,0,0,1-1,3,62.6,62.6,0,0,1-4,6.31q-3,4.36-7.16,10.51T344,532.93a8.58,8.58,0,0,1-5.58,1.67q-2.58-.27-3.88-4.3T333.65,519a77.11,77.11,0,0,1,3.2-16.52Q339.57,493.24,341.07,490.44Z"/><path d="M395.28,545.32l-.8-8.53h-.34a19.56,19.56,0,0,1-16.83,10.07c-11.14,0-16.83-9.65-16.83-19.43,0-16.36,11.83-25.3,33.09-25.16v-1.4c0-5.59-1.25-15.66-12.51-15.66a23.84,23.84,0,0,0-14.33,5l-2.27-8.1a29.5,29.5,0,0,1,18.08-6c16.83,0,20.92,14.12,20.92,27.68v25.3a117,117,0,0,0,.91,16.22Zm-1.48-34.53c-10.92-.28-23.31,2.1-23.31,15.24,0,8,4.32,11.74,9.43,11.74,7.17,0,11.72-5.59,13.31-11.32a15.61,15.61,0,0,0,.57-3.92Zm-21.49-53.26c0-7.41,4.43-13.28,11.59-13.28,6.83,0,11.26,5.74,11.26,13.14s-4.89,12.86-11.37,12.86C377,470.25,372.31,464.66,372.31,457.53Zm17.28-.28c0-4.19-2.27-7.68-5.91-7.68s-5.57,3.63-5.57,8c0,3.64,2.27,7.55,5.57,7.55C387.32,465.08,389.59,461.45,389.59,457.25Z"/><path d="M430.68,524.5a51.93,51.93,0,0,1-7.05,4.71,11.22,11.22,0,0,1-5.11,1.23,6.35,6.35,0,0,1-4.6-1.71,11.59,11.59,0,0,1-2.78-4.3,23.1,23.1,0,0,1-1.36-5.7,50.72,50.72,0,0,1-.36-5.83,40.15,40.15,0,0,1,1.72-11.57,38.44,38.44,0,0,1,4.8-10.38,27,27,0,0,1,7.33-7.47,16.28,16.28,0,0,1,9.3-2.87,15.82,15.82,0,0,1,4.66.75,42.17,42.17,0,0,0,1.28-4.94q.62-3,1.22-6.39t1.23-7c.4-2.39.82-4.65,1.24-6.79s.88-4.06,1.36-5.77a18,18,0,0,1,1.5-3.93A3.33,3.33,0,0,1,446.7,445a5.59,5.59,0,0,1,2-.38,5.39,5.39,0,0,1,2.77.79,8.49,8.49,0,0,1,2.36,2.05,10,10,0,0,1,1.64,2.9,9.62,9.62,0,0,1,.61,3.41,8,8,0,0,1-.14,1.47,14.76,14.76,0,0,1-.36,1.46q-1,3.63-1.94,7.17c-.59,2.37-1.19,4.76-1.78,7.17q-1.27,5.12-2.58,10.82t-2.58,11.53q-1.28,5.83-5.16,22.35-1.5,5.47,2.33,3.25a23.18,23.18,0,0,0,7.27-7.34,54.82,54.82,0,0,0,5-8.81c.63-.95,1.29-1.43,2-1.43.92.14,1.62,1.09,2.11,2.87a8.92,8.92,0,0,1-.48,5.7,46.08,46.08,0,0,1-3.11,6.34,42.08,42.08,0,0,1-5.13,6.93,30.61,30.61,0,0,1-7,5.91,14.47,14.47,0,0,1-7.55,2.28Q433.25,531.46,430.68,524.5Zm-1.83-29.62a17.49,17.49,0,0,0-2.89,3.31,27.5,27.5,0,0,0-2.44,4.37,28.73,28.73,0,0,0-1.66,4.77,18.32,18.32,0,0,0-.61,4.48,6.58,6.58,0,0,0,.22,1.53,9.89,9.89,0,0,0,.61,1.81,6.33,6.33,0,0,0,.94,1.54,1.56,1.56,0,0,0,1.17.64,1.78,1.78,0,0,0,.94-.51l.78-.65A15.12,15.12,0,0,0,429,512a39.6,39.6,0,0,0,2.55-5.84,47.11,47.11,0,0,0,1.73-6.21,27.26,27.26,0,0,0,.63-5.29c0-.31,0-.64,0-1a1.87,1.87,0,0,0-.31-.92l-.22-.13a4.64,4.64,0,0,0-2.39.78A18.82,18.82,0,0,0,428.85,494.88Z"/><path d="M462.55,513.34q-.06,1,.39,1a2.64,2.64,0,0,0,1.56-.85,25.85,25.85,0,0,0,2.05-2.15c.74-.87,1.52-1.79,2.33-2.77s1.82-2.13,3-3.48a29.31,29.31,0,0,1,2.83-2.86,3,3,0,0,1,1.8-.86.92.92,0,0,1,.78.38,2.69,2.69,0,0,1,.42.92,5.92,5.92,0,0,1,.16,1.13q0,.57,0,1a7.65,7.65,0,0,1-.78,3.14q-.76,1.69-9.6,12.35t-13.27,7.44q-4.44-3.21-.39-22.83T459.33,483c.93-1.48,2.69-2.23,5.3-2.26s4.27.32,5,1a4.27,4.27,0,0,1,1.06,3.17,14.94,14.94,0,0,1-.53,2.87c-.35,1.41-.8,3-1.33,4.88s-1.14,3.81-1.81,5.9-1.31,4.12-1.94,6.08-1.19,3.72-1.69,5.29A16.18,16.18,0,0,0,462.55,513.34Zm6.86-36.69a5.7,5.7,0,0,1-4.86-.88,9.92,9.92,0,0,1-3.16-3,6.16,6.16,0,0,1-.84-3.11,3.86,3.86,0,0,1,.67-2.11,10.91,10.91,0,0,1,1.58-1.91,10,10,0,0,1,2-1.5,12.68,12.68,0,0,1,1.78-.89,6.46,6.46,0,0,1,1.78-.45c.63-.06,1.24-.1,1.83-.1a5.21,5.21,0,0,1,2.25.51,6,6,0,0,1,1.88,1.4,6.57,6.57,0,0,1,1.28,2.15,7.78,7.78,0,0,1,.47,2.77,4.53,4.53,0,0,1-.75,2.69,21.74,21.74,0,0,1-2.05,2.43A8.07,8.07,0,0,1,469.41,476.65Z"/><path d="M499.75,477.75c.93-2.05,2.31-3.07,4.17-3.07a4.88,4.88,0,0,1,2.27.64,9.88,9.88,0,0,1,4,4.1,5.94,5.94,0,0,1,.69,2.76,17.38,17.38,0,0,1-.58,3.25q-.58,2.42-1.5,5.69t-2,7q-1.11,3.72-2.14,7.13l-1.83,6.15q-.79,2.73-1.14,4a1.4,1.4,0,0,0,.45.06,4.32,4.32,0,0,0,2.72-1.46,34.25,34.25,0,0,0,3.11-3.42c1-1.29,2-2.59,2.91-3.89s1.64-2.28,2.2-3a9,9,0,0,1,2.47-2.15,5,5,0,0,1,2.47-.78,2.28,2.28,0,0,1,1.27.37,2,2,0,0,1,.78,1.13,4.84,4.84,0,0,1,.06,2,13,13,0,0,1-.84,2.94,32.12,32.12,0,0,1-4.1,7.4,52.25,52.25,0,0,1-5.64,6.42,73.88,73.88,0,0,1-6.41,5.52q-3.33,2.57-6.44,4.68-1.56,4.5-3.22,9.39t-3.69,9.55a77.66,77.66,0,0,1-4.53,8.87,34.89,34.89,0,0,1-5.66,7.27,28.91,28.91,0,0,1-4.44,3.48,9.36,9.36,0,0,1-5.11,1.44,7,7,0,0,1-3.69-1,8.06,8.06,0,0,1-2.64-2.59,12.16,12.16,0,0,1-1.56-3.82,20.67,20.67,0,0,1-.5-4.58,24.78,24.78,0,0,1,.86-6.41,52.2,52.2,0,0,1,2-6.08,31,31,0,0,1,3.69-6.79,40.86,40.86,0,0,1,4.64-5.29,51.17,51.17,0,0,1,5.3-4.43q2.81-2.06,5.69-4.24a9.94,9.94,0,0,1-5.27-1.7,11.11,11.11,0,0,1-3.39-3.89,18.63,18.63,0,0,1-1.83-5.5,37,37,0,0,1-.56-6.52,33.7,33.7,0,0,1,2.11-11.94,32.59,32.59,0,0,1,5.67-9.76,27.14,27.14,0,0,1,8.21-6.59,20.88,20.88,0,0,1,9.72-2.42h.61A2.32,2.32,0,0,1,499.75,477.75Zm-29.31,82.86a22,22,0,0,0,2.16-2.9q1.23-1.87,2.47-4.2c.83-1.55,1.68-3.19,2.53-4.91s1.65-3.42,2.41-5.06,1.44-3.16,2-4.57,1.07-2.57,1.44-3.48a14.12,14.12,0,0,0-3.66,3.07,39.66,39.66,0,0,0-3.61,4.75,51.19,51.19,0,0,0-3.14,5.52,48,48,0,0,0-2.25,5.36,19.33,19.33,0,0,0-1,4.23C469.71,559.61,469.92,560.34,470.44,560.61Zm15.1-46.69q1.6,4,4.36.1t6-14.6q3.22-10.68.95-10.75a9.43,9.43,0,0,0-7.19,3.89q-2.91,3.69-4.3,10.51T485.54,513.92Z"/><path d="M513.35,508.26a69.52,69.52,0,0,1,1-9.25,27.39,27.39,0,0,1,6-12.77q5-6.37,11-7.26t9.69,1.91q3.66,2.79,3.33,8.87a17.48,17.48,0,0,1-3.28,9.93,15.91,15.91,0,0,1-6.85,5.39,41.53,41.53,0,0,1-8.41,2.29A10,10,0,0,0,525,510a12.17,12.17,0,0,0,.13,5.57c.48,2.2,2,3.08,4.56,2.62a19.06,19.06,0,0,0,7.8-3.55,22.54,22.54,0,0,0,6.69-8.19c.48-.72.91-1.41,1.3-2a16.11,16.11,0,0,1,1.22-1.74,5.18,5.18,0,0,1,1.5-1.27,3.17,3.17,0,0,1,2.11-.27A2.21,2.21,0,0,1,552,502a2.74,2.74,0,0,1,.36,1.61,6,6,0,0,1-.45,1.84l-.83,2.11a49,49,0,0,1-3.41,7.07,32.37,32.37,0,0,1-5,6.52A25.12,25.12,0,0,1,536,526a18.85,18.85,0,0,1-8.49,1.88,12.35,12.35,0,0,1-6.22-1.51,12.64,12.64,0,0,1-4.42-4.16,19.91,19.91,0,0,1-2.61-6.24A33,33,0,0,1,513.35,508.26Zm23-20.41A30.59,30.59,0,0,0,534,490c-.85.84-1.68,1.73-2.47,2.66a29,29,0,0,0-2.22,2.94c-.69,1-1.31,2-1.86,2.9a2.71,2.71,0,0,0,1.77.54,5.19,5.19,0,0,0,2.47-.75,8,8,0,0,0,2.45-2.15,11.3,11.3,0,0,0,1.75-3.51A13,13,0,0,0,536.39,487.85Z"/><path d="M580.92,530.3c-2,0-3.87-1.17-5.49-3.51s-2.5-5.66-2.61-9.93.63-10.48,2.22-18.6a147.76,147.76,0,0,1,5.83-21.74c-.74.09-1.41.19-2,.31a8.92,8.92,0,0,1-1.61.17c-1.67-.55-2.44-1.49-2.33-2.84a9.84,9.84,0,0,1,.55-2.9,5.92,5.92,0,0,1,1-1.57,7.24,7.24,0,0,1,1.33-1.16c.48-.32,2.72-.7,6.72-1.16q2.84-7.5,4.5-9.52a8.45,8.45,0,0,1,4.41-2.76,4.13,4.13,0,0,1,4.53,1.29q1.77,2.06-1.34,9.76c2.6-.18,4.62-.34,6.08-.47s3.23-.32,5.31-.55q2.16,1,1.13,4.78t-1.86,4.5a5.89,5.89,0,0,1-3.08.89c-1.5.14-3,.25-4.38.34s-2.74.16-3.94.21a4.94,4.94,0,0,0-2.5.54c-.47.32-1.14,1.62-2,3.89s-1.42,3.69-1.61,4.23q-.56,2.06-1.44,4.95t-1.86,6.18q-1,3.27-1.89,6.69c-.61,2.27-1.13,4.46-1.56,6.55a47.67,47.67,0,0,0-.83,5.73,12.84,12.84,0,0,0,.25,4.24c.22.54.5.82.83.82s1-.35,1.59-1a23.19,23.19,0,0,0,1.94-2.56c.68-1,1.39-2.12,2.11-3.31s2-3.14,3.72-5.87,2.9-4.41,3.41-5.05.93-.93,1.23-.89a2.78,2.78,0,0,1,1.8.72,2.49,2.49,0,0,1,.86,2,9.23,9.23,0,0,1-.5,2.73c-.33,1-.65,1.94-.94,2.67a73.14,73.14,0,0,1-4.06,7.57,81.7,81.7,0,0,1-5,7.85,22.39,22.39,0,0,1-4.05,4.13A7.11,7.11,0,0,1,580.92,530.3Z"/><path d="M593.19,511.6a35.69,35.69,0,0,1,.92-7.27,69.85,69.85,0,0,1,2.41-8.53,66.13,66.13,0,0,1,3.39-8,23.19,23.19,0,0,1,3.83-5.69,3.8,3.8,0,0,1,1.2-.86,3,3,0,0,1,1.19-.24,3.39,3.39,0,0,1,2,.69,7.47,7.47,0,0,1,1.69,1.63,8.91,8.91,0,0,1,1.17,2.09,5.68,5.68,0,0,1,.44,2,12.12,12.12,0,0,1-1.11,4.33l-2.47,6c-.9,2.21-1.73,4.53-2.47,7a22,22,0,0,0-1,7.1c.08,2.3.36,3.48.86,3.55s1.78-1.83,3.83-5.7a48,48,0,0,0,4.08-9.49q1-3.68,1.92-7.61c.61-2.61,1.19-5,1.75-7.3s1.1-4.21,1.64-5.87a9.16,9.16,0,0,1,1.58-3.31,3.9,3.9,0,0,1,1.47-1,4.46,4.46,0,0,1,1.64-.31,4.9,4.9,0,0,1,2.27.65,9.2,9.2,0,0,1,2.28,1.71,9.62,9.62,0,0,1,1.75,2.39,5.76,5.76,0,0,1,.69,2.69,11.5,11.5,0,0,1-.27,2.42c-.19.85-.39,1.63-.61,2.36s-.39,1.43-.62,2.12-.44,1.38-.66,2.11q-1.73,5.53-3.28,11.13t-3.22,11.12c.52-.54,1.14-1.26,1.86-2.15l2.2-2.69a40.93,40.93,0,0,1,3.72-3.79c1.73-1.62,2.85-2.61,3.33-3a4.79,4.79,0,0,1,1.11-.68,3,3,0,0,1,3.38.61,3.53,3.53,0,0,1,.84,2.53,6.43,6.43,0,0,1-.67,2.38A30.15,30.15,0,0,1,635.5,510q-1.05,1.77-2.36,3.65a39,39,0,0,1-4.16,4.78c-1.91,1.94-3.23,3.33-4,4.2a25.42,25.42,0,0,1-1.78,1.91q-.72.69-1.92,1.77c-.79.73-1.59,1.49-2.38,2.29s-1.53,1.59-2.2,2.39a8.37,8.37,0,0,0-1.38,2.15q-1.17,3.14-2.64,7.17c-1,2.68-2.06,5.43-3.22,8.26s-2.45,5.58-3.86,8.29a47.12,47.12,0,0,1-4.61,7.27,23,23,0,0,1-5.44,5.15,11.24,11.24,0,0,1-6.33,2,7,7,0,0,1-3.72-1,8.27,8.27,0,0,1-2.61-2.59,11.94,11.94,0,0,1-1.55-3.79,19.62,19.62,0,0,1-.5-4.54,25.48,25.48,0,0,1,.91-6.66,44.94,44.94,0,0,1,2.2-6.31,34.35,34.35,0,0,1,5.3-8.84,35.08,35.08,0,0,1,7.3-6.52c1.29-.91,2.62-1.76,4-2.56s2.71-1.6,4.08-2.42a2.15,2.15,0,0,1-.56.07h-.55a8.34,8.34,0,0,1-4.47-1.19,10.38,10.38,0,0,1-3.22-3.21,15.32,15.32,0,0,1-2-4.64A22.1,22.1,0,0,1,593.19,511.6Zm-1.33,45.94c.89-1.14,1.81-2.45,2.78-3.93s1.9-3,2.83-4.61,1.79-3.19,2.61-4.81,1.51-3.15,2.11-4.6a42.11,42.11,0,0,0-3.36,3.58,35,35,0,0,0-3.11,4.33,32.85,32.85,0,0,0-2.44,4.85A22,22,0,0,0,591.86,557.54Z"/><path d="M648.32,524.5a5.87,5.87,0,0,1-1.83,1.88,9.65,9.65,0,0,1-2.41,1.12,12.79,12.79,0,0,1-2.61.55,23.76,23.76,0,0,1-2.42.14c-.07,0-.11,0-.11-.07-1.15,0-2.07-.87-2.77-2.46a23.51,23.51,0,0,1-1.61-6.18,77.51,77.51,0,0,1-.73-8.53q-.17-4.74-.16-9.45c0-3.14,0-6.11.11-8.91s.11-5.1.11-6.93a5.33,5.33,0,0,1,.64-2.69,8.69,8.69,0,0,1,1.64-2.08c.44-.41.92-.85,1.44-1.3a17.48,17.48,0,0,1,1.61-1.26,9.15,9.15,0,0,1,1.72-1,4.41,4.41,0,0,1,1.72-.37,2.61,2.61,0,0,1,1.78.58,3.48,3.48,0,0,1,1,1.5,8.36,8.36,0,0,1,.44,2,21.14,21.14,0,0,1,.11,2.22c0,1.05,0,2.11-.08,3.18s-.12,2.13-.2,3.17q-.33,4.92-.63,9.73t-.42,9.72q2.83-6.08,5.66-12t5.83-11.91c.56-1.05,1.11-2.11,1.67-3.18s1.09-2.12,1.61-3.17c.44-.87.87-1.76,1.28-2.7a13.54,13.54,0,0,1,1.44-2.56,4.89,4.89,0,0,1,1.3-1.23,3.07,3.07,0,0,1,1.64-.47,2.7,2.7,0,0,1,2.5,1.29,6.3,6.3,0,0,1,.78,3.28,9.24,9.24,0,0,1-.22,2c-.15.64-.32,1.27-.5,1.91s-.39,1.09-.61,1.64-.45,1.09-.67,1.64q-3.72,8.81-7.64,17.33t-7.8,17.27c-.14.32-.34.79-.58,1.4s-.48,1.25-.72,1.91-.48,1.26-.72,1.81A8.41,8.41,0,0,1,648.32,524.5Z"/><path d="M699.85,466.83c.85-3.33,1.76-6.4,2.75-9.22a28.1,28.1,0,0,1,3.74-7.34,16,16,0,0,1,5.69-4.84,19,19,0,0,1,8.64-1.74,9.57,9.57,0,0,1,1.69.17,5.33,5.33,0,0,1,1.69.61,3.94,3.94,0,0,1,1.31,1.23,3.53,3.53,0,0,1-.44,4.3,22.14,22.14,0,0,1-2.48,2.39c-1,.84-2.1,1.8-3.3,2.87a28.05,28.05,0,0,0-3.47,3.75,26.46,26.46,0,0,0-3,5.05,23.9,23.9,0,0,0-1.92,6.79h.44a5.94,5.94,0,0,0,1.48-.17,6.55,6.55,0,0,1,1.52-.17,7.48,7.48,0,0,1,2.06.28,4.81,4.81,0,0,1,1.8.92,4.58,4.58,0,0,1,1.28,1.67,5.9,5.9,0,0,1,.47,2.46,1.9,1.9,0,0,1-.33,1,2.29,2.29,0,0,1-1.22,2.29,7,7,0,0,1-3,.58,21.71,21.71,0,0,1-3.63-.31,19.9,19.9,0,0,0-3-.31h-.17a28.42,28.42,0,0,0-1.94,6.35c-.56,2.69-1.09,5.71-1.59,9.08s-1,7-1.52,10.82-1.1,7.7-1.72,11.57-1.36,7.64-2.2,11.33a77.37,77.37,0,0,1-2.94,10.06,36.62,36.62,0,0,1-3.94,7.85,12.32,12.32,0,0,1-5.25,4.61,11.2,11.2,0,0,1-2.33.85,9,9,0,0,1-2.22.31,3.71,3.71,0,0,1-1.47-.27,1.57,1.57,0,0,1-.89-1,3.54,3.54,0,0,1-.06-1.81,11.17,11.17,0,0,1,1-2.76,6.34,6.34,0,0,0,.86-2.35c.38-1.48.85-3.44,1.38-5.87s1.13-5.26,1.78-8.47,1.33-6.6,2-10.17,1.47-7.23,2.22-11,1.51-7.4,2.25-11,1.45-6.88,2.11-10,1.28-5.84,1.84-8.16a24.55,24.55,0,0,1-3.28.21,3.05,3.05,0,0,1-1.58-.38c-.43-.25-.64-.81-.64-1.67a4.82,4.82,0,0,1,.19-1.26c.13-.48.25-.9.36-1.27a8,8,0,0,1,.95-1.91,3.68,3.68,0,0,1,1.08-1,3.11,3.11,0,0,1,1.28-.41,14.92,14.92,0,0,1,1.58-.07h1.31a1.71,1.71,0,0,0,2.08-2.15C699.46,468.25,699.66,467.46,699.85,466.83Z"/><path d="M718.11,513.34q0,1,.39,1a2.64,2.64,0,0,0,1.56-.85,24.31,24.31,0,0,0,2.05-2.15c.74-.87,1.52-1.79,2.33-2.77s1.83-2.13,3-3.48a30.5,30.5,0,0,1,2.83-2.86,3,3,0,0,1,1.81-.86.9.9,0,0,1,.77.38,2.52,2.52,0,0,1,.42.92,5.92,5.92,0,0,1,.17,1.13c0,.38,0,.71,0,1a7.79,7.79,0,0,1-.77,3.14q-.78,1.69-9.61,12.35t-13.27,7.44q-4.44-3.21-.39-22.83T714.89,483q1.4-2.22,5.31-2.26c2.61,0,4.26.32,5,1a4.31,4.31,0,0,1,1.05,3.17,14.94,14.94,0,0,1-.53,2.87q-.53,2.11-1.33,4.88t-1.8,5.9c-.67,2.1-1.32,4.12-1.95,6.08s-1.19,3.72-1.69,5.29A16.18,16.18,0,0,0,718.11,513.34ZM725,476.65a5.71,5.71,0,0,1-4.86-.88,9.92,9.92,0,0,1-3.16-3,6.14,6.14,0,0,1-.83-3.11,3.85,3.85,0,0,1,.66-2.11,11.37,11.37,0,0,1,1.58-1.91,10,10,0,0,1,2-1.5,12.68,12.68,0,0,1,1.78-.89,6.55,6.55,0,0,1,1.78-.45c.63-.06,1.24-.1,1.83-.1a5.21,5.21,0,0,1,2.25.51,6.2,6.2,0,0,1,1.89,1.4,6.73,6.73,0,0,1,1.27,2.15,7.79,7.79,0,0,1,.48,2.77,4.53,4.53,0,0,1-.75,2.69,22,22,0,0,1-2.06,2.43A8.07,8.07,0,0,1,725,476.65Z"/><path d="M744.82,445.12a4.92,4.92,0,0,1,2.44.82A13.61,13.61,0,0,1,749.9,448a13.79,13.79,0,0,1,2.14,2.73,5.65,5.65,0,0,1,.89,2.86,17,17,0,0,1-.56,3.31c-.37,1.57-.83,3.4-1.39,5.47s-1.18,4.27-1.89,6.62-1.37,4.59-2,6.75-1.24,4.12-1.78,5.87-.93,3.09-1.19,4c.66-.55,1.54-1.35,2.64-2.39s2.23-2.07,3.44-3.07a39.14,39.14,0,0,1,3.52-2.63,5.64,5.64,0,0,1,2.83-1.13c1.19,0,1.94.39,2.25,1.16a8.44,8.44,0,0,1,.47,3.14,8.88,8.88,0,0,1-1,4.27,12,12,0,0,1-2.52,3.21q-1.56,1.39-5.3,4.47a73.44,73.44,0,0,0-5.61,4.95,6,6,0,0,0-2,3.2,8.89,8.89,0,0,0,.33,3.11c.32,1.18.69,2.41,1.11,3.68s.87,2.43,1.33,3.45a13.78,13.78,0,0,0,1.45,2.53q.75,1,1.41,1a4.24,4.24,0,0,0,2.56-.86,10.66,10.66,0,0,0,2.14-2.11c.64-.84,1.48-2.1,2.49-3.76s1.82-2.91,2.39-3.75a11.74,11.74,0,0,1,1.81-2.12,3,3,0,0,1,2-.85,3.05,3.05,0,0,1,1,.2,3.41,3.41,0,0,1,1,.62,3.57,3.57,0,0,1,.78.95A2.43,2.43,0,0,1,765,504a4.62,4.62,0,0,1-.16,1.12c-.11.43-.24.87-.39,1.3s-.31.85-.47,1.26l-.42,1a42.45,42.45,0,0,1-3.39,6.11,38.32,38.32,0,0,1-4.6,6,25.17,25.17,0,0,1-4.67,3.82,8.91,8.91,0,0,1-4.77,1.54,4.85,4.85,0,0,1-3.06-1,10.58,10.58,0,0,1-2.36-2.56,24.72,24.72,0,0,1-1.86-3.34c-.55-1.2-1.05-2.36-1.5-3.45-.29,1.23-.62,2.63-1,4.2s-.72,3.18-1.11,4.81-.79,3.21-1.22,4.71-.84,2.8-1.25,3.89a3.37,3.37,0,0,1-1.39,1.81,3.72,3.72,0,0,1-2,.58,3,3,0,0,1-2.22-.89,6.51,6.51,0,0,1-1.41-2.18,11.29,11.29,0,0,1-.72-2.83,22.77,22.77,0,0,1-.2-2.83,33.41,33.41,0,0,1,.25-3.52c.17-1.43.4-3,.7-4.68s.61-3.43.94-5.25.69-3.58,1-5.29.72-3.3,1-4.78.58-2.69.81-3.65q2.77-11.81,5.22-23.55t4.83-23.61c.18-.91.38-1.82.58-2.73a10.33,10.33,0,0,1,.86-2.46,5.19,5.19,0,0,1,1.44-1.78A3.66,3.66,0,0,1,744.82,445.12Z"/><path d="M795.23,466.83q1.28-5,2.75-9.22a27.81,27.81,0,0,1,3.75-7.34,15.91,15.91,0,0,1,5.69-4.84,18.94,18.94,0,0,1,8.63-1.74,9.68,9.68,0,0,1,1.7.17,5.42,5.42,0,0,1,1.69.61,3.91,3.91,0,0,1,1.3,1.23,3.53,3.53,0,0,1-.44,4.3,22,22,0,0,1-2.47,2.39q-1.5,1.26-3.3,2.87a27.41,27.41,0,0,0-3.47,3.75,27,27,0,0,0-3,5.05,23.9,23.9,0,0,0-1.92,6.79h.45a5.81,5.81,0,0,0,1.47-.17,6.57,6.57,0,0,1,1.53-.17,7.46,7.46,0,0,1,2.05.28,4.78,4.78,0,0,1,1.81.92,4.55,4.55,0,0,1,1.27,1.67,5.74,5.74,0,0,1,.47,2.46,1.9,1.9,0,0,1-.33,1,2.29,2.29,0,0,1-1.22,2.29,6.94,6.94,0,0,1-2.94.58,21.73,21.73,0,0,1-3.64-.31,19.9,19.9,0,0,0-3-.31h-.17a29,29,0,0,0-1.94,6.35c-.55,2.69-1.08,5.71-1.58,9.08s-1,7-1.53,10.82-1.09,7.7-1.72,11.57-1.36,7.64-2.19,11.33A78.92,78.92,0,0,1,792,538.25,36.62,36.62,0,0,1,788,546.1a12.36,12.36,0,0,1-5.24,4.61,11.08,11.08,0,0,1-2.34.85,8.89,8.89,0,0,1-2.22.31,3.78,3.78,0,0,1-1.47-.27,1.6,1.6,0,0,1-.89-1,3.67,3.67,0,0,1,0-1.81,11.08,11.08,0,0,1,1-2.76,6.14,6.14,0,0,0,.86-2.35q.58-2.22,1.39-5.87c.53-2.44,1.13-5.26,1.78-8.47s1.33-6.6,2-10.17l2.22-11q1.14-5.62,2.25-11t2.11-10c.66-3.12,1.28-5.84,1.83-8.16a24.55,24.55,0,0,1-3.28.21,3.08,3.08,0,0,1-1.58-.38c-.42-.25-.64-.81-.64-1.67A4.87,4.87,0,0,1,786,476c.13-.48.25-.9.36-1.27a8.07,8.07,0,0,1,.94-1.91,3.84,3.84,0,0,1,1.09-1,3.07,3.07,0,0,1,1.27-.41,15.12,15.12,0,0,1,1.59-.07h1.3a5.27,5.27,0,0,0,1.25-.14,5.12,5.12,0,0,0,.83-2C794.84,468.25,795.05,467.46,795.23,466.83Z"/><path d="M831.71,479.11a5,5,0,0,1,6.88-.13,4.67,4.67,0,0,1,1.5,3.75,21.6,21.6,0,0,1-.41,3.62q-.42,2.25-1.09,5T837.1,497q-.84,2.92-1.61,5.69c-.52,1.85-1,3.55-1.48,5.12s-.82,2.86-1.08,3.86q-.61,6.21,3.94,2.39a24.41,24.41,0,0,0,6.44-7.68,33.34,33.34,0,0,1,2.42-4.47,1.76,1.76,0,0,1,1.41-.62,2.53,2.53,0,0,1,2,1.37q.92,1.36,0,3.69a30.34,30.34,0,0,1-1.2,2.79q-8,16.25-13.71,17.24t-8.5-5.84q-4.83,4.79-7,5.57a12.82,12.82,0,0,1-4.42.78,8.4,8.4,0,0,1-5.27-1.57,10.56,10.56,0,0,1-3.22-4.13,20.44,20.44,0,0,1-1.61-5.77,46.51,46.51,0,0,1-.45-6.48,35.64,35.64,0,0,1,1.84-11.43,34,34,0,0,1,5-9.73,25.35,25.35,0,0,1,7.47-6.76,18,18,0,0,1,9.24-2.52,14.72,14.72,0,0,1,2.2.17C830.24,478.78,831,478.93,831.71,479.11Zm-9.08,12.73a20.46,20.46,0,0,0-6.49,9.42q-2.21,6-1.36,10.14t5.91-2.94q5.09-7,6-11.84t.58-6.49Q826.93,488.47,822.63,491.84Z"/><path d="M850,530.3c-2,0-3.87-1.17-5.5-3.51s-2.49-5.66-2.6-9.93.63-10.48,2.22-18.6A147.76,147.76,0,0,1,850,476.52c-.75.09-1.41.19-2,.31a9,9,0,0,1-1.61.17c-1.67-.55-2.45-1.49-2.33-2.84a9.84,9.84,0,0,1,.55-2.9,5.92,5.92,0,0,1,1-1.57,7.24,7.24,0,0,1,1.33-1.16c.48-.32,2.72-.7,6.72-1.16q2.83-7.5,4.5-9.52a8.45,8.45,0,0,1,4.41-2.76,4.13,4.13,0,0,1,4.53,1.29q1.77,2.06-1.34,9.76,3.88-.27,6.08-.47c1.47-.14,3.23-.32,5.31-.55q2.16,1,1.13,4.78t-1.86,4.5a5.89,5.89,0,0,1-3.08.89c-1.5.14-3,.25-4.38.34s-2.74.16-4,.21a4.92,4.92,0,0,0-2.49.54c-.47.32-1.14,1.62-2,3.89S859,484,858.86,484.5q-.55,2.06-1.44,4.95t-1.86,6.18q-1,3.27-1.89,6.69c-.61,2.27-1.13,4.46-1.56,6.55a47.67,47.67,0,0,0-.83,5.73,12.84,12.84,0,0,0,.25,4.24c.22.54.5.82.83.82s1-.35,1.59-1a23.19,23.19,0,0,0,1.94-2.56c.68-1,1.39-2.12,2.11-3.31s2-3.14,3.72-5.87,2.89-4.41,3.41-5.05.93-.93,1.22-.89a2.8,2.8,0,0,1,1.81.72,2.49,2.49,0,0,1,.86,2,9.23,9.23,0,0,1-.5,2.73c-.33,1-.65,1.94-.94,2.67a73.14,73.14,0,0,1-4.06,7.57,81.7,81.7,0,0,1-5,7.85,22.39,22.39,0,0,1-4.05,4.13A7.13,7.13,0,0,1,850,530.3Z"/><path d="M900.83,513.34c0,.66.09,1,.39,1a2.64,2.64,0,0,0,1.56-.85,24.31,24.31,0,0,0,2.05-2.15c.74-.87,1.52-1.79,2.33-2.77s1.82-2.13,3-3.48a29.31,29.31,0,0,1,2.83-2.86,3,3,0,0,1,1.8-.86.91.91,0,0,1,.78.38,2.69,2.69,0,0,1,.42.92,5.22,5.22,0,0,1,.16,1.13q0,.57,0,1a7.65,7.65,0,0,1-.78,3.14q-.76,1.69-9.6,12.35t-13.27,7.44q-4.44-3.21-.39-22.83T897.61,483q1.39-2.22,5.31-2.26c2.6,0,4.26.32,5,1a4.27,4.27,0,0,1,1.06,3.17,14.94,14.94,0,0,1-.53,2.87q-.52,2.11-1.33,4.88t-1.81,5.9c-.66,2.1-1.31,4.12-1.94,6.08s-1.19,3.72-1.69,5.29A16.18,16.18,0,0,0,900.83,513.34Zm6.86-36.69a5.7,5.7,0,0,1-4.86-.88,9.92,9.92,0,0,1-3.16-3,6.16,6.16,0,0,1-.84-3.11,3.86,3.86,0,0,1,.67-2.11,10.91,10.91,0,0,1,1.58-1.91,10,10,0,0,1,2-1.5,12.68,12.68,0,0,1,1.78-.89,6.55,6.55,0,0,1,1.78-.45c.63-.06,1.24-.1,1.83-.1a5.21,5.21,0,0,1,2.25.51,6.2,6.2,0,0,1,1.89,1.4,6.73,6.73,0,0,1,1.27,2.15,7.78,7.78,0,0,1,.47,2.77,4.59,4.59,0,0,1-.74,2.69,22,22,0,0,1-2.06,2.43A8.07,8.07,0,0,1,907.69,476.65Z"/><path d="M959.8,485.6l1.36-2a15.47,15.47,0,0,1,2.27-2.5,5.34,5.34,0,0,1,4.33-1.19c1.84.18,3.25,1.55,4.25,4.1q2.88-5.88,7.19-8.4t6.41-2.52a5.42,5.42,0,0,1,2.95.81,4.81,4.81,0,0,1,1.88,2.7,13.52,13.52,0,0,1,.42,4.95,38.46,38.46,0,0,1-1.47,7.64q-.23.82-.81,2.67c-.39,1.22-.83,2.64-1.33,4.23s-1.76,5.24-3.77,10.95-2.7,8.91-2,9.59,2.38-1,5.13-5.15,4.48-6.61,5.17-7.47a19.23,19.23,0,0,1,1.52-1.78,5.44,5.44,0,0,1,1.34-1.06,3.48,3.48,0,0,1,1.55-.3,2.79,2.79,0,0,1,1.89.88A2.88,2.88,0,0,1,999,504a3.48,3.48,0,0,1-.5,1.81c-.33.56-.64,1.12-.94,1.67a110.73,110.73,0,0,1-8.91,13q-6,7.77-10.36,8.39-6.43.75-7.27-5.42t3.58-19q4.42-12.84.36-12.32t-13,26.92a15.79,15.79,0,0,1-2.39,4.06q-2.06,2.84-4.28,1c-1.48-1.23-1.88-3.58-1.22-7.06s1.28-6.22,1.83-8.23a42,42,0,0,0,1.25-7.23q.42-4.23-1.08-4.71t-4.39,7.61a123.38,123.38,0,0,0-4.46,15.43q-1.59,7.33-4,9.31a4.12,4.12,0,0,1-4.83.72q-2.38-1.26.39-17.17t4.75-20.92q2-5,4.46-7.13c1.67-1.41,4.09-1.88,7.28-1.4S959.91,484.5,959.8,485.6Z"/><path d="M1001.71,513.34q0,1,.39,1a2.64,2.64,0,0,0,1.56-.85,24.31,24.31,0,0,0,2.05-2.15c.74-.87,1.52-1.79,2.33-2.77s1.83-2.13,3-3.48a30.5,30.5,0,0,1,2.83-2.86,3,3,0,0,1,1.81-.86.9.9,0,0,1,.77.38,2.52,2.52,0,0,1,.42.92,5.92,5.92,0,0,1,.17,1.13c0,.38,0,.71,0,1a7.79,7.79,0,0,1-.77,3.14q-.78,1.69-9.61,12.35t-13.27,7.44q-4.44-3.21-.39-22.83T998.49,483q1.39-2.22,5.31-2.26c2.61,0,4.26.32,5,1a4.31,4.31,0,0,1,1.05,3.17,14.94,14.94,0,0,1-.53,2.87q-.52,2.11-1.33,4.88t-1.8,5.9c-.67,2.1-1.32,4.12-1.95,6.08s-1.19,3.72-1.69,5.29A16.18,16.18,0,0,0,1001.71,513.34Zm6.86-36.69a5.71,5.71,0,0,1-4.86-.88,9.92,9.92,0,0,1-3.16-3,6.14,6.14,0,0,1-.83-3.11,3.85,3.85,0,0,1,.66-2.11,11.37,11.37,0,0,1,1.58-1.91,10,10,0,0,1,2-1.5,12.68,12.68,0,0,1,1.78-.89,6.55,6.55,0,0,1,1.78-.45c.63-.06,1.24-.1,1.83-.1a5.21,5.21,0,0,1,2.25.51,6.2,6.2,0,0,1,1.89,1.4,6.73,6.73,0,0,1,1.27,2.15,7.79,7.79,0,0,1,.48,2.77,4.53,4.53,0,0,1-.75,2.69,22,22,0,0,1-2.06,2.43A8.07,8.07,0,0,1,1008.57,476.65Z"/><path d="M1019.59,530.3c-2,0-3.87-1.17-5.5-3.51s-2.49-5.66-2.6-9.93.63-10.48,2.22-18.6a147.76,147.76,0,0,1,5.83-21.74c-.75.09-1.41.19-2,.31a9,9,0,0,1-1.61.17c-1.67-.55-2.45-1.49-2.33-2.84a9.84,9.84,0,0,1,.55-2.9,5.92,5.92,0,0,1,1-1.57,7.24,7.24,0,0,1,1.33-1.16c.48-.32,2.72-.7,6.72-1.16q2.83-7.5,4.5-9.52a8.45,8.45,0,0,1,4.41-2.76,4.13,4.13,0,0,1,4.53,1.29q1.77,2.06-1.34,9.76,3.89-.27,6.08-.47c1.47-.14,3.23-.32,5.31-.55q2.16,1,1.13,4.78t-1.86,4.5a5.89,5.89,0,0,1-3.08.89c-1.5.14-3,.25-4.38.34s-2.74.16-4,.21a4.92,4.92,0,0,0-2.49.54c-.47.32-1.14,1.62-2,3.89s-1.43,3.69-1.61,4.23q-.56,2.06-1.44,4.95t-1.86,6.18q-1,3.27-1.89,6.69c-.61,2.27-1.13,4.46-1.56,6.55a47.67,47.67,0,0,0-.83,5.73,12.84,12.84,0,0,0,.25,4.24c.22.54.5.82.83.82s1-.35,1.59-1a23.19,23.19,0,0,0,1.94-2.56c.68-1,1.39-2.12,2.11-3.31s2-3.14,3.72-5.87,2.89-4.41,3.41-5.05.93-.93,1.23-.89a2.8,2.8,0,0,1,1.8.72,2.49,2.49,0,0,1,.86,2,9.23,9.23,0,0,1-.5,2.73c-.33,1-.65,1.94-.94,2.67a73.14,73.14,0,0,1-4.06,7.57,81.7,81.7,0,0,1-5,7.85,22.39,22.39,0,0,1-4,4.13A7.13,7.13,0,0,1,1019.59,530.3Z"/><path d="M1068.12,492.76a11.49,11.49,0,0,1,1.77-6.14,23,23,0,0,1,4.33-5.12,34.51,34.51,0,0,1,5.42-3.92,46.54,46.54,0,0,1,5.08-2.63c.66-.27,1.34-.51,2-.72a7.64,7.64,0,0,1,2.14-.31,3.47,3.47,0,0,1,1,.17,4.18,4.18,0,0,1,1,.48q.45.31,1.11,3.45a11.07,11.07,0,0,1-.11,5.63,27.66,27.66,0,0,1-2.92,6q-2.13,3.48-3.8,2.6a3,3,0,0,1-1.58-3c.05-1.43-1-1.6-3.11-.51s-2.49,2.89-1.08,5.39a45.66,45.66,0,0,1,2.75,6.21,53.94,53.94,0,0,1,2.27,8.12,22.75,22.75,0,0,1-.47,9.83,21.9,21.9,0,0,1-5.25,9.8,15.45,15.45,0,0,1-10.3,4.88,9.1,9.1,0,0,1-4.44-1.13,10.6,10.6,0,0,1-3.52-3.17,16.28,16.28,0,0,1-2.31-4.85,21.36,21.36,0,0,1-.83-6.07,21,21,0,0,1,1.08-6.93,19.51,19.51,0,0,1,2.75-5.33,13.37,13.37,0,0,1,3.69-3.44,7.56,7.56,0,0,1,3.92-1.23,5.47,5.47,0,0,1,1.89.34,16,16,0,0,1-.84-1.74c-.29-.71-.56-1.46-.8-2.25s-.45-1.57-.61-2.32A9.25,9.25,0,0,1,1068.12,492.76Zm1.83,16a10,10,0,0,0-3.78,6,6.87,6.87,0,0,0,.06,2.87,2.54,2.54,0,0,0,1.33,1.77,3.83,3.83,0,0,0,1.67.34,4.42,4.42,0,0,0,2.5-.78,9.26,9.26,0,0,0,2.08-2,9.89,9.89,0,0,0,1.44-2.63,8,8,0,0,0,.53-2.73,9,9,0,0,0-.81-3.62,32.14,32.14,0,0,0-1.58-3.21,6.41,6.41,0,0,1-.61,1.44,4.76,4.76,0,0,1-.75,1,5.34,5.34,0,0,1-.94.75C1070.74,508.21,1070.36,508.49,1070,508.8Z"/><path d="M1099.15,449.42c.19-.86.38-1.72.59-2.56a8.7,8.7,0,0,1,.86-2.25A5.06,5.06,0,0,1,1102,443a3.64,3.64,0,0,1,2.17-.61,4.71,4.71,0,0,1,2.25.75,12.88,12.88,0,0,1,2.5,1.91,14,14,0,0,1,2,2.53,4.91,4.91,0,0,1,.86,2.59,8.94,8.94,0,0,1-.36,2.53c-.24.82-.47,1.61-.69,2.39q-.94,3.54-1.81,7.13c-.57,2.39-1.16,4.79-1.75,7.2q-2.65,10.65-7,30t-1.39,18.77q3-.59,7.89-7.37t6.44-8.84a1.63,1.63,0,0,1,1.16-.75,1,1,0,0,1,.87.54,4.38,4.38,0,0,1,.55,1.44,9.77,9.77,0,0,1,.19,2.08,12.22,12.22,0,0,1-.27,2.49,7.36,7.36,0,0,1-1.06,2.7,51,51,0,0,1-3.75,5.56c-1.79,2.41-3.45,4.49-5,6.24s-3.82,4.13-6.89,7.14q-5.61,4-10.16-1.68t1.33-34.12Q1096,465.2,1099.15,449.42Z"/><path d="M1119.14,513.34q-.06,1,.39,1a2.62,2.62,0,0,0,1.55-.85,24.28,24.28,0,0,0,2.06-2.15c.74-.87,1.52-1.79,2.33-2.77s1.82-2.13,3-3.48a29.31,29.31,0,0,1,2.83-2.86,3,3,0,0,1,1.8-.86.93.93,0,0,1,.78.38,2.89,2.89,0,0,1,.42.92,5.92,5.92,0,0,1,.16,1.13q0,.57,0,1a7.65,7.65,0,0,1-.78,3.14q-.78,1.69-9.6,12.35t-13.27,7.44q-4.44-3.21-.39-22.83t5.44-21.84q1.38-2.22,5.3-2.26t5,1a4.32,4.32,0,0,1,1.06,3.17,14.94,14.94,0,0,1-.53,2.87c-.35,1.41-.8,3-1.33,4.88s-1.14,3.81-1.81,5.9-1.31,4.12-1.94,6.08-1.19,3.72-1.69,5.29A16.18,16.18,0,0,0,1119.14,513.34Zm6.86-36.69a5.7,5.7,0,0,1-4.86-.88,10,10,0,0,1-3.17-3,6.25,6.25,0,0,1-.83-3.11,3.78,3.78,0,0,1,.67-2.11,10.91,10.91,0,0,1,1.58-1.91,10,10,0,0,1,2-1.5,12.16,12.16,0,0,1,1.78-.89,6.48,6.48,0,0,1,1.77-.45c.63-.06,1.24-.1,1.84-.1a5.27,5.27,0,0,1,2.25.51,6,6,0,0,1,1.88,1.4,6.57,6.57,0,0,1,1.28,2.15,8,8,0,0,1,.47,2.77,4.53,4.53,0,0,1-.75,2.69,21.74,21.74,0,0,1-2.05,2.43A8.07,8.07,0,0,1,1126,476.65Z"/><path d="M1145.85,445.12a5,5,0,0,1,2.44.82,14.24,14.24,0,0,1,2.64,2.05,13.38,13.38,0,0,1,2.13,2.73,5.55,5.55,0,0,1,.89,2.86,16.74,16.74,0,0,1-.55,3.31c-.37,1.57-.84,3.4-1.39,5.47s-1.19,4.27-1.89,6.62-1.38,4.59-2,6.75-1.24,4.12-1.77,5.87-.94,3.09-1.2,4c.67-.55,1.55-1.35,2.64-2.39s2.24-2.07,3.44-3.07a39.22,39.22,0,0,1,3.53-2.63,5.64,5.64,0,0,1,2.83-1.13c1.19,0,1.93.39,2.25,1.16a8.65,8.65,0,0,1,.47,3.14,8.88,8.88,0,0,1-1,4.27,12,12,0,0,1-2.53,3.21q-1.54,1.39-5.3,4.47a73.44,73.44,0,0,0-5.61,4.95,6,6,0,0,0-2,3.2,8.44,8.44,0,0,0,.33,3.11c.31,1.18.68,2.41,1.11,3.68a34.78,34.78,0,0,0,1.33,3.45,13.24,13.24,0,0,0,1.44,2.53c.5.66,1,1,1.42,1a4.19,4.19,0,0,0,2.55-.86,10.66,10.66,0,0,0,2.14-2.11c.65-.84,1.48-2.1,2.5-3.76s1.81-2.91,2.39-3.75a11.71,11.71,0,0,1,1.8-2.12,3,3,0,0,1,2-.85,3.05,3.05,0,0,1,1,.2,3.5,3.5,0,0,1,1.8,1.57A2.33,2.33,0,0,1,1166,504a4.69,4.69,0,0,1-.17,1.12c-.11.43-.24.87-.39,1.3s-.3.85-.47,1.26-.3.75-.41,1a42.45,42.45,0,0,1-3.39,6.11,38.31,38.31,0,0,1-4.61,6,24.8,24.8,0,0,1-4.66,3.82,8.92,8.92,0,0,1-4.78,1.54,4.85,4.85,0,0,1-3-1,10.39,10.39,0,0,1-2.36-2.56,23.68,23.68,0,0,1-1.86-3.34c-.56-1.2-1.06-2.36-1.5-3.45-.3,1.23-.62,2.63-1,4.2s-.72,3.18-1.11,4.81-.8,3.21-1.22,4.71-.84,2.8-1.25,3.89a3.37,3.37,0,0,1-1.39,1.81,3.74,3.74,0,0,1-2,.58,3,3,0,0,1-2.22-.89,6.69,6.69,0,0,1-1.42-2.18,11.29,11.29,0,0,1-.72-2.83,22.64,22.64,0,0,1-.19-2.83,30.9,30.9,0,0,1,.25-3.52c.16-1.43.4-3,.69-4.68s.61-3.43,1-5.25.68-3.58,1-5.29l1-4.78c.31-1.48.58-2.69.8-3.65q2.77-11.81,5.22-23.55t4.83-23.61c.19-.91.38-1.82.59-2.73a10.33,10.33,0,0,1,.86-2.46,5.19,5.19,0,0,1,1.44-1.78A3.66,3.66,0,0,1,1145.85,445.12Z"/><path class="cls-24" d="M1462.8,731.2l-4-21.32-18.16,15.51c-4.79,3.51-9.13,9.27-11.87,16.44-5.42,14.18-2.49,28.48,6.54,31.93s20.74-5.26,26.16-19.45C1464.74,745.88,1465,737.41,1462.8,731.2Z"/><path class="cls-24" d="M1905.77,619.29l-16-2.91,5.38,17a26.24,26.24,0,0,0,7.89,12.79c8.23,7.63,19,9.39,24.08,3.92s2.5-16.08-5.74-23.72C1916.53,621.85,1910.73,619.39,1905.77,619.29Z"/><path class="cls-24" d="M1460,635.49l-3.43-24.94-21.84,17.09c-5.73,3.83-11.06,10.3-14.61,18.48-7,16.19-4.41,32.93,5.85,37.39s24.28-5.07,31.31-21.26C1461.41,652.62,1462.17,642.8,1460,635.49Z"/><path class="cls-24" d="M1384.87,708.2,1383.79,690l-17.32,10.18a29.06,29.06,0,0,0-12,11.86c-6.21,11-5.25,23.24,2.15,27.42s18.41-1.29,24.62-12.25C1384.93,720.65,1386.09,713.67,1384.87,708.2Z"/><ellipse class="cls-22" cx="1661.45" cy="519.46" rx="229.85" ry="235.29"/><path class="cls-25" d="M1864.25,398.21c-11.08-9-21.61-18.28-32.14-27.29s-21.06-17.7-31.72-25.56A227.64,227.64,0,0,0,1767.87,325c-2.76-1.4-5.55-2.68-8.32-3.93s-5.6-2.34-8.42-3.38a154,154,0,0,0-17.11-5.26c-23.06-5.67-47.59-6.18-72.89-4.14q-9.48.75-19.07,2c-6.39.73-12.81,1.74-19.26,2.72s-12.9,2.19-19.39,3.33c-3.24.59-6.49,1.2-9.74,1.85l-2.43.48-2.24.47c-1.47.3-2.94.59-4.38.94a182.78,182.78,0,0,0-33.28,11A146.72,146.72,0,0,0,1522,348.3c-18.08,13.72-33,32.17-44.36,54.08s-19.42,46.78-25.1,72.92c-2.89,13.08-5.13,26.49-7.16,40.13-.93,6.82-1.87,13.7-2.7,20.64s-1.6,13.92-2.52,21c-2.43-6.68-4.46-13.48-6.36-20.33s-3.47-13.81-4.83-20.81a299.52,299.52,0,0,1-5.35-42.82,264.78,264.78,0,0,1,1.27-44.06,224,224,0,0,1,9.59-44.39A190.68,190.68,0,0,1,1454.38,342a175.44,175.44,0,0,1,50.56-52.05q5.07-3.42,10.33-6.5l5.33-3c1.8-.93,3.58-1.89,5.4-2.78a207.85,207.85,0,0,1,45-16.06c1.91-.47,3.83-.88,5.75-1.29.94-.2,2-.42,2.84-.58l2.66-.5c3.54-.68,7.1-1.31,10.66-1.94,7.14-1.24,14.33-2.28,21.59-3.2s14.57-1.64,22-2.18,14.83-.83,22.33-.9,15.07.13,22.68.7c3.81.28,7.62.62,11.45,1.05s7.65,1,11.48,1.62a206.9,206.9,0,0,1,22.89,5.07,187.52,187.52,0,0,1,22.37,7.91c3.64,1.56,7.23,3.26,10.76,5.05s7,3.74,10.35,5.79A166.49,166.49,0,0,1,1790,291.73a199.63,199.63,0,0,1,31.41,32.36,296,296,0,0,1,23.84,36.06A387.16,387.16,0,0,1,1864.25,398.21Z"/><ellipse class="cls-26" cx="1689.5" cy="622" rx="78" ry="101.5"/><path class="cls-27" d="M1729.33,710.76c9.91-36.77,3.45-73.63-14.42-82.33-8.18-4-17.33-1.36-25.8,6.15-5.4-11.08-12.92-18.06-21.59-18.61-19.1-1.19-36.55,29.27-39,68"/><ellipse class="cls-27" cx="1683" cy="693" rx="54" ry="47"/><ellipse class="cls-28" cx="1665.96" cy="475.36" rx="26.63" ry="10.21" transform="translate(-65 547.36) rotate(-18.31)"/><polygon class="cls-29" points="1791.05 461.18 1710.28 420.21 1712.13 416.58 1780.85 457.53 1791.05 461.18"/><polygon class="cls-29" points="1520.36 486.4 1586.99 428.77 1585.8 427.4 1528.66 480.03 1520.36 486.4"/><path class="cls-24" d="M1874.25,474,1848,467.31l4.54,29.28c.55,7.41,3.9,15.49,9.91,22.45,11.88,13.79,29.66,17.94,39.7,9.28s8.54-26.85-3.35-40.63C1891.76,479.49,1882.62,474.7,1874.25,474Z"/><path class="cls-24" d="M1868,553l-19.18-3.36,5.71,20.59a30,30,0,0,0,8.94,15.45c9.61,9.17,22.58,11.18,29,4.49s3.78-19.56-5.83-28.73C1880.89,555.94,1874,553,1868,553Z"/><path class="cls-24" d="M1511.5,536.88l-6-22.37-20.92,14.16a31.6,31.6,0,0,0-13.31,15.75c-5.69,14.08-1.36,29.11,9.68,33.58s24.6-3.34,30.29-17.42C1514.66,552.21,1514.5,543.51,1511.5,536.88Z"/><path class="cls-24" d="M1513.64,632.54l-3.8-18.89L1492.09,625a27.31,27.31,0,0,0-11.6,12.88c-5.31,11.66-2.49,24.37,6.31,28.37s20.23-2.2,25.54-13.87C1515.5,645.47,1515.78,638.17,1513.64,632.54Z"/></svg>
