<svg id="Layer_1" data-name="Layer 1" xmlns="http://www.w3.org/2000/svg" width="1920" height="1080" viewBox="0 0 1920 1080"><defs><style>.cls-1{fill:#fff600;}.cls-2{fill:#fff;}.cls-3{fill:#7f4b00;}.cls-4{fill:none;stroke:#9c7433;stroke-miterlimit:10;stroke-width:300px;}.cls-5{fill:#ffaafe;}.cls-6{fill:#80557f;}.cls-7{fill:#2a9aff;}.cls-8{fill:#ff3f4a;}.cls-9{fill:#007f2e;}.cls-10{fill:#9200ff;}</style></defs><title>spille_skaerm forgrund</title><path class="cls-1" d="M1237.39,1025.82a186.72,186.72,0,0,0-9.89,60.18h76.06A498.35,498.35,0,0,1,1237.39,1025.82Z"/><path class="cls-2" d="M1237.39,1025.82a498.35,498.35,0,0,0,66.17,60.18H1346a913.76,913.76,0,0,1-68.38-126.91A182.23,182.23,0,0,0,1237.39,1025.82Z"/><path class="cls-1" d="M1277.6,959.09A913.76,913.76,0,0,0,1346,1086H1364c-18.74-53.76-29.72-110.31-29.55-166.94A174.61,174.61,0,0,0,1277.6,959.09Z"/><path class="cls-2" d="M1334.49,919.06c-.17,56.63,10.81,113.18,29.55,166.94h35.41c.14-60.27.9-120.51,1-181A168.42,168.42,0,0,0,1334.49,919.06Z"/><path class="cls-2" d="M1486.08,927.37c-2.59,54.57-17.18,108.26-39.24,158.63H1576.5C1576.5,1017.66,1540,958.17,1486.08,927.37Z"/><path class="cls-1" d="M1402,905l-1.52,0c-.13,60.47-.89,120.71-1,181h47.39c22.06-50.37,36.65-104.06,39.24-158.63A168.84,168.84,0,0,0,1402,905Z"/><path class="cls-3" d="M1453,776h0"/><path class="cls-4" d="M2049.47,864.37c-161-82.94-332.6-70.49-383.23,27.81s38.88,245.27,199.89,328.21"/><ellipse class="cls-5" cx="1727.5" cy="1077" rx="113" ry="97"/><ellipse class="cls-5" cx="1648" cy="936" rx="123.5" ry="97"/><ellipse class="cls-5" cx="1728.5" cy="803.5" rx="119" ry="102.5"/><ellipse class="cls-5" cx="1898.5" cy="785" rx="127" ry="97"/><rect class="cls-6" x="1662.5" y="835" width="42" height="11"/><rect class="cls-7" x="1716.5" y="754" width="42" height="11" transform="translate(258.26 -426.92) rotate(15.12)"/><rect class="cls-8" x="1690.5" y="931" width="42" height="11" transform="translate(303.53 -414.01) rotate(15.12)"/><rect class="cls-9" x="1576.5" y="906" width="42" height="11" transform="translate(-236.25 769.34) rotate(-25.28)"/><rect class="cls-10" x="1821.5" y="790" width="42" height="11" transform="translate(271.29 -453.07) rotate(15.12)"/><rect class="cls-1" x="1662.5" y="1035" width="42" height="11" transform="translate(329.69 -403.11) rotate(15.12)"/></svg>