<svg id="Layer_1" data-name="Layer 1" xmlns="http://www.w3.org/2000/svg" width="1920" height="1080" viewBox="0 0 1920 1080"><defs><style>.cls-1{fill:#d8d0ff;}.cls-2{fill:#7abf5f;}.cls-3{fill:#7f4b00;}.cls-4{fill:#816006;}</style></defs><title>spille_skaerm_Rum</title><rect class="cls-1" x="9.5" y="13" width="1920" height="1080"/><path class="cls-2" d="M1905.39,1094H36.61A29.14,29.14,0,0,1,7.5,1065V719c0-16,13.1-29,2-32L1531,708c43.11,3,403.47-5,403.47,11v346A29.14,29.14,0,0,1,1905.39,1094Z"/><path class="cls-3" d="M1453,776h0"/><path class="cls-4" d="M489.68,335.24c-.43.46-.83.95-1.22,1.44,1.23-.55,2.45-1.11,3.65-1.7Z"/><path class="cls-4" d="M612.7,290l-.1,0,.9,0Z"/><path class="cls-4" d="M646.55,348c.1-.42.19-.84.26-1.26L645,348Z"/></svg>
