<svg id="Layer_1" data-name="Layer 1" xmlns="http://www.w3.org/2000/svg" width="1920" height="1080" viewBox="0 0 1920 1080"><defs><style>.cls-1{fill:#f5e0ff;}.cls-2{fill:#ffe12a;}.cls-3{fill:#eebfff;}.cls-4{fill:#7c7f00;}.cls-5{fill:#ffb494;stroke:#bf4200;}.cls-11,.cls-5{stroke-miterlimit:10;}.cls-6{fill:#ffe9fb;}.cls-7{fill:#ffe93f;}.cls-8{fill:#ffd115;}.cls-9{fill:#ffbfc7;}.cls-10{fill:#ff55be;}.cls-11{fill:none;stroke:#000;stroke-width:3px;}.cls-12{fill:#ff77cb;}.cls-13{fill:#ffade0;}.cls-14{fill:#ff8c88;}</style></defs><title>Start_skaerm lille pige</title><rect class="cls-1" x="-7" y="-2" width="1920" height="1080"/><path class="cls-2" d="M1471.94,795.15c7.07-30.12-15.65-91.23,32.63-146.2s111.94-78.62,142.2-52.84,35.62,112.55-32.63,146.19C1526.47,785.53,1471.82,795.68,1471.94,795.15Z"/><path class="cls-2" d="M1907.34,697.3c-45.58-21.56-68.08-68.54-50.25-104.94s84.33-74.09,114.83-26.87c39.18,60.65,27,161,26.56,161.12"/><ellipse class="cls-3" cx="1753.91" cy="733.77" rx="17.2" ry="12.58" transform="translate(-144.93 828.67) rotate(-25.56)"/><rect class="cls-4" x="1492.3" y="783.8" width="3.78" height="88.91"/><ellipse class="cls-5" cx="1494.19" cy="756.55" rx="37.81" ry="31.55"/><path class="cls-6" d="M1512.87,835.46a26.79,26.79,0,0,0-.42-7.3c-1.83-9.27-8-15.36-13.79-13.58-4,1.21-6.7,5.78-7.45,11.52-13.09-3.61-23.86-2.62-27.1,3.44-4.67,8.71,8,24.58,28.31,35.46s40.54,12.63,45.2,3.92C1542,860.73,1531.07,846.21,1512.87,835.46Z"/><path class="cls-3" d="M1644.46,1083.13C1579.22,1008.34,1703,783.69,1781,782S2007.38,970,1947.69,1082.53"/><ellipse class="cls-6" cx="1761.5" cy="724.96" rx="154.5" ry="154.38"/><path class="cls-3" d="M1945.16,903h-71.3c5.39,0,1.66-7.45,1.66-16.56h0a36.82,36.82,0,0,1,6.46-20.46l74.61-9.94c6.39,3.9,1.83,21.29,1.83,30.4h0C1958.42,895.51,1959.67,903,1945.16,903Z"/><path class="cls-3" d="M1664.47,891.53l-49.14,9c-1.7-.41-13.52-5.53-26-9.72l-39.54-50.7c-10-12.77-16.74-5.72-26.07,1.56s-30.27,17.15-29.87,25.9l61.39,57.72c1.12-.13,2.41-.35,3.83-.65l93,22.87c4.82-10.5,10.36-19.78,13.46-32h0C1668.6,903.19,1668.14,892.43,1664.47,891.53Z"/><path class="cls-7" d="M1897,655c-8.33-5.17-16.06-10.75-23.74-16.06s-15.14-10.46-22.55-15a152.74,152.74,0,0,0-22-11.28,106.58,106.58,0,0,0-21.61-6.22c-3.63-.61-7.26-1.13-11-1.4s-7.45-.45-11.26-.51c-1.9,0-3.82,0-5.76.07s-3.88.11-5.84.21c-3.92.23-7.9.5-11.91.93s-8.09.86-12.18,1.44-8.23,1.18-12.38,1.86-8.35,1.43-12.56,2.16c-2.11.4-4.22.76-6.33,1.18l-5.87,1.16c-14.42,3.1-27.33,8.14-38.51,15.66a90.55,90.55,0,0,0-15.63,13.3A109.36,109.36,0,0,0,1644.59,660c-8.09,13-14.43,28.55-19.51,45.36-2.56,8.42-4.8,17.16-6.91,26.15s-4,18.23-6.26,27.74a143.73,143.73,0,0,1-5.76-13.4c-1.65-4.55-3.2-9.17-4.52-13.87a179.26,179.26,0,0,1-5.58-29,163.84,163.84,0,0,1-.44-30.41,141.57,141.57,0,0,1,6-31.18,127.91,127.91,0,0,1,14.06-30.3,122.09,122.09,0,0,1,22.64-26.23c2.19-1.92,4.47-3.75,6.78-5.53s4.72-3.41,7.16-5a128.43,128.43,0,0,1,15.11-8.47A147.49,147.49,0,0,1,1699.29,555l4-.85,3.63-.66c2.4-.45,4.83-.84,7.24-1.25,4.87-.79,9.77-1.42,14.72-2s10-.94,15-1.25,10.18-.4,15.36-.32,10.39.27,15.66.79c2.64.26,5.28.54,7.94.89s5.31.82,8,1.31a147.24,147.24,0,0,1,16,3.91,131,131,0,0,1,15.61,5.93,116,116,0,0,1,27.9,17.82,128.83,128.83,0,0,1,21,23.23A178.92,178.92,0,0,1,1886.2,628,209.8,209.8,0,0,1,1897,655Z"/><polygon class="cls-8" points="1733.75 616 1733.75 562 1742.04 616 1733.75 616"/><path class="cls-9" d="M1812.41,750.5c14,40.09-2.82,80.08-29.34,86.38s-68-23.17-66.68-63.58"/><path class="cls-10" d="M1624.64,670.13a14.46,14.46,0,0,0-.44-1.46c-1.49-4.06,0-8.69,3.54-12.23l28-28.28c8.24-8.34,3.19-20.1-9.09-21.17l-56.31-4.91c-12.28-1.07-22.58,9.35-18.54,18.75l14.57,33.94c1.65,3.84.86,8.23-2,11.94a16.19,16.19,0,0,0-3.25,13.82,14.49,14.49,0,0,0,1.39,3.54c2.19,4,1.69,8.78-1.36,12.77l-23.4,30.58c-6.93,9.05,0,20,12.51,19.74l54.71-1.24c12.49-.29,21.16-11.61,15.6-20.39L1621.87,696a11.6,11.6,0,0,1,.19-13A16,16,0,0,0,1624.64,670.13Z"/><path class="cls-11" d="M1727.2,708.38c-5.4-23.61-17.67-41-27.42-38.72S1679,689,1691.91,716.45"/><path class="cls-11" d="M1819.6,687.75c-1.6-29.75-17.07-38.32-26.82-36.09s-13.54,22-8.47,44.16"/><path class="cls-12" d="M1785.24,827.81c.22-10-22.13-30.31-32.76-30.31s-19.24,8.59-19.24,18.58,13.1,9.44,19.24,17.6C1761.71,845.94,1785,840.26,1785.24,827.81Z"/><path class="cls-12" d="M1783,834.84c28.89-9.23,26.88-39.86.5-40.84-10.22-.38-18.52,8.9-18.52,19.88s8.29,19.89,18.52,19.89S1773.22,838,1783,834.84Z"/><ellipse class="cls-13" cx="1852.5" cy="755.5" rx="12.5" ry="22.5" transform="translate(733.64 2414.02) rotate(-78.18)"/><ellipse class="cls-13" cx="1675.5" cy="786.5" rx="22.5" ry="12.5" transform="translate(-175.36 800) rotate(-25.56)"/><ellipse class="cls-14" cx="1757.95" cy="740.06" rx="17.86" ry="6.71" transform="translate(-141.97 571.58) rotate(-17.76)"/></svg>