<svg id="Layer_1" data-name="Layer 1" xmlns="http://www.w3.org/2000/svg" width="1920" height="1080" viewBox="0 0 1920 1080"><defs><style>.cls-1{fill:#f5e0ff;}.cls-2{fill:#7f4b00;}.cls-3{fill:#553600;}.cls-4{fill:#15aaff;}.cls-5{fill:#ffdfd4;}.cls-6{fill:#ffca7f;}.cls-7{fill:#ff3f44;}.cls-8{fill:#bf009a;}.cls-9{fill:#00948e;}.cls-10{fill:#ff006c;}.cls-11{fill:#d40011;}.cls-12{fill:#3200ff;}.cls-13{fill:#3f90ff;}.cls-14{fill:#aa0004;}.cls-15{fill:#fff;}.cls-16{fill:#bf1400;}.cls-17{fill:#000655;}.cls-18{fill:#ff15cb;}.cls-19{fill:#ff338a;}.cls-20{fill:#ffe12a;}.cls-21{fill:#eebfff;}.cls-22{fill:#7c7f00;}.cls-23{fill:#ffb494;stroke:#bf4200;}.cls-23,.cls-29{stroke-miterlimit:10;}.cls-24{fill:#ffe9fb;}.cls-25{fill:#ffe93f;}.cls-26{fill:#ffd115;}.cls-27{fill:#ffbfc7;}.cls-28{fill:#ff55be;}.cls-29{fill:none;stroke:#000;stroke-width:3px;}.cls-30{fill:#ff77cb;}.cls-31{fill:#ffade0;}.cls-32{fill:#ff8c88;}</style></defs><title>Start_skaerm</title><rect class="cls-1" y="2" width="1920" height="1080"/><rect class="cls-2" x="621.14" y="810" width="27.96" height="184.23" rx="6.5" ry="6.5"/><path class="cls-3" d="M1892.89,1090H24.11A29.14,29.14,0,0,1-5,1061V715c0-16,13.1-29,2-32l1521.52,21c43.11,3,403.47-5,403.47,11v346A29.14,29.14,0,0,1,1892.89,1090Z"/><rect class="cls-2" x="384.36" y="443.87" width="27.96" height="183.94" rx="6.5" ry="6.5"/><ellipse class="cls-4" cx="395.11" cy="347.86" rx="126.89" ry="122.29"/><ellipse class="cls-5" cx="396.18" cy="347.86" rx="120.44" ry="113.19"/><ellipse class="cls-4" cx="396.18" cy="347.86" rx="111.84" ry="105.11"/><ellipse class="cls-5" cx="396.18" cy="347.86" rx="103.23" ry="97.02"/><ellipse class="cls-4" cx="395.11" cy="348.87" rx="95.71" ry="89.95"/><ellipse class="cls-5" cx="395.11" cy="348.87" rx="87.1" ry="81.86"/><ellipse class="cls-4" cx="395.11" cy="348.87" rx="79.58" ry="74.79"/><ellipse class="cls-5" cx="395.11" cy="348.87" rx="70.97" ry="66.7"/><rect class="cls-6" x="392.96" y="472.17" width="17.21" height="155.64" rx="4" ry="4"/><ellipse class="cls-4" cx="394.11" cy="348.87" rx="64.52" ry="60.64"/><rect class="cls-2" x="167" y="389.3" width="28.1" height="217.7" rx="6.5" ry="6.5"/><ellipse class="cls-7" cx="175.89" cy="293.29" rx="126.89" ry="122.29"/><ellipse class="cls-5" cx="176.97" cy="293.29" rx="120.44" ry="113.19"/><ellipse class="cls-5" cx="178.97" cy="293.29" rx="103.23" ry="97.02"/><ellipse class="cls-7" cx="177.89" cy="294.3" rx="95.71" ry="89.95"/><ellipse class="cls-5" cx="177.89" cy="294.3" rx="87.1" ry="81.86"/><ellipse class="cls-7" cx="177.89" cy="294.3" rx="79.58" ry="74.79"/><ellipse class="cls-5" cx="177.89" cy="294.3" rx="70.97" ry="66.7"/><rect class="cls-6" x="175.74" y="417.6" width="17.21" height="155.64" rx="4" ry="4"/><ellipse class="cls-7" cx="177.89" cy="294.3" rx="64.52" ry="60.64"/><rect class="cls-2" x="287.58" y="652.06" width="27.96" height="183.94" rx="6.5" ry="6.5"/><ellipse class="cls-7" cx="298.33" cy="556.05" rx="126.89" ry="122.29"/><ellipse class="cls-5" cx="299.4" cy="556.05" rx="120.44" ry="113.19"/><ellipse class="cls-7" cx="299.4" cy="556.05" rx="111.84" ry="105.11"/><ellipse class="cls-5" cx="299.4" cy="556.05" rx="103.23" ry="97.02"/><ellipse class="cls-7" cx="298.33" cy="557.06" rx="95.71" ry="89.95"/><ellipse class="cls-5" cx="298.33" cy="557.06" rx="87.1" ry="81.86"/><ellipse class="cls-7" cx="298.33" cy="557.06" rx="79.58" ry="74.79"/><ellipse class="cls-5" cx="298.33" cy="557.06" rx="70.97" ry="66.7"/><rect class="cls-6" x="296.18" y="680.36" width="17.21" height="155.64" rx="4" ry="4"/><ellipse class="cls-7" cx="298.33" cy="555.04" rx="64.52" ry="60.64"/><rect class="cls-2" x="501.52" y="620.84" width="25.64" height="136.36" rx="6.5" ry="6.5"/><ellipse class="cls-7" cx="518" cy="548.66" rx="102" ry="91.66"/><ellipse class="cls-5" cx="518.86" cy="548.66" rx="96.81" ry="84.84"/><ellipse class="cls-5" cx="518.86" cy="548.66" rx="82.98" ry="72.72"/><ellipse class="cls-7" cx="518" cy="549.42" rx="76.93" ry="67.42"/><ellipse class="cls-5" cx="518" cy="549.42" rx="70.02" ry="61.36"/><ellipse class="cls-7" cx="518" cy="549.42" rx="63.97" ry="56.06"/><ellipse class="cls-5" cx="518" cy="549.42" rx="57.05" ry="50"/><rect class="cls-6" x="502.41" y="642" width="8" height="115.2" rx="4" ry="4"/><ellipse class="cls-7" cx="518" cy="549.42" rx="51.86" ry="45.45"/><ellipse class="cls-7" cx="633.85" cy="746.46" rx="116.38" ry="90.66"/><ellipse class="cls-5" cx="634.84" cy="746.46" rx="110.47" ry="83.91"/><ellipse class="cls-7" cx="634.84" cy="746.46" rx="102.58" ry="77.92"/><ellipse class="cls-5" cx="634.84" cy="746.46" rx="94.68" ry="71.93"/><ellipse class="cls-7" cx="633.85" cy="747.21" rx="87.78" ry="66.68"/><ellipse class="cls-5" cx="633.85" cy="747.21" rx="79.89" ry="60.69"/><ellipse class="cls-7" cx="633.85" cy="747.21" rx="72.99" ry="55.44"/><ellipse class="cls-5" cx="633.85" cy="747.21" rx="65.1" ry="49.45"/><ellipse class="cls-7" cx="633.85" cy="745.71" rx="59.18" ry="44.95"/><circle class="cls-8" cx="875" cy="769" r="10"/><circle class="cls-9" cx="989.5" cy="867.5" r="8.5"/><circle class="cls-9" cx="835.5" cy="867.5" r="8.5"/><circle class="cls-9" cx="1094.5" cy="744.5" r="8.5"/><circle class="cls-10" cx="1169.5" cy="859.5" r="8.5"/><circle class="cls-11" cx="474.5" cy="833.5" r="8.5"/><circle class="cls-9" cx="257.5" cy="924.5" r="8.5"/><ellipse class="cls-12" cx="410.26" cy="916.85" rx="55" ry="37" transform="translate(-226.51 140.03) rotate(-15.24)"/><polygon class="cls-12" points="502.72 909.02 511.02 894.99 493.84 893.45 499.22 877.65 481.27 880.26 483.29 863.52 470.36 867.32 471.8 869.83 470 867.56 443.13 913.45 502.53 909.34 502.53 909.34 502.53 909.34 502.94 909.31 502.72 909.02"/><polygon class="cls-12" points="323.65 920 312.31 931.73 328.66 937.21 319.76 951.33 337.82 952.96 331.97 968.77 345.44 968.09 344.61 965.3 345.83 967.93 382.64 929.55 323.91 919.74 323.9 919.74 323.9 919.74 323.49 919.67 323.65 920"/><path class="cls-13" d="M463.33,902.4C469.4,924.69,444.15,946,420,952.55"/><path class="cls-14" d="M636,204.68a65.45,65.45,0,0,1,18.32-11.78c-4.92-10.12-10.14-20.21-14.82-30.48-3.45.61-6.89,1.27-10.34,2a217.83,217.83,0,0,0-26.56,7.61,100.66,100.66,0,0,0-22.36,11,136.47,136.47,0,0,0-22.15,18c24,4.78,47.71,6.91,71.66,10.2A61.4,61.4,0,0,1,636,204.68Z"/><path class="cls-15" d="M616.75,263.86a72.1,72.1,0,0,1-1-12.4,62.57,62.57,0,0,1,5.47-26.37,64.77,64.77,0,0,1,8.5-13.76c-24-3.29-47.67-5.42-71.66-10.2a105.13,105.13,0,0,0-12.72,15.66Q533,235.65,529.64,255.27a88.14,88.14,0,0,0,1.86,38.47,91.43,91.43,0,0,0,5.87,15.62c26.31-15.47,51.09-35.2,79.46-45.13C616.81,264.1,616.77,264,616.75,263.86Z"/><path class="cls-14" d="M637.78,288A42.62,42.62,0,0,1,627,281.83a27.53,27.53,0,0,1-6.74-7.91,30.91,30.91,0,0,1-3.44-9.69c-28.37,9.93-53.15,29.66-79.46,45.13a91,91,0,0,0,11.71,18.37,97.56,97.56,0,0,0,31.28,24.81A605.07,605.07,0,0,1,637.78,288Z"/><path class="cls-15" d="M667,292.67a109.38,109.38,0,0,1-14.85-1A61.61,61.61,0,0,1,637.85,288l-.07,0a605.07,605.07,0,0,0-57.42,64.59l.16.09q19.05,9.76,43.65,10.94c2.08.13,4.14.22,6.16.29s4.06.1,6.15.1A234.27,234.27,0,0,0,693.8,357l.19,0c-9.77-20.62-16.29-42.42-22.3-64.44C670.07,292.62,668.47,292.67,667,292.67ZM636,291h0Z"/><path class="cls-14" d="M755.62,268.26a249.24,249.24,0,0,1-31.35,13.28,222.53,222.53,0,0,1-31,8.3,158.48,158.48,0,0,1-21.62,2.7c6,22,12.53,43.82,22.3,64.44a256.63,256.63,0,0,0,51.47-18.8,240.29,240.29,0,0,0,43.75-27.74c1.21-1,2.38-1.94,3.55-2.91-12.31-13-24.1-26.41-35.56-40.1Z"/><path class="cls-15" d="M847.81,179.29a80,80,0,0,0-13-21.09A98,98,0,0,0,816,141.3c-1.31-.9-2.64-1.76-4-2.63-6.54,10.87-14.55,21-20.24,32.75l.48.35A55.9,55.9,0,0,1,805,185.83a32.82,32.82,0,0,1,5.08,18,46.38,46.38,0,0,1-7.42,25.1,89.36,89.36,0,0,1-19.53,21.68,151.65,151.65,0,0,1-26,16.85c11.46,13.69,23.25,27.06,35.56,40.1A214.91,214.91,0,0,0,823.1,277,150.56,150.56,0,0,0,845,240.72a110,110,0,0,0,4.1-11.57c-15-.9-30.05.6-45.07-.15,15,.75,30-.75,45.07.15A86.23,86.23,0,0,0,852.69,205,65.77,65.77,0,0,0,847.81,179.29Z"/><path class="cls-15" d="M661.54,86c0,.65-.06,1.31-.06,2a36.67,36.67,0,0,0,6.83,21.88,70.31,70.31,0,0,0,17,16.7,112.42,112.42,0,0,0,22.07,12,195.36,195.36,0,0,0,21.87,7.62l.81.23c1.05-12.62,7-23.63,13.25-34.51q-2.84-.81-5.66-1.66-3.12-1-8.79-3.13A92.45,92.45,0,0,1,717.73,102a44.63,44.63,0,0,1-9.47-6.64c-2.68-2.47-4-5-4-7.61a6.54,6.54,0,0,1,.31-1.93C690.16,86.11,675.8,86.32,661.54,86Z"/><path class="cls-14" d="M727,32l-2.5.6a164.11,164.11,0,0,0-23.15,7.81A89.66,89.66,0,0,0,681.2,52,59.18,59.18,0,0,0,667,67.77,37.19,37.19,0,0,0,661.54,86c14.26.31,28.62.1,43-.15a10.13,10.13,0,0,1,2.13-3.64,47.62,47.62,0,0,1,4.2-4.39q4.7-4.11,14.65-8.4c2.28-1,4.65-1.94,7.09-2.86C730,55.31,726.48,44.16,727,32Z"/><path class="cls-15" d="M787,27.47l-1.24-.13q-7.32-.69-13.18-.69h-5.27a153.77,153.77,0,0,0-19.92,1.47A190.66,190.66,0,0,0,727,32c-.49,12.15,3,23.3,5.66,34.56q7-2.64,14.88-5a232.78,232.78,0,0,1,24.71-5.76q7.66-1.35,14.47-1.88C786.36,45.12,787.67,36.05,787,27.47Z"/><path class="cls-15" d="M806,72.75a65.67,65.67,0,0,1-11,6.54q-6.35,3-12,5.66c-1.25.59-2.42,1.16-3.55,1.72,4.87.35,9.74.78,14.59,1.33-4.85-.55-9.72-1-14.59-1.33-2.26,1.13-4.28,2.22-6,3.27q-3.9,2.34-3.9,4.68a9,9,0,0,0,.68,3.81c.45,1,.94,2.18,1.46,3.61.79,2.09,1.6,4.08,2.45,6a19.84,19.84,0,0,0,3.12,5,15,15,0,0,0,4.49,3.52,14.15,14.15,0,0,0,6.55,1.36,22,22,0,0,0,11.91-3.41q5.46-3.42,10.55-6.94a133.49,133.49,0,0,0,10.84-8.1,81.72,81.72,0,0,0,10.15-10c.41-.48.79-1,1.18-1.47-9.15-5.09-16.34-13-26.51-15.51Z"/><path class="cls-14" d="M842.14,64.74a25.73,25.73,0,0,0-3.51-13.48,33.81,33.81,0,0,0-9.38-10.06,58.7,58.7,0,0,0-13.28-7,104.7,104.7,0,0,0-15.14-4.49A130.69,130.69,0,0,0,787,27.47c.64,8.58-.67,17.65-.34,26.5q4.47-.36,8.58-.36a69.69,69.69,0,0,1,9.37.58,11.83,11.83,0,0,1,7.23,3.71q2.93,3.14.88,7.23a21.84,21.84,0,0,1-6.39,7.34C816.53,75,823.72,82.89,832.87,88a51.12,51.12,0,0,0,6.34-10.15A30.4,30.4,0,0,0,842.14,64.74Z"/><path class="cls-14" d="M743.7,150a124.31,124.31,0,0,1,14.26,4.2,153.33,153.33,0,0,1,17.39,7.13,91.07,91.07,0,0,1,16.41,10.1c5.69-11.72,13.7-21.88,20.24-32.75a166.45,166.45,0,0,0-18.49-10.45,105.81,105.81,0,0,0-13.57-5.67q-6.95-2.34-14-4.39t-14.16-3.91c-2.85-.74-5.68-1.53-8.5-2.34-6.3,10.88-12.2,21.89-13.25,34.51Q736.87,148.43,743.7,150Z"/><path class="cls-15" d="M757.57,183.78a31.43,31.43,0,0,0-4.1-5.17A44.83,44.83,0,0,0,739,168.16,87.77,87.77,0,0,0,720.56,162a136.9,136.9,0,0,0-19.92-2.84q-10.07-.67-18.65-.68a242.22,242.22,0,0,0-25.3,1.46c-5.73.61-11.47,1.45-17.2,2.47,4.68,10.27,9.9,20.36,14.82,30.48,1.14-.49,2.28-1,3.46-1.4a74.87,74.87,0,0,1,26.56-4.69,100.23,100.23,0,0,1,26.56,3.52q8.6,2.14,17.78,5.17a57.63,57.63,0,0,0,18.16,3,24.68,24.68,0,0,0,4.2-.39,12.32,12.32,0,0,0,4.1-1.47,11.16,11.16,0,0,0,3.13-2.63,6,6,0,0,0,1.26-3.91A11.57,11.57,0,0,0,757.57,183.78Z"/><path class="cls-14" d="M928.92,135q6.2-21.43,10.88-36.67,3.08-10.2,6.06-20.31a140,140,0,0,1-42.3-5.09q-6.07,24.27-13.91,55.23C902,133.61,916.17,135.6,928.92,135Z"/><path class="cls-15" d="M915,184.17q7.72-27.69,13.93-49.17c-12.75.6-26.95-1.39-39.27-6.84q-4.7,18.51-10,39.41-1.8,7.08-3.32,13.66c12.29,3.64,26.83,3.16,38.45,3.76C914.85,184.71,914.92,184.45,915,184.17Z"/><path class="cls-14" d="M938.7,215.83l-.85,1q-17.19,19.44-27.74,21.09T914.77,185c-11.62-.6-26.16-.12-38.45-3.76q-4.73,20.45-6.77,36.14c12.41-1.84,24.76-4.1,37.45-2.37h0c-12.69-1.73-25,.53-37.45,2.37q-4.87,37.37,5.41,47.86,15.72,16,35,5.16v0l.7-.38q16.2-12.88,24.22-20.41t17.48-17.87c.21-.24.41-.46.63-.69C948.12,226.1,943.13,221.24,938.7,215.83Z"/><path class="cls-15" d="M952.3,57.32q1.17-3.32,2.44-6.84A21,21,0,0,0,956,43.26c0-2.35-1-4.82-3-7.43a42.51,42.51,0,0,0-7.22-7.22A44.94,44.94,0,0,0,937,23.14,19.35,19.35,0,0,0,929.06,21a14.67,14.67,0,0,0-7.62,1.76,15.61,15.61,0,0,0-4.88,4.59,22.35,22.35,0,0,0-3,6.44c-.72,2.41-1.4,4.86-2,7.33q-3.5,14.13-7.92,31.82A140,140,0,0,0,945.86,78l.09-.29Q949,67.47,952.3,57.32Z"/><path class="cls-14" d="M969.58,195a10.87,10.87,0,0,0-2-4.1,3.8,3.8,0,0,0-3-1.56,6.06,6.06,0,0,0-4.1,2.15q-5.32,5.7-21.8,24.33c4.43,5.41,9.42,10.27,14.33,15.21a145.51,145.51,0,0,0,12.55-15.23q3.7-5.56,3.71-7.71a28,28,0,0,0,1-7.13A22.92,22.92,0,0,0,969.58,195Z"/><path class="cls-16" d="M988.82,116.5a23.9,23.9,0,0,0,17.09,2.54q8.9-2,13.48-5.86a69.92,69.92,0,0,0,7.23-6.94,11.34,11.34,0,0,0,2.63-7.71,18.66,18.66,0,0,0-6.15-14.06,21.42,21.42,0,0,0-6.64-4,22,22,0,0,0-7.91-1.46c-2.09,0-4.23.1-6.45.29a27.71,27.71,0,0,0-6.25,1.27,49.26,49.26,0,0,0-6.25,2.54,36.43,36.43,0,0,0-6.93,4.3,34.37,34.37,0,0,0-5.57,5.46,9.64,9.64,0,0,0-2.34,6.06,15.32,15.32,0,0,0,2.93,8.89Q980.62,112,988.82,116.5Z"/><path class="cls-15" d="M974.64,242.2c2.2-3.81,4.41-7.58,6.7-11.21.24-.66.47-1.33.66-2-.19.66-.42,1.33-.66,2q1.36-2.16,2.77-4.26a4.05,4.05,0,0,1-1,.12c-1,0-1.5-.94-1.37-2.83s1.08-5.08,2.83-9.57,3.74-9.54,6-15.14l.12-.31H969.54a157,157,0,0,1-18,0l-.2.77q-12.14,47.79-2.62,61.55A68.75,68.75,0,0,0,974.64,242.2Z"/><path class="cls-14" d="M981.34,231c-2.29,3.63-4.5,7.4-6.7,11.21A40.38,40.38,0,0,0,981.34,231Z"/><path class="cls-14" d="M948.7,261.35a12.68,12.68,0,0,0,4,3.78,15.3,15.3,0,0,0,6.43,2.05c5.72-7.78,10.61-16.48,15.52-25A68.75,68.75,0,0,1,948.7,261.35Z"/><path class="cls-14" d="M1002.85,211.52q-3.65,3.55-7,6.74a77.29,77.29,0,0,1-7.22,6.15,12.41,12.41,0,0,1-4.52,2.32q-1.41,2.1-2.77,4.26a40.38,40.38,0,0,1-6.7,11.21c-4.91,8.5-9.8,17.2-15.52,25q15,1.4,40.25-23.34c2.86-2.8,5.51-5.43,8-7.9C1003.52,228.44,1002.46,220,1002.85,211.52Z"/><path class="cls-14" d="M990.7,199l.39-1c-7.18.08-14.36.63-21.55,1Z"/><path class="cls-14" d="M951.52,199a157,157,0,0,0,18,0h0c7.19-.35,14.37-.9,21.55-1q3.07-7.8,6.33-16.09,3.51-9,6.34-16.9l0,0H960.61Q956.68,178.73,951.52,199Z"/><path class="cls-15" d="M1006.6,133.78q-3.72-3-17.48-2.93t-18.66,6.45q-3.06,4-9.85,27.7h43.17q1.83-5.15,3.26-9.51c.51-1.55,1-3,1.41-4.42,1.24-4,1.86-6.77,1.86-8.21Q1010.31,136.82,1006.6,133.78Z"/><path class="cls-15" d="M1033.16,208.49a18.65,18.65,0,0,0,2.73-9c0-.79,0-1.73-.1-2.84a13.44,13.44,0,0,0-.58-3.22,7.07,7.07,0,0,0-1.47-2.64,3.52,3.52,0,0,0-2.73-1.07c-1.83,0-3.94.81-6.35,2.44a99.81,99.81,0,0,0-10,8.2q-6.35,5.77-10.64,10l-1.21,1.17c-.39,8.51.67,16.92,4.53,24.42Q1030.78,212.72,1033.16,208.49Z"/><path class="cls-14" d="M1061.19,250.58a33.75,33.75,0,0,0,8.3,7.32,19.76,19.76,0,0,0,10.74,2.93,36.78,36.78,0,0,0,16.8-4.39,87.74,87.74,0,0,0,16.4-10.94,95.83,95.83,0,0,0,8.82-8.5c-21.58,3.89-42.8,7.3-64.16,9.47C1059.08,247.89,1060.1,249.27,1061.19,250.58Z"/><path class="cls-15" d="M1098,76a199.65,199.65,0,0,0-31.84,1h31.62q2.68-8.19,4.52-14.51c1.3-4.49,2-7.64,2-9.47a14.11,14.11,0,0,0-3.12-8.2,40.74,40.74,0,0,0-7.52-7.81,48,48,0,0,0-9.28-5.86,20.3,20.3,0,0,0-8.59-2.35,14.9,14.9,0,0,0-8,2,15.67,15.67,0,0,0-5.08,5.07,26.72,26.72,0,0,0-3,7c-.71,2.61-1.4,5.21-2,7.82Q1054.32,63.88,1051,77h15.15A199.65,199.65,0,0,1,1098,76Z"/><path class="cls-14" d="M1051,77l-.45,1.81c5.18-.65,10.37-1.29,15.6-1.81Z"/><path class="cls-14" d="M1095.17,165l.39-.26c4.13-2.75,7.68-5.15,10.68-7.2-6.31-6.7-12.66-13.3-19.24-19.54,6.58,6.24,12.93,12.84,19.24,19.54q5.07-3.47,8-5.59a35.92,35.92,0,0,0,8.89-9.18,21.63,21.63,0,0,0,3.42-12.21,20.38,20.38,0,0,0-1.66-9c-1.11-2.22-3.75-3.32-7.91-3.32q-3.92,0-10,3.22a138,138,0,0,0-12.41,7.52q-6.35,4.29-12.11,8.79t-9.27,6.83c.49-1.42,1.14-3.21,1.93-5.34q-13.86,13-28.13,25.72Z"/><path class="cls-14" d="M1070,197a20.76,20.76,0,0,1-1.17-8.89q.5-3.81,7-9.18t19.34-13.9H1047q-11.36,10.09-23,20,11.67-9.9,23-20h-12.64q-4.47,4.91-9,9.73-1.54,5.45-3.11,10.91-1.17,4.1-2.83,10.45l-.5,1.91h51.43C1070.21,197.66,1070.09,197.31,1070,197Z"/><path class="cls-14" d="M1008.74,239.94q-1.56,7.22-2.44,13.37a75.25,75.25,0,0,0-.88,10.06,52.53,52.53,0,0,0,.69,8.11,27.39,27.39,0,0,0,2.54,8.1,18.74,18.74,0,0,0,5,6.25,11.92,11.92,0,0,0,7.81,2.54,15.5,15.5,0,0,0,7-1.66,10.22,10.22,0,0,0,4.88-5.17q2.16-4.69,4.4-11.14c1.49-4.29,2.93-8.79,4.29-13.47.92-3.14,1.79-6.21,2.65-9.26-11.14.85-22.34,1.33-33.69,1.33,11.35,0,22.55-.48,33.69-1.33.42-1.51.85-3,1.26-4.51.7-2.55,1.37-4.93,2-7.16H1009.6C1009.31,237.33,1009,238.64,1008.74,239.94Z"/><path class="cls-14" d="M1051.88,236c.88,1.63,1.79,3.3,2.76,5q1.62,2.85,3.45,5.46c21.36-2.17,42.58-5.58,64.16-9.47.3-.32.6-.67.9-1Z"/><path class="cls-15" d="M1129.64,228.31q8.4-10.63,11.92-17.48l1.46-2.93c.59-1.17,1.14-2.37,1.66-3.61s1-2.47,1.37-3.71a10.94,10.94,0,0,0,.58-3.22,5.8,5.8,0,0,0-1.07-3.32,11.1,11.1,0,0,0-2.73-2.74,12.79,12.79,0,0,0-3.62-1.76,14.51,14.51,0,0,0-2.65-.54c2.12,2,4.26,4,6.44,6-2.18-2-4.32-4-6.44-6-.3,0-.59,0-.86,0a11.63,11.63,0,0,0-7,2.44,37,37,0,0,0-6.35,6l-.45.55h0q-3,3.58-7.95,10.2a132.23,132.23,0,0,1-8.79,10.74,34.52,34.52,0,0,1-7.52,6.05,17.22,17.22,0,0,1-9,2.45q-2.36,0-5-2.84a36.53,36.53,0,0,1-5.08-7.22q-1.92-3.45-3.72-7.58c-17.28,1.65-34.57-1.45-51.85.2,17.28-1.65,34.57,1.45,51.85-.2-.32-.75-.65-1.5-1-2.29q-2-4.9-3.56-9.51h-51.43c-1,3.69-2,7.6-3.11,11.76q-1.95,7.32-3.72,15.14-1.27,5.7-2.46,11.1H1048c.48-1.7,1-3.33,1.41-4.85q1.19,2.35,2.51,4.85h71.27C1125.29,233.64,1127.45,231.1,1129.64,228.31Z"/><path class="cls-14" d="M1075.13,139.28c.65-1.78,1.41-3.8,2.27-6.08,1.64-4.37,3.44-9.21,5.39-14.47-2.8.23-5.6.45-8.4.64-13.43,15.22-26.4,30.68-40,45.63H1047Q1061.26,152.31,1075.13,139.28Z"/><path class="cls-15" d="M1043.53,121.65q4.42-.75,8.88-1.58-5,.06-10.06,0-8.22,27.25-17.35,54.64c20.13-18,38.65-37.06,58-55.73q-15.26.89-30.59,1.07Q1048,120.9,1043.53,121.65Z"/><path class="cls-14" d="M1082.79,118.73c.28-.78.56-1.54.86-2.33q1.11-3,2.27-6.18c-1.57.52-3.15,1-4.72,1.52q-3.43,3.8-6.81,7.63C1077.19,119.18,1080,119,1082.79,118.73Z"/><path class="cls-14" d="M1074.39,119.37q3.38-3.83,6.81-7.63c-10.89,3.42-21.83,6.32-32.69,8.69C1057.16,120.33,1065.78,120,1074.39,119.37Z"/><path class="cls-14" d="M1085.92,110.22c.75-2,1.5-4.06,2.26-6.13q-3.53,3.81-7,7.65C1082.77,111.25,1084.35,110.74,1085.92,110.22Z"/><path class="cls-14" d="M1041,119c16.22-6.86,32.45-15.28,49.4-20.89l.38-1q3.72-10.05,6.65-18.94l.36-1.12h-31.63c-5.22.52-10.41,1.16-15.6,1.81q-5,19.78-10,39.45l-.57,2.2c2.84,0,5.67,0,8.51,0,10.85-2.37,21.79-5.27,32.68-8.69q3.46-3.84,7-7.65l2.21-6C1073.44,103.72,1057.21,112.14,1041,119Z"/><path d="M1200.26,293.42l-4.54,19.64-26.8,1q-1.82,29.35-1.81,41.09t.22,16.58a69.87,69.87,0,0,0,1.48,10.85,37,37,0,0,0,3.29,9.82q4.77,8.68,15.22,8.68,13.4,0,19.3-15.06l14.53,7.92q-5.24,12.5-13.63,19.39t-23.38,6.89q-35.43,0-35.42-57.16l1.36-47.21-19.3.51,1.59-10.21,18.84-8.93L1160,238l13,24.28-3.41,34.2Z"/><path d="M1308.33,296l21.58,4.59q-32.48,99-38,119.17T1283.7,447a80.25,80.25,0,0,1-7.38,14.8q-9.32,14.81-28.27,14.8c-12.64,0-57.12-23.36-66-28.63l39.37.82q13.85,8.93,28.61,8.93a19.14,19.14,0,0,0,16.12-8.29,30.2,30.2,0,0,0,6.13-18.38q0-10.08-7.49-32l-35.88-98.24,22.26-5.87,31.33,100.54Z"/><path d="M1417.55,296l20.43,3.82q-.68,2.31-37.69,118.41L1388,443c-23-65.66-44.93-128.57-49.92-143.21l21.8-4.33,30.87,99Z"/><path d="M1536.07,366.4l-67,.51q0,16.33,8.17,26.15t18.4,9.83a38.92,38.92,0,0,0,17.59-3.7q7.38-3.7,10.56-7.28l3-3.82L1556,380c-8.78,11.91-42.33,39.73-60.8,39.73q-22.26,0-33.83-15.06t-11.58-41.46q0-26.41,14.64-46.45t37.58-20q18.39,0,26.91,14.17t8.51,36.87A126.7,126.7,0,0,1,1536.07,366.4ZM1514.84,324q-4.89-9.44-17.26-9.44t-20.43,12.12a47,47,0,0,0-8.29,25.64l50.86-.51Q1519.72,333.48,1514.84,324Z"/><path d="M1575.8,328.63q23.39-32.92,42.46-32.92,26.79,0,26.8,42.36v25c0,28.07.49,76.24.94,84.92l-20-28.27q.91-49,.91-67.75t-2.72-26.92q-2.73-8.16-11-8.17t-19.42,12.25q-11.13,12.25-14.3,26t-3.18,37.77l1.13,25.26L1557,448c-.3-41.68-.27-95.64-.27-105.34l-1.13-42.87,15.21-.76,3.41,29.35Z"/><circle class="cls-17" cx="1311.5" cy="749.5" r="8.5"/><circle class="cls-9" cx="1311.5" cy="948.5" r="8.5"/><rect class="cls-6" x="628.74" y="837.34" width="17.21" height="155.89" rx="4" ry="4"/><circle class="cls-18" cx="916.5" cy="1002.5" r="8.5"/><rect class="cls-2" x="157.1" y="819.2" width="25.54" height="178.8" rx="6.5" ry="6.5"/><ellipse class="cls-7" cx="166.92" cy="725.87" rx="115.92" ry="118.87"/><circle class="cls-5" cx="167.91" cy="725.87" r="110.03"/><circle class="cls-7" cx="167.91" cy="725.87" r="102.17"/><circle class="cls-5" cx="167.91" cy="725.87" r="94.31"/><circle class="cls-7" cx="166.92" cy="726.85" r="87.43"/><circle class="cls-5" cx="166.92" cy="726.85" r="79.58"/><circle class="cls-7" cx="166.92" cy="726.85" r="72.7"/><circle class="cls-5" cx="166.92" cy="726.85" r="64.84"/><rect class="cls-6" x="164.96" y="846.71" width="15.72" height="151.29" rx="4" ry="4"/><circle class="cls-7" cx="166.92" cy="726.85" r="58.94"/><circle class="cls-19" cx="1556.5" cy="866.5" r="8.5"/><path class="cls-20" d="M1443.94,798.15c7.07-30.12-15.65-91.23,32.63-146.2s111.94-78.62,142.2-52.84,35.62,112.55-32.63,146.19C1498.47,788.53,1443.82,798.68,1443.94,798.15Z"/><path class="cls-20" d="M1879.34,700.3c-45.58-21.56-68.08-68.54-50.25-104.94s84.33-74.09,114.83-26.87c39.18,60.65,27,161,26.56,161.12"/><ellipse class="cls-21" cx="1725.91" cy="736.77" rx="17.2" ry="12.58" transform="translate(-148.97 816.88) rotate(-25.56)"/><rect class="cls-22" x="1464.3" y="786.8" width="3.78" height="88.91"/><ellipse class="cls-23" cx="1466.19" cy="759.55" rx="37.81" ry="31.55"/><path class="cls-24" d="M1484.87,838.46a26.79,26.79,0,0,0-.42-7.3c-1.83-9.27-8-15.36-13.79-13.58-4,1.21-6.7,5.78-7.45,11.52-13.09-3.61-23.86-2.62-27.1,3.44-4.67,8.71,8,24.58,28.31,35.46s40.54,12.63,45.2,3.92C1514,863.73,1503.07,849.21,1484.87,838.46Z"/><path class="cls-21" d="M1616.46,1086.13C1551.22,1011.34,1675,786.69,1753,785S1979.38,973,1919.69,1085.53"/><ellipse class="cls-24" cx="1733.5" cy="727.96" rx="154.5" ry="154.38"/><path class="cls-21" d="M1917.16,906h-71.3c5.39,0,1.66-7.45,1.66-16.56h0a36.82,36.82,0,0,1,6.46-20.46l74.61-9.94c6.39,3.9,1.83,21.29,1.83,30.4h0C1930.42,898.51,1931.67,906,1917.16,906Z"/><path class="cls-21" d="M1636.47,894.53l-49.14,9c-1.7-.41-13.52-5.53-26-9.72l-39.54-50.7c-10-12.77-16.74-5.72-26.07,1.56s-30.27,17.15-29.87,25.9l61.39,57.72c1.12-.13,2.41-.35,3.83-.65l93,22.87c4.82-10.5,10.36-19.78,13.46-32h0C1640.6,906.19,1640.14,895.43,1636.47,894.53Z"/><path class="cls-25" d="M1869,658c-8.33-5.17-16.06-10.75-23.74-16.06s-15.14-10.46-22.55-15a152.74,152.74,0,0,0-22-11.28,106.58,106.58,0,0,0-21.61-6.22c-3.63-.61-7.26-1.13-11-1.4s-7.45-.45-11.26-.51c-1.9,0-3.82,0-5.76.07s-3.88.11-5.84.21c-3.92.23-7.9.5-11.91.93s-8.09.86-12.18,1.44-8.23,1.18-12.38,1.86-8.35,1.43-12.56,2.16c-2.11.4-4.22.76-6.33,1.18l-5.87,1.16c-14.42,3.1-27.33,8.14-38.51,15.66a90.55,90.55,0,0,0-15.63,13.3A109.36,109.36,0,0,0,1616.59,663c-8.09,13-14.43,28.55-19.51,45.36-2.56,8.42-4.8,17.16-6.91,26.15s-4,18.23-6.26,27.74a143.73,143.73,0,0,1-5.76-13.4c-1.65-4.55-3.2-9.17-4.52-13.87a179.26,179.26,0,0,1-5.58-29,163.84,163.84,0,0,1-.44-30.41,141.57,141.57,0,0,1,6-31.18,127.91,127.91,0,0,1,14.06-30.3,122.09,122.09,0,0,1,22.64-26.23c2.19-1.92,4.47-3.75,6.78-5.53s4.72-3.41,7.16-5a128.43,128.43,0,0,1,15.11-8.47A147.49,147.49,0,0,1,1671.29,558l4-.85,3.63-.66c2.4-.45,4.83-.84,7.24-1.25,4.87-.79,9.77-1.42,14.72-2s10-.94,15-1.25,10.18-.4,15.36-.32,10.39.27,15.66.79c2.64.26,5.28.54,7.94.89s5.31.82,8,1.31a147.24,147.24,0,0,1,16,3.91,131,131,0,0,1,15.61,5.93,116,116,0,0,1,27.9,17.82,128.83,128.83,0,0,1,21,23.23A178.92,178.92,0,0,1,1858.2,631,209.8,209.8,0,0,1,1869,658Z"/><polygon class="cls-26" points="1705.75 619 1705.75 565 1714.04 619 1705.75 619"/><path class="cls-27" d="M1784.41,753.5c14,40.09-2.82,80.08-29.34,86.38s-68-23.17-66.68-63.58"/><path class="cls-28" d="M1596.64,673.13a14.46,14.46,0,0,0-.44-1.46c-1.49-4.06,0-8.69,3.54-12.23l28-28.28c8.24-8.34,3.19-20.1-9.09-21.17l-56.31-4.91c-12.28-1.07-22.58,9.35-18.54,18.75l14.57,33.94c1.65,3.84.86,8.23-2,11.94a16.19,16.19,0,0,0-3.25,13.82,14.49,14.49,0,0,0,1.39,3.54c2.19,4,1.69,8.78-1.36,12.77l-23.4,30.58c-6.93,9.05,0,20,12.51,19.74l54.71-1.24c12.49-.29,21.16-11.61,15.6-20.39L1593.87,699a11.6,11.6,0,0,1,.19-13A16,16,0,0,0,1596.64,673.13Z"/><path class="cls-29" d="M1699.2,711.38c-5.4-23.61-17.67-41-27.42-38.72S1651,692,1663.91,719.45"/><path class="cls-29" d="M1791.6,690.75c-1.6-29.75-17.07-38.32-26.82-36.09s-13.54,22-8.47,44.16"/><path class="cls-30" d="M1760,825.31c.22-10-22.13-30.31-32.76-30.31S1708,803.59,1708,813.58s13.1,9.44,19.24,17.6C1736.48,843.44,1759.72,837.76,1760,825.31Z"/><path class="cls-30" d="M1757,831.84c28.89-9.23,26.88-39.86.5-40.84-10.22-.38-18.52,8.9-18.52,19.88s8.29,19.89,18.52,19.89S1747.22,835,1757,831.84Z"/><ellipse class="cls-31" cx="1823.5" cy="731.5" rx="12.5" ry="22.5" transform="translate(734.07 2366.55) rotate(-78.18)"/><ellipse class="cls-31" cx="1646.5" cy="762.5" rx="22.5" ry="12.5" transform="translate(-167.85 785.14) rotate(-25.56)"/><ellipse class="cls-32" cx="1728.95" cy="716.06" rx="17.86" ry="6.71" transform="translate(-136.03 561.59) rotate(-17.76)"/></svg>
