<svg id="Layer_1" data-name="Layer 1" xmlns="http://www.w3.org/2000/svg" width="200.38" height="341" viewBox="0 0 200.38 341"><defs><style>.cls-1{fill:#eebfff;}.cls-2{fill:#553900;}</style></defs><title>Træ</title><ellipse class="cls-1" cx="178.63" cy="147.52" rx="31.1" ry="20.08" transform="translate(-19.63 267.35) rotate(-70.7)"/><ellipse class="cls-1" cx="169.45" cy="194.65" rx="31.1" ry="20.08" transform="translate(-70.26 290.25) rotate(-70.7)"/><ellipse class="cls-1" cx="169.45" cy="102.04" rx="31.1" ry="20.08" transform="translate(17.14 228.25) rotate(-70.7)"/><ellipse class="cls-1" cx="101.41" cy="145.03" rx="87.92" ry="128.16"/><polygon class="cls-2" points="83.82 256.66 117.46 256.66 100.64 341 83.82 256.66"/><ellipse class="cls-1" cx="37.95" cy="217.8" rx="20.36" ry="30.67" transform="translate(-106.62 50.53) rotate(-30.95)"/><ellipse class="cls-1" cx="21.89" cy="166.53" rx="20.1" ry="31.07" transform="translate(-56.08 17.76) rotate(-20.17)"/><ellipse class="cls-1" cx="28.65" cy="118.99" rx="18.9" ry="28.53" transform="translate(-26.23 9.59) rotate(-13.1)"/><ellipse class="cls-1" cx="150.34" cy="234.34" rx="30.59" ry="20.42" transform="translate(-128.07 233.33) rotate(-57.11)"/><ellipse class="cls-1" cx="90.7" cy="30.1" rx="20.21" ry="30.9" transform="translate(-4.19 41.43) rotate(-25.17)"/><ellipse class="cls-1" cx="58.59" cy="50.77" rx="19.94" ry="31.33" transform="translate(-7.94 10.97) rotate(-10.02)"/><ellipse class="cls-1" cx="43.3" cy="81.37" rx="20.36" ry="30.67" transform="translate(-35.68 33.86) rotate(-30.95)"/><ellipse class="cls-1" cx="153.4" cy="72.27" rx="31.1" ry="20.08" transform="translate(34.49 193.16) rotate(-70.7)"/><ellipse class="cls-1" cx="135.05" cy="50.77" rx="31.1" ry="20.08" transform="translate(42.49 161.45) rotate(-70.7)"/><ellipse class="cls-1" cx="112.11" cy="30.1" rx="31.1" ry="20.08" transform="translate(46.65 125.96) rotate(-70.7)"/></svg>
